<?xml version="1.0" encoding="UTF-8" standalone="no"?>
<!DOCTYPE svg PUBLIC "-//W3C//DTD SVG 1.1//EN"
 "http://www.w3.org/Graphics/SVG/1.1/DTD/svg11.dtd">
<!-- Generated by graphviz version 2.38.0 (20140413.2041)
 -->
<!-- Title: %3 Pages: 1 -->
<svg width="113pt" height="379pt"
 viewBox="0.00 0.00 113.14 379.30" xmlns="http://www.w3.org/2000/svg" xmlns:xlink="http://www.w3.org/1999/xlink">
<g id="graph0" class="graph" transform="scale(1 1) rotate(0) translate(4 375.304)">
<title>%3</title>
<polygon fill="white" stroke="none" points="-4,4 -4,-375.304 109.143,-375.304 109.143,4 -4,4"/>
<!-- A -->
<g id="node1" class="node"><title>A</title>
<polygon fill="lightgray" stroke="black" points="82.9767,-371.304 59.9767,-371.304 59.9767,-353.304 82.9767,-353.304 82.9767,-371.304"/>
<text text-anchor="middle" x="71.4767" y="-360.104" font-family="Times New Roman,serif" font-size="9.00">A</text>
</g>
<!-- 123 -->
<g id="node5" class="node"><title>123</title>
<ellipse fill="white" stroke="black" cx="63.4767" cy="-132.167" rx="21.4286" ry="21.4286"/>
<text text-anchor="middle" x="63.4767" y="-129.967" font-family="Times New Roman,serif" font-size="9.00">123</text>
</g>
<!-- A&#45;&gt;123 -->
<g id="edge3" class="edge"><title>A&#45;&gt;123</title>
<path fill="none" stroke="green" stroke-width="0.484576" d="M75.2702,-353.266C86.4666,-328.434 117.49,-250.908 99.4767,-189.38 96.0862,-177.799 89.4981,-166.339 82.8744,-156.818"/>
<polygon fill="green" stroke="green" stroke-width="0.484576" points="85.6216,-154.646 76.8723,-148.671 79.9859,-158.798 85.6216,-154.646"/>
</g>
<!-- 276 -->
<g id="node6" class="node"><title>276</title>
<ellipse fill="white" stroke="black" cx="44.4767" cy="-296.09" rx="21.4286" ry="21.4286"/>
<text text-anchor="middle" x="44.4767" y="-293.89" font-family="Times New Roman,serif" font-size="9.00">276</text>
</g>
<!-- A&#45;&gt;276 -->
<g id="edge4" class="edge"><title>A&#45;&gt;276</title>
<path fill="none" stroke="green" stroke-width="0.660987" d="M68.0571,-353.171C65.0891,-346.112 60.611,-335.462 56.3518,-325.333"/>
<polygon fill="green" stroke="green" stroke-width="0.660987" points="59.4942,-323.776 52.3917,-315.914 53.0414,-326.489 59.4942,-323.776"/>
</g>
<!-- B -->
<g id="node2" class="node"><title>B</title>
<polygon fill="lightgray" stroke="black" points="27.9767,-371.304 4.97666,-371.304 4.97666,-353.304 27.9767,-353.304 27.9767,-371.304"/>
<text text-anchor="middle" x="16.4767" y="-360.104" font-family="Times New Roman,serif" font-size="9.00">B</text>
</g>
<!-- B&#45;&gt;123 -->
<g id="edge1" class="edge"><title>B&#45;&gt;123</title>
<path fill="none" stroke="green" stroke-width="0.961438" d="M15.9978,-353.198C15.5022,-344.373 14.7615,-329.841 14.4767,-317.304 13.1741,-259.964 11.4389,-243.12 31.4767,-189.38 35.3607,-178.963 41.0263,-168.196 46.5147,-158.908"/>
<polygon fill="green" stroke="green" stroke-width="0.961438" points="49.6234,-160.534 51.8715,-150.18 43.6575,-156.872 49.6234,-160.534"/>
</g>
<!-- B&#45;&gt;276 -->
<g id="edge6" class="edge"><title>B&#45;&gt;276</title>
<path fill="none" stroke="green" stroke-width="1.49106" d="M20.0229,-353.171C23.1007,-346.112 27.7448,-335.462 32.1617,-325.333"/>
<polygon fill="green" stroke="green" stroke-width="1.49106" points="35.4797,-326.48 36.2685,-315.914 29.0631,-323.682 35.4797,-326.48"/>
</g>
<!-- A XOR B -->
<g id="node3" class="node"><title>A XOR B</title>
<ellipse fill="lightblue" stroke="black" cx="37.4767" cy="-37.4767" rx="37.4533" ry="37.4533"/>
<text text-anchor="middle" x="37.4767" y="-35.2767" font-family="Times New Roman,serif" font-size="9.00">A XOR B</text>
</g>
<!-- 1386 -->
<g id="node4" class="node"><title>1386</title>
<ellipse fill="white" stroke="black" cx="65.4767" cy="-214.128" rx="25" ry="25"/>
<text text-anchor="middle" x="65.4767" y="-211.928" font-family="Times New Roman,serif" font-size="9.00">1386</text>
</g>
<!-- 1386&#45;&gt;123 -->
<g id="edge8" class="edge"><title>1386&#45;&gt;123</title>
<path fill="none" stroke="red" stroke-width="0.363077" d="M64.8766,-189.137C64.6776,-181.18 64.4533,-172.212 64.2434,-163.823"/>
<polygon fill="red" stroke="red" stroke-width="0.363077" points="67.7375,-163.537 63.9884,-153.627 60.7397,-163.712 67.7375,-163.537"/>
</g>
<!-- 123&#45;&gt;A XOR B -->
<g id="edge2" class="edge"><title>123&#45;&gt;A XOR B</title>
<path fill="none" stroke="red" stroke-width="0.784209" d="M57.9627,-111.509C55.6597,-103.299 52.8812,-93.3936 50.1238,-83.5637"/>
<polygon fill="red" stroke="red" stroke-width="0.784209" points="53.4627,-82.5076 47.3919,-73.8245 46.7229,-84.3982 53.4627,-82.5076"/>
</g>
<!-- 276&#45;&gt;A XOR B -->
<g id="edge5" class="edge"><title>276&#45;&gt;A XOR B</title>
<path fill="none" stroke="green" stroke-width="1.04316" d="M38.7954,-275.51C35.9791,-264.792 32.885,-251.218 31.4767,-238.877 25.486,-186.385 28.7086,-125.689 32.325,-84.9708"/>
<polygon fill="green" stroke="green" stroke-width="1.04316" points="35.8288,-85.092 33.2726,-74.8102 28.8591,-84.4419 35.8288,-85.092"/>
</g>
<!-- 276&#45;&gt;1386 -->
<g id="edge7" class="edge"><title>276&#45;&gt;1386</title>
<path fill="none" stroke="green" stroke-width="0.448075" d="M49.6677,-275.325C51.8262,-267.105 54.391,-257.339 56.8199,-248.091"/>
<polygon fill="green" stroke="green" stroke-width="0.448075" points="60.2216,-248.917 59.3766,-238.356 53.4512,-247.139 60.2216,-248.917"/>
</g>
</g>
</svg>
