<?xml version="1.0" encoding="utf-8" standalone="no"?>
<!DOCTYPE svg PUBLIC "-//W3C//DTD SVG 1.1//EN"
  "http://www.w3.org/Graphics/SVG/1.1/DTD/svg11.dtd">
<!-- Created with matplotlib (http://matplotlib.org/) -->
<svg height="288pt" version="1.1" viewBox="0 0 432 288" width="432pt" xmlns="http://www.w3.org/2000/svg" xmlns:xlink="http://www.w3.org/1999/xlink">
 <defs>
  <style type="text/css">
*{stroke-linecap:butt;stroke-linejoin:round;}
  </style>
 </defs>
 <g id="figure_1">
  <g id="patch_1">
   <path d="M 0 288 
L 432 288 
L 432 0 
L 0 0 
z
" style="fill:#ffffff;"/>
  </g>
  <g id="axes_1">
   <g id="patch_2">
    <path d="M 54 252 
L 388.8 252 
L 388.8 34.56 
L 54 34.56 
z
" style="fill:#ffffff;"/>
   </g>
   <g id="matplotlib.axis_1">
    <g id="xtick_1">
     <g id="line2d_1">
      <path clip-path="url(#p08d503a582)" d="M 69.218182 252 
L 69.218182 34.56 
" style="fill:none;stroke:#b0b0b0;stroke-linecap:square;stroke-width:0.8;"/>
     </g>
     <g id="line2d_2">
      <defs>
       <path d="M 0 0 
L 0 3.5 
" id="m63824c14a9" style="stroke:#000000;stroke-width:0.8;"/>
      </defs>
      <g>
       <use style="stroke:#000000;stroke-width:0.8;" x="69.218182" xlink:href="#m63824c14a9" y="252"/>
      </g>
     </g>
     <g id="text_1">
      <!-- 0 -->
      <defs>
       <path d="M 31.78125 66.40625 
Q 24.171875 66.40625 20.328125 58.90625 
Q 16.5 51.421875 16.5 36.375 
Q 16.5 21.390625 20.328125 13.890625 
Q 24.171875 6.390625 31.78125 6.390625 
Q 39.453125 6.390625 43.28125 13.890625 
Q 47.125 21.390625 47.125 36.375 
Q 47.125 51.421875 43.28125 58.90625 
Q 39.453125 66.40625 31.78125 66.40625 
z
M 31.78125 74.21875 
Q 44.046875 74.21875 50.515625 64.515625 
Q 56.984375 54.828125 56.984375 36.375 
Q 56.984375 17.96875 50.515625 8.265625 
Q 44.046875 -1.421875 31.78125 -1.421875 
Q 19.53125 -1.421875 13.0625 8.265625 
Q 6.59375 17.96875 6.59375 36.375 
Q 6.59375 54.828125 13.0625 64.515625 
Q 19.53125 74.21875 31.78125 74.21875 
z
" id="DejaVuSans-30"/>
      </defs>
      <g transform="translate(66.036932 266.598437)scale(0.1 -0.1)">
       <use xlink:href="#DejaVuSans-30"/>
      </g>
     </g>
    </g>
    <g id="xtick_2">
     <g id="line2d_3">
      <path clip-path="url(#p08d503a582)" d="M 107.358988 252 
L 107.358988 34.56 
" style="fill:none;stroke:#b0b0b0;stroke-linecap:square;stroke-width:0.8;"/>
     </g>
     <g id="line2d_4">
      <g>
       <use style="stroke:#000000;stroke-width:0.8;" x="107.358988" xlink:href="#m63824c14a9" y="252"/>
      </g>
     </g>
     <g id="text_2">
      <!-- 50 -->
      <defs>
       <path d="M 10.796875 72.90625 
L 49.515625 72.90625 
L 49.515625 64.59375 
L 19.828125 64.59375 
L 19.828125 46.734375 
Q 21.96875 47.46875 24.109375 47.828125 
Q 26.265625 48.1875 28.421875 48.1875 
Q 40.625 48.1875 47.75 41.5 
Q 54.890625 34.8125 54.890625 23.390625 
Q 54.890625 11.625 47.5625 5.09375 
Q 40.234375 -1.421875 26.90625 -1.421875 
Q 22.3125 -1.421875 17.546875 -0.640625 
Q 12.796875 0.140625 7.71875 1.703125 
L 7.71875 11.625 
Q 12.109375 9.234375 16.796875 8.0625 
Q 21.484375 6.890625 26.703125 6.890625 
Q 35.15625 6.890625 40.078125 11.328125 
Q 45.015625 15.765625 45.015625 23.390625 
Q 45.015625 31 40.078125 35.4375 
Q 35.15625 39.890625 26.703125 39.890625 
Q 22.75 39.890625 18.8125 39.015625 
Q 14.890625 38.140625 10.796875 36.28125 
z
" id="DejaVuSans-35"/>
      </defs>
      <g transform="translate(100.996488 266.598437)scale(0.1 -0.1)">
       <use xlink:href="#DejaVuSans-35"/>
       <use x="63.623047" xlink:href="#DejaVuSans-30"/>
      </g>
     </g>
    </g>
    <g id="xtick_3">
     <g id="line2d_5">
      <path clip-path="url(#p08d503a582)" d="M 145.499795 252 
L 145.499795 34.56 
" style="fill:none;stroke:#b0b0b0;stroke-linecap:square;stroke-width:0.8;"/>
     </g>
     <g id="line2d_6">
      <g>
       <use style="stroke:#000000;stroke-width:0.8;" x="145.499795" xlink:href="#m63824c14a9" y="252"/>
      </g>
     </g>
     <g id="text_3">
      <!-- 100 -->
      <defs>
       <path d="M 12.40625 8.296875 
L 28.515625 8.296875 
L 28.515625 63.921875 
L 10.984375 60.40625 
L 10.984375 69.390625 
L 28.421875 72.90625 
L 38.28125 72.90625 
L 38.28125 8.296875 
L 54.390625 8.296875 
L 54.390625 0 
L 12.40625 0 
z
" id="DejaVuSans-31"/>
      </defs>
      <g transform="translate(135.956045 266.598437)scale(0.1 -0.1)">
       <use xlink:href="#DejaVuSans-31"/>
       <use x="63.623047" xlink:href="#DejaVuSans-30"/>
       <use x="127.246094" xlink:href="#DejaVuSans-30"/>
      </g>
     </g>
    </g>
    <g id="xtick_4">
     <g id="line2d_7">
      <path clip-path="url(#p08d503a582)" d="M 183.640602 252 
L 183.640602 34.56 
" style="fill:none;stroke:#b0b0b0;stroke-linecap:square;stroke-width:0.8;"/>
     </g>
     <g id="line2d_8">
      <g>
       <use style="stroke:#000000;stroke-width:0.8;" x="183.640602" xlink:href="#m63824c14a9" y="252"/>
      </g>
     </g>
     <g id="text_4">
      <!-- 150 -->
      <g transform="translate(174.096852 266.598437)scale(0.1 -0.1)">
       <use xlink:href="#DejaVuSans-31"/>
       <use x="63.623047" xlink:href="#DejaVuSans-35"/>
       <use x="127.246094" xlink:href="#DejaVuSans-30"/>
      </g>
     </g>
    </g>
    <g id="xtick_5">
     <g id="line2d_9">
      <path clip-path="url(#p08d503a582)" d="M 221.781408 252 
L 221.781408 34.56 
" style="fill:none;stroke:#b0b0b0;stroke-linecap:square;stroke-width:0.8;"/>
     </g>
     <g id="line2d_10">
      <g>
       <use style="stroke:#000000;stroke-width:0.8;" x="221.781408" xlink:href="#m63824c14a9" y="252"/>
      </g>
     </g>
     <g id="text_5">
      <!-- 200 -->
      <defs>
       <path d="M 19.1875 8.296875 
L 53.609375 8.296875 
L 53.609375 0 
L 7.328125 0 
L 7.328125 8.296875 
Q 12.9375 14.109375 22.625 23.890625 
Q 32.328125 33.6875 34.8125 36.53125 
Q 39.546875 41.84375 41.421875 45.53125 
Q 43.3125 49.21875 43.3125 52.78125 
Q 43.3125 58.59375 39.234375 62.25 
Q 35.15625 65.921875 28.609375 65.921875 
Q 23.96875 65.921875 18.8125 64.3125 
Q 13.671875 62.703125 7.8125 59.421875 
L 7.8125 69.390625 
Q 13.765625 71.78125 18.9375 73 
Q 24.125 74.21875 28.421875 74.21875 
Q 39.75 74.21875 46.484375 68.546875 
Q 53.21875 62.890625 53.21875 53.421875 
Q 53.21875 48.921875 51.53125 44.890625 
Q 49.859375 40.875 45.40625 35.40625 
Q 44.1875 33.984375 37.640625 27.21875 
Q 31.109375 20.453125 19.1875 8.296875 
z
" id="DejaVuSans-32"/>
      </defs>
      <g transform="translate(212.237658 266.598437)scale(0.1 -0.1)">
       <use xlink:href="#DejaVuSans-32"/>
       <use x="63.623047" xlink:href="#DejaVuSans-30"/>
       <use x="127.246094" xlink:href="#DejaVuSans-30"/>
      </g>
     </g>
    </g>
    <g id="xtick_6">
     <g id="line2d_11">
      <path clip-path="url(#p08d503a582)" d="M 259.922215 252 
L 259.922215 34.56 
" style="fill:none;stroke:#b0b0b0;stroke-linecap:square;stroke-width:0.8;"/>
     </g>
     <g id="line2d_12">
      <g>
       <use style="stroke:#000000;stroke-width:0.8;" x="259.922215" xlink:href="#m63824c14a9" y="252"/>
      </g>
     </g>
     <g id="text_6">
      <!-- 250 -->
      <g transform="translate(250.378465 266.598437)scale(0.1 -0.1)">
       <use xlink:href="#DejaVuSans-32"/>
       <use x="63.623047" xlink:href="#DejaVuSans-35"/>
       <use x="127.246094" xlink:href="#DejaVuSans-30"/>
      </g>
     </g>
    </g>
    <g id="xtick_7">
     <g id="line2d_13">
      <path clip-path="url(#p08d503a582)" d="M 298.063021 252 
L 298.063021 34.56 
" style="fill:none;stroke:#b0b0b0;stroke-linecap:square;stroke-width:0.8;"/>
     </g>
     <g id="line2d_14">
      <g>
       <use style="stroke:#000000;stroke-width:0.8;" x="298.063021" xlink:href="#m63824c14a9" y="252"/>
      </g>
     </g>
     <g id="text_7">
      <!-- 300 -->
      <defs>
       <path d="M 40.578125 39.3125 
Q 47.65625 37.796875 51.625 33 
Q 55.609375 28.21875 55.609375 21.1875 
Q 55.609375 10.40625 48.1875 4.484375 
Q 40.765625 -1.421875 27.09375 -1.421875 
Q 22.515625 -1.421875 17.65625 -0.515625 
Q 12.796875 0.390625 7.625 2.203125 
L 7.625 11.71875 
Q 11.71875 9.328125 16.59375 8.109375 
Q 21.484375 6.890625 26.8125 6.890625 
Q 36.078125 6.890625 40.9375 10.546875 
Q 45.796875 14.203125 45.796875 21.1875 
Q 45.796875 27.640625 41.28125 31.265625 
Q 36.765625 34.90625 28.71875 34.90625 
L 20.21875 34.90625 
L 20.21875 43.015625 
L 29.109375 43.015625 
Q 36.375 43.015625 40.234375 45.921875 
Q 44.09375 48.828125 44.09375 54.296875 
Q 44.09375 59.90625 40.109375 62.90625 
Q 36.140625 65.921875 28.71875 65.921875 
Q 24.65625 65.921875 20.015625 65.03125 
Q 15.375 64.15625 9.8125 62.3125 
L 9.8125 71.09375 
Q 15.4375 72.65625 20.34375 73.4375 
Q 25.25 74.21875 29.59375 74.21875 
Q 40.828125 74.21875 47.359375 69.109375 
Q 53.90625 64.015625 53.90625 55.328125 
Q 53.90625 49.265625 50.4375 45.09375 
Q 46.96875 40.921875 40.578125 39.3125 
z
" id="DejaVuSans-33"/>
      </defs>
      <g transform="translate(288.519271 266.598437)scale(0.1 -0.1)">
       <use xlink:href="#DejaVuSans-33"/>
       <use x="63.623047" xlink:href="#DejaVuSans-30"/>
       <use x="127.246094" xlink:href="#DejaVuSans-30"/>
      </g>
     </g>
    </g>
    <g id="xtick_8">
     <g id="line2d_15">
      <path clip-path="url(#p08d503a582)" d="M 336.203828 252 
L 336.203828 34.56 
" style="fill:none;stroke:#b0b0b0;stroke-linecap:square;stroke-width:0.8;"/>
     </g>
     <g id="line2d_16">
      <g>
       <use style="stroke:#000000;stroke-width:0.8;" x="336.203828" xlink:href="#m63824c14a9" y="252"/>
      </g>
     </g>
     <g id="text_8">
      <!-- 350 -->
      <g transform="translate(326.660078 266.598437)scale(0.1 -0.1)">
       <use xlink:href="#DejaVuSans-33"/>
       <use x="63.623047" xlink:href="#DejaVuSans-35"/>
       <use x="127.246094" xlink:href="#DejaVuSans-30"/>
      </g>
     </g>
    </g>
    <g id="xtick_9">
     <g id="line2d_17">
      <path clip-path="url(#p08d503a582)" d="M 374.344634 252 
L 374.344634 34.56 
" style="fill:none;stroke:#b0b0b0;stroke-linecap:square;stroke-width:0.8;"/>
     </g>
     <g id="line2d_18">
      <g>
       <use style="stroke:#000000;stroke-width:0.8;" x="374.344634" xlink:href="#m63824c14a9" y="252"/>
      </g>
     </g>
     <g id="text_9">
      <!-- 400 -->
      <defs>
       <path d="M 37.796875 64.3125 
L 12.890625 25.390625 
L 37.796875 25.390625 
z
M 35.203125 72.90625 
L 47.609375 72.90625 
L 47.609375 25.390625 
L 58.015625 25.390625 
L 58.015625 17.1875 
L 47.609375 17.1875 
L 47.609375 0 
L 37.796875 0 
L 37.796875 17.1875 
L 4.890625 17.1875 
L 4.890625 26.703125 
z
" id="DejaVuSans-34"/>
      </defs>
      <g transform="translate(364.800884 266.598437)scale(0.1 -0.1)">
       <use xlink:href="#DejaVuSans-34"/>
       <use x="63.623047" xlink:href="#DejaVuSans-30"/>
       <use x="127.246094" xlink:href="#DejaVuSans-30"/>
      </g>
     </g>
    </g>
    <g id="text_10">
     <!-- Generations -->
     <defs>
      <path d="M 59.515625 10.40625 
L 59.515625 29.984375 
L 43.40625 29.984375 
L 43.40625 38.09375 
L 69.28125 38.09375 
L 69.28125 6.78125 
Q 63.578125 2.734375 56.6875 0.65625 
Q 49.8125 -1.421875 42 -1.421875 
Q 24.90625 -1.421875 15.25 8.5625 
Q 5.609375 18.5625 5.609375 36.375 
Q 5.609375 54.25 15.25 64.234375 
Q 24.90625 74.21875 42 74.21875 
Q 49.125 74.21875 55.546875 72.453125 
Q 61.96875 70.703125 67.390625 67.28125 
L 67.390625 56.78125 
Q 61.921875 61.421875 55.765625 63.765625 
Q 49.609375 66.109375 42.828125 66.109375 
Q 29.4375 66.109375 22.71875 58.640625 
Q 16.015625 51.171875 16.015625 36.375 
Q 16.015625 21.625 22.71875 14.15625 
Q 29.4375 6.6875 42.828125 6.6875 
Q 48.046875 6.6875 52.140625 7.59375 
Q 56.25 8.5 59.515625 10.40625 
z
" id="DejaVuSans-47"/>
      <path d="M 56.203125 29.59375 
L 56.203125 25.203125 
L 14.890625 25.203125 
Q 15.484375 15.921875 20.484375 11.0625 
Q 25.484375 6.203125 34.421875 6.203125 
Q 39.59375 6.203125 44.453125 7.46875 
Q 49.3125 8.734375 54.109375 11.28125 
L 54.109375 2.78125 
Q 49.265625 0.734375 44.1875 -0.34375 
Q 39.109375 -1.421875 33.890625 -1.421875 
Q 20.796875 -1.421875 13.15625 6.1875 
Q 5.515625 13.8125 5.515625 26.8125 
Q 5.515625 40.234375 12.765625 48.109375 
Q 20.015625 56 32.328125 56 
Q 43.359375 56 49.78125 48.890625 
Q 56.203125 41.796875 56.203125 29.59375 
z
M 47.21875 32.234375 
Q 47.125 39.59375 43.09375 43.984375 
Q 39.0625 48.390625 32.421875 48.390625 
Q 24.90625 48.390625 20.390625 44.140625 
Q 15.875 39.890625 15.1875 32.171875 
z
" id="DejaVuSans-65"/>
      <path d="M 54.890625 33.015625 
L 54.890625 0 
L 45.90625 0 
L 45.90625 32.71875 
Q 45.90625 40.484375 42.875 44.328125 
Q 39.84375 48.1875 33.796875 48.1875 
Q 26.515625 48.1875 22.3125 43.546875 
Q 18.109375 38.921875 18.109375 30.90625 
L 18.109375 0 
L 9.078125 0 
L 9.078125 54.6875 
L 18.109375 54.6875 
L 18.109375 46.1875 
Q 21.34375 51.125 25.703125 53.5625 
Q 30.078125 56 35.796875 56 
Q 45.21875 56 50.046875 50.171875 
Q 54.890625 44.34375 54.890625 33.015625 
z
" id="DejaVuSans-6e"/>
      <path d="M 41.109375 46.296875 
Q 39.59375 47.171875 37.8125 47.578125 
Q 36.03125 48 33.890625 48 
Q 26.265625 48 22.1875 43.046875 
Q 18.109375 38.09375 18.109375 28.8125 
L 18.109375 0 
L 9.078125 0 
L 9.078125 54.6875 
L 18.109375 54.6875 
L 18.109375 46.1875 
Q 20.953125 51.171875 25.484375 53.578125 
Q 30.03125 56 36.53125 56 
Q 37.453125 56 38.578125 55.875 
Q 39.703125 55.765625 41.0625 55.515625 
z
" id="DejaVuSans-72"/>
      <path d="M 34.28125 27.484375 
Q 23.390625 27.484375 19.1875 25 
Q 14.984375 22.515625 14.984375 16.5 
Q 14.984375 11.71875 18.140625 8.90625 
Q 21.296875 6.109375 26.703125 6.109375 
Q 34.1875 6.109375 38.703125 11.40625 
Q 43.21875 16.703125 43.21875 25.484375 
L 43.21875 27.484375 
z
M 52.203125 31.203125 
L 52.203125 0 
L 43.21875 0 
L 43.21875 8.296875 
Q 40.140625 3.328125 35.546875 0.953125 
Q 30.953125 -1.421875 24.3125 -1.421875 
Q 15.921875 -1.421875 10.953125 3.296875 
Q 6 8.015625 6 15.921875 
Q 6 25.140625 12.171875 29.828125 
Q 18.359375 34.515625 30.609375 34.515625 
L 43.21875 34.515625 
L 43.21875 35.40625 
Q 43.21875 41.609375 39.140625 45 
Q 35.0625 48.390625 27.6875 48.390625 
Q 23 48.390625 18.546875 47.265625 
Q 14.109375 46.140625 10.015625 43.890625 
L 10.015625 52.203125 
Q 14.9375 54.109375 19.578125 55.046875 
Q 24.21875 56 28.609375 56 
Q 40.484375 56 46.34375 49.84375 
Q 52.203125 43.703125 52.203125 31.203125 
z
" id="DejaVuSans-61"/>
      <path d="M 18.3125 70.21875 
L 18.3125 54.6875 
L 36.8125 54.6875 
L 36.8125 47.703125 
L 18.3125 47.703125 
L 18.3125 18.015625 
Q 18.3125 11.328125 20.140625 9.421875 
Q 21.96875 7.515625 27.59375 7.515625 
L 36.8125 7.515625 
L 36.8125 0 
L 27.59375 0 
Q 17.1875 0 13.234375 3.875 
Q 9.28125 7.765625 9.28125 18.015625 
L 9.28125 47.703125 
L 2.6875 47.703125 
L 2.6875 54.6875 
L 9.28125 54.6875 
L 9.28125 70.21875 
z
" id="DejaVuSans-74"/>
      <path d="M 9.421875 54.6875 
L 18.40625 54.6875 
L 18.40625 0 
L 9.421875 0 
z
M 9.421875 75.984375 
L 18.40625 75.984375 
L 18.40625 64.59375 
L 9.421875 64.59375 
z
" id="DejaVuSans-69"/>
      <path d="M 30.609375 48.390625 
Q 23.390625 48.390625 19.1875 42.75 
Q 14.984375 37.109375 14.984375 27.296875 
Q 14.984375 17.484375 19.15625 11.84375 
Q 23.34375 6.203125 30.609375 6.203125 
Q 37.796875 6.203125 41.984375 11.859375 
Q 46.1875 17.53125 46.1875 27.296875 
Q 46.1875 37.015625 41.984375 42.703125 
Q 37.796875 48.390625 30.609375 48.390625 
z
M 30.609375 56 
Q 42.328125 56 49.015625 48.375 
Q 55.71875 40.765625 55.71875 27.296875 
Q 55.71875 13.875 49.015625 6.21875 
Q 42.328125 -1.421875 30.609375 -1.421875 
Q 18.84375 -1.421875 12.171875 6.21875 
Q 5.515625 13.875 5.515625 27.296875 
Q 5.515625 40.765625 12.171875 48.375 
Q 18.84375 56 30.609375 56 
z
" id="DejaVuSans-6f"/>
      <path d="M 44.28125 53.078125 
L 44.28125 44.578125 
Q 40.484375 46.53125 36.375 47.5 
Q 32.28125 48.484375 27.875 48.484375 
Q 21.1875 48.484375 17.84375 46.4375 
Q 14.5 44.390625 14.5 40.28125 
Q 14.5 37.15625 16.890625 35.375 
Q 19.28125 33.59375 26.515625 31.984375 
L 29.59375 31.296875 
Q 39.15625 29.25 43.1875 25.515625 
Q 47.21875 21.78125 47.21875 15.09375 
Q 47.21875 7.46875 41.1875 3.015625 
Q 35.15625 -1.421875 24.609375 -1.421875 
Q 20.21875 -1.421875 15.453125 -0.5625 
Q 10.6875 0.296875 5.421875 2 
L 5.421875 11.28125 
Q 10.40625 8.6875 15.234375 7.390625 
Q 20.0625 6.109375 24.8125 6.109375 
Q 31.15625 6.109375 34.5625 8.28125 
Q 37.984375 10.453125 37.984375 14.40625 
Q 37.984375 18.0625 35.515625 20.015625 
Q 33.0625 21.96875 24.703125 23.78125 
L 21.578125 24.515625 
Q 13.234375 26.265625 9.515625 29.90625 
Q 5.8125 33.546875 5.8125 39.890625 
Q 5.8125 47.609375 11.28125 51.796875 
Q 16.75 56 26.8125 56 
Q 31.78125 56 36.171875 55.265625 
Q 40.578125 54.546875 44.28125 53.078125 
z
" id="DejaVuSans-73"/>
     </defs>
     <g transform="translate(190.902344 280.276563)scale(0.1 -0.1)">
      <use xlink:href="#DejaVuSans-47"/>
      <use x="77.490234" xlink:href="#DejaVuSans-65"/>
      <use x="139.013672" xlink:href="#DejaVuSans-6e"/>
      <use x="202.392578" xlink:href="#DejaVuSans-65"/>
      <use x="263.916016" xlink:href="#DejaVuSans-72"/>
      <use x="305.029297" xlink:href="#DejaVuSans-61"/>
      <use x="366.308594" xlink:href="#DejaVuSans-74"/>
      <use x="405.517578" xlink:href="#DejaVuSans-69"/>
      <use x="433.300781" xlink:href="#DejaVuSans-6f"/>
      <use x="494.482422" xlink:href="#DejaVuSans-6e"/>
      <use x="557.861328" xlink:href="#DejaVuSans-73"/>
     </g>
    </g>
   </g>
   <g id="matplotlib.axis_2">
    <g id="ytick_1">
     <g id="line2d_19">
      <path clip-path="url(#p08d503a582)" d="M 54 241.004511 
L 388.8 241.004511 
" style="fill:none;stroke:#b0b0b0;stroke-linecap:square;stroke-width:0.8;"/>
     </g>
     <g id="line2d_20">
      <defs>
       <path d="M 0 0 
L -3.5 0 
" id="m605061e056" style="stroke:#000000;stroke-width:0.8;"/>
      </defs>
      <g>
       <use style="stroke:#000000;stroke-width:0.8;" x="54" xlink:href="#m605061e056" y="241.004511"/>
      </g>
     </g>
     <g id="text_11">
      <!-- 200 -->
      <g transform="translate(27.9125 244.803729)scale(0.1 -0.1)">
       <use xlink:href="#DejaVuSans-32"/>
       <use x="63.623047" xlink:href="#DejaVuSans-30"/>
       <use x="127.246094" xlink:href="#DejaVuSans-30"/>
      </g>
     </g>
    </g>
    <g id="ytick_2">
     <g id="line2d_21">
      <path clip-path="url(#p08d503a582)" d="M 54 212.146243 
L 388.8 212.146243 
" style="fill:none;stroke:#b0b0b0;stroke-linecap:square;stroke-width:0.8;"/>
     </g>
     <g id="line2d_22">
      <g>
       <use style="stroke:#000000;stroke-width:0.8;" x="54" xlink:href="#m605061e056" y="212.146243"/>
      </g>
     </g>
     <g id="text_12">
      <!-- 400 -->
      <g transform="translate(27.9125 215.945462)scale(0.1 -0.1)">
       <use xlink:href="#DejaVuSans-34"/>
       <use x="63.623047" xlink:href="#DejaVuSans-30"/>
       <use x="127.246094" xlink:href="#DejaVuSans-30"/>
      </g>
     </g>
    </g>
    <g id="ytick_3">
     <g id="line2d_23">
      <path clip-path="url(#p08d503a582)" d="M 54 183.287976 
L 388.8 183.287976 
" style="fill:none;stroke:#b0b0b0;stroke-linecap:square;stroke-width:0.8;"/>
     </g>
     <g id="line2d_24">
      <g>
       <use style="stroke:#000000;stroke-width:0.8;" x="54" xlink:href="#m605061e056" y="183.287976"/>
      </g>
     </g>
     <g id="text_13">
      <!-- 600 -->
      <defs>
       <path d="M 33.015625 40.375 
Q 26.375 40.375 22.484375 35.828125 
Q 18.609375 31.296875 18.609375 23.390625 
Q 18.609375 15.53125 22.484375 10.953125 
Q 26.375 6.390625 33.015625 6.390625 
Q 39.65625 6.390625 43.53125 10.953125 
Q 47.40625 15.53125 47.40625 23.390625 
Q 47.40625 31.296875 43.53125 35.828125 
Q 39.65625 40.375 33.015625 40.375 
z
M 52.59375 71.296875 
L 52.59375 62.3125 
Q 48.875 64.0625 45.09375 64.984375 
Q 41.3125 65.921875 37.59375 65.921875 
Q 27.828125 65.921875 22.671875 59.328125 
Q 17.53125 52.734375 16.796875 39.40625 
Q 19.671875 43.65625 24.015625 45.921875 
Q 28.375 48.1875 33.59375 48.1875 
Q 44.578125 48.1875 50.953125 41.515625 
Q 57.328125 34.859375 57.328125 23.390625 
Q 57.328125 12.15625 50.6875 5.359375 
Q 44.046875 -1.421875 33.015625 -1.421875 
Q 20.359375 -1.421875 13.671875 8.265625 
Q 6.984375 17.96875 6.984375 36.375 
Q 6.984375 53.65625 15.1875 63.9375 
Q 23.390625 74.21875 37.203125 74.21875 
Q 40.921875 74.21875 44.703125 73.484375 
Q 48.484375 72.75 52.59375 71.296875 
z
" id="DejaVuSans-36"/>
      </defs>
      <g transform="translate(27.9125 187.087194)scale(0.1 -0.1)">
       <use xlink:href="#DejaVuSans-36"/>
       <use x="63.623047" xlink:href="#DejaVuSans-30"/>
       <use x="127.246094" xlink:href="#DejaVuSans-30"/>
      </g>
     </g>
    </g>
    <g id="ytick_4">
     <g id="line2d_25">
      <path clip-path="url(#p08d503a582)" d="M 54 154.429708 
L 388.8 154.429708 
" style="fill:none;stroke:#b0b0b0;stroke-linecap:square;stroke-width:0.8;"/>
     </g>
     <g id="line2d_26">
      <g>
       <use style="stroke:#000000;stroke-width:0.8;" x="54" xlink:href="#m605061e056" y="154.429708"/>
      </g>
     </g>
     <g id="text_14">
      <!-- 800 -->
      <defs>
       <path d="M 31.78125 34.625 
Q 24.75 34.625 20.71875 30.859375 
Q 16.703125 27.09375 16.703125 20.515625 
Q 16.703125 13.921875 20.71875 10.15625 
Q 24.75 6.390625 31.78125 6.390625 
Q 38.8125 6.390625 42.859375 10.171875 
Q 46.921875 13.96875 46.921875 20.515625 
Q 46.921875 27.09375 42.890625 30.859375 
Q 38.875 34.625 31.78125 34.625 
z
M 21.921875 38.8125 
Q 15.578125 40.375 12.03125 44.71875 
Q 8.5 49.078125 8.5 55.328125 
Q 8.5 64.0625 14.71875 69.140625 
Q 20.953125 74.21875 31.78125 74.21875 
Q 42.671875 74.21875 48.875 69.140625 
Q 55.078125 64.0625 55.078125 55.328125 
Q 55.078125 49.078125 51.53125 44.71875 
Q 48 40.375 41.703125 38.8125 
Q 48.828125 37.15625 52.796875 32.3125 
Q 56.78125 27.484375 56.78125 20.515625 
Q 56.78125 9.90625 50.3125 4.234375 
Q 43.84375 -1.421875 31.78125 -1.421875 
Q 19.734375 -1.421875 13.25 4.234375 
Q 6.78125 9.90625 6.78125 20.515625 
Q 6.78125 27.484375 10.78125 32.3125 
Q 14.796875 37.15625 21.921875 38.8125 
z
M 18.3125 54.390625 
Q 18.3125 48.734375 21.84375 45.5625 
Q 25.390625 42.390625 31.78125 42.390625 
Q 38.140625 42.390625 41.71875 45.5625 
Q 45.3125 48.734375 45.3125 54.390625 
Q 45.3125 60.0625 41.71875 63.234375 
Q 38.140625 66.40625 31.78125 66.40625 
Q 25.390625 66.40625 21.84375 63.234375 
Q 18.3125 60.0625 18.3125 54.390625 
z
" id="DejaVuSans-38"/>
      </defs>
      <g transform="translate(27.9125 158.228927)scale(0.1 -0.1)">
       <use xlink:href="#DejaVuSans-38"/>
       <use x="63.623047" xlink:href="#DejaVuSans-30"/>
       <use x="127.246094" xlink:href="#DejaVuSans-30"/>
      </g>
     </g>
    </g>
    <g id="ytick_5">
     <g id="line2d_27">
      <path clip-path="url(#p08d503a582)" d="M 54 125.571441 
L 388.8 125.571441 
" style="fill:none;stroke:#b0b0b0;stroke-linecap:square;stroke-width:0.8;"/>
     </g>
     <g id="line2d_28">
      <g>
       <use style="stroke:#000000;stroke-width:0.8;" x="54" xlink:href="#m605061e056" y="125.571441"/>
      </g>
     </g>
     <g id="text_15">
      <!-- 1000 -->
      <g transform="translate(21.55 129.370659)scale(0.1 -0.1)">
       <use xlink:href="#DejaVuSans-31"/>
       <use x="63.623047" xlink:href="#DejaVuSans-30"/>
       <use x="127.246094" xlink:href="#DejaVuSans-30"/>
       <use x="190.869141" xlink:href="#DejaVuSans-30"/>
      </g>
     </g>
    </g>
    <g id="ytick_6">
     <g id="line2d_29">
      <path clip-path="url(#p08d503a582)" d="M 54 96.713173 
L 388.8 96.713173 
" style="fill:none;stroke:#b0b0b0;stroke-linecap:square;stroke-width:0.8;"/>
     </g>
     <g id="line2d_30">
      <g>
       <use style="stroke:#000000;stroke-width:0.8;" x="54" xlink:href="#m605061e056" y="96.713173"/>
      </g>
     </g>
     <g id="text_16">
      <!-- 1200 -->
      <g transform="translate(21.55 100.512392)scale(0.1 -0.1)">
       <use xlink:href="#DejaVuSans-31"/>
       <use x="63.623047" xlink:href="#DejaVuSans-32"/>
       <use x="127.246094" xlink:href="#DejaVuSans-30"/>
       <use x="190.869141" xlink:href="#DejaVuSans-30"/>
      </g>
     </g>
    </g>
    <g id="ytick_7">
     <g id="line2d_31">
      <path clip-path="url(#p08d503a582)" d="M 54 67.854906 
L 388.8 67.854906 
" style="fill:none;stroke:#b0b0b0;stroke-linecap:square;stroke-width:0.8;"/>
     </g>
     <g id="line2d_32">
      <g>
       <use style="stroke:#000000;stroke-width:0.8;" x="54" xlink:href="#m605061e056" y="67.854906"/>
      </g>
     </g>
     <g id="text_17">
      <!-- 1400 -->
      <g transform="translate(21.55 71.654125)scale(0.1 -0.1)">
       <use xlink:href="#DejaVuSans-31"/>
       <use x="63.623047" xlink:href="#DejaVuSans-34"/>
       <use x="127.246094" xlink:href="#DejaVuSans-30"/>
       <use x="190.869141" xlink:href="#DejaVuSans-30"/>
      </g>
     </g>
    </g>
    <g id="ytick_8">
     <g id="line2d_33">
      <path clip-path="url(#p08d503a582)" d="M 54 38.996638 
L 388.8 38.996638 
" style="fill:none;stroke:#b0b0b0;stroke-linecap:square;stroke-width:0.8;"/>
     </g>
     <g id="line2d_34">
      <g>
       <use style="stroke:#000000;stroke-width:0.8;" x="54" xlink:href="#m605061e056" y="38.996638"/>
      </g>
     </g>
     <g id="text_18">
      <!-- 1600 -->
      <g transform="translate(21.55 42.795857)scale(0.1 -0.1)">
       <use xlink:href="#DejaVuSans-31"/>
       <use x="63.623047" xlink:href="#DejaVuSans-36"/>
       <use x="127.246094" xlink:href="#DejaVuSans-30"/>
       <use x="190.869141" xlink:href="#DejaVuSans-30"/>
      </g>
     </g>
    </g>
    <g id="text_19">
     <!-- Fitness -->
     <defs>
      <path d="M 9.8125 72.90625 
L 51.703125 72.90625 
L 51.703125 64.59375 
L 19.671875 64.59375 
L 19.671875 43.109375 
L 48.578125 43.109375 
L 48.578125 34.8125 
L 19.671875 34.8125 
L 19.671875 0 
L 9.8125 0 
z
" id="DejaVuSans-46"/>
     </defs>
     <g transform="translate(15.470312 160.954219)rotate(-90)scale(0.1 -0.1)">
      <use xlink:href="#DejaVuSans-46"/>
      <use x="57.410156" xlink:href="#DejaVuSans-69"/>
      <use x="85.193359" xlink:href="#DejaVuSans-74"/>
      <use x="124.402344" xlink:href="#DejaVuSans-6e"/>
      <use x="187.78125" xlink:href="#DejaVuSans-65"/>
      <use x="249.304688" xlink:href="#DejaVuSans-73"/>
      <use x="301.404297" xlink:href="#DejaVuSans-73"/>
     </g>
    </g>
   </g>
   <g id="line2d_35">
    <path clip-path="url(#p08d503a582)" d="M 69.218182 214.97291 
L 69.980998 152.963708 
L 70.743814 155.959557 
L 71.50663 154.266659 
L 72.269446 155.136375 
L 73.032262 155.29257 
L 73.795079 154.974047 
L 74.557895 153.613019 
L 75.320711 155.149722 
L 76.846343 157.105591 
L 77.609159 154.673561 
L 78.371975 156.923063 
L 79.134792 152.764947 
L 79.897608 156.941099 
L 80.660424 153.972665 
L 81.42324 155.922041 
L 82.186056 153.351852 
L 82.948872 156.97609 
L 83.711688 153.78653 
L 84.474504 155.850617 
L 85.237321 153.873104 
L 86.000137 161.980827 
L 86.762953 190.614368 
L 87.525769 194.48806 
L 88.288585 202.257477 
L 89.051401 202.963903 
L 89.814217 206.151311 
L 90.577033 210.92046 
L 91.33985 204.22639 
L 92.102666 220.056171 
L 92.865482 212.402434 
L 93.628298 223.601721 
L 94.391114 216.3683 
L 95.15393 221.051628 
L 95.916746 216.224776 
L 96.679563 212.11572 
L 97.442379 209.700777 
L 98.205195 212.918202 
L 98.968011 214.555343 
L 99.730827 220.137097 
L 100.493643 211.933413 
L 101.256459 213.545869 
L 102.019275 214.672784 
L 102.782092 211.834574 
L 103.544908 212.381438 
L 104.307724 215.658294 
L 105.07054 216.756351 
L 105.833356 216.112812 
L 106.596172 217.852244 
L 107.358988 213.232757 
L 108.121805 218.782202 
L 108.884621 213.614407 
L 109.647437 219.322573 
L 110.410253 213.141132 
L 111.173069 217.290951 
L 111.935885 212.404525 
L 113.461517 215.76507 
L 114.224334 213.111552 
L 114.98715 212.343201 
L 115.749966 212.526451 
L 116.512782 212.231375 
L 117.275598 212.472342 
L 118.038414 213.606471 
L 118.80123 212.092134 
L 119.564046 212.092134 
L 120.326863 213.975857 
L 121.089679 211.967322 
L 121.852495 212.771025 
L 122.615311 212.387931 
L 124.140943 214.393581 
L 124.903759 212.094298 
L 125.666576 214.194459 
L 126.429392 213.905876 
L 127.192208 213.453523 
L 127.955024 214.017702 
L 128.71784 212.10512 
L 129.480656 212.092134 
L 130.243472 211.962272 
L 131.006288 213.623065 
L 131.769105 213.320053 
L 132.531921 212.061111 
L 133.294737 213.077644 
L 134.057553 212.478113 
L 134.820369 215.563783 
L 135.583185 212.804933 
L 136.346001 213.931848 
L 137.108817 212.306407 
L 137.871634 212.423282 
L 138.63445 211.810044 
L 139.397266 214.897879 
L 140.160082 213.789721 
L 140.922898 214.262276 
L 141.685714 212.092134 
L 142.44853 212.275384 
L 143.211347 213.403021 
L 143.974163 212.568295 
L 144.736979 212.980247 
L 145.499795 212.543766 
L 146.262611 212.701765 
L 147.025427 213.408071 
L 147.788243 213.022092 
L 148.551059 212.914594 
L 149.313876 211.666474 
L 150.076692 213.85826 
L 150.839508 211.416129 
L 151.602324 212.572624 
L 152.36514 212.454305 
L 153.127956 212.643327 
L 153.890772 212.141914 
L 154.653589 215.673445 
L 155.416405 211.338933 
L 156.179221 214.891386 
L 156.942037 212.092134 
L 157.704853 212.736395 
L 159.230485 212.356908 
L 159.993301 212.614469 
L 160.756118 212.182316 
L 161.518934 213.152675 
L 162.28175 212.698879 
L 163.044566 212.743609 
L 163.807382 212.092134 
L 164.570198 212.541601 
L 165.333014 213.480217 
L 166.09583 210.590061 
L 166.858647 215.630879 
L 167.621463 212.787618 
L 168.384279 214.104277 
L 169.909911 212.536551 
L 170.672727 212.701043 
L 171.435543 214.455626 
L 172.19836 212.143357 
L 172.961176 212.576231 
L 173.723992 212.3129 
L 174.486808 213.592042 
L 175.249624 213.243579 
L 176.01244 216.1662 
L 176.775256 213.483824 
L 177.538072 211.548156 
L 178.300889 210.716316 
L 179.063705 217.366704 
L 179.826521 212.218389 
L 180.589337 213.172155 
L 181.352153 212.249411 
L 182.114969 218.114854 
L 182.877785 213.115159 
L 183.640602 214.629497 
L 184.403418 211.364184 
L 185.166234 217.157481 
L 185.92905 213.568956 
L 186.691866 213.68511 
L 187.454682 211.551763 
L 188.980314 213.761585 
L 189.743131 214.12087 
L 190.505947 212.524286 
L 191.268763 213.791886 
L 192.031579 212.950667 
L 192.794395 213.840945 
L 193.557211 212.366287 
L 194.320027 218.443117 
L 195.082843 211.860546 
L 195.84566 214.268047 
L 196.608476 214.248568 
L 197.371292 212.812148 
L 198.134108 212.636834 
L 198.896924 212.816476 
L 199.65974 213.128146 
L 200.422556 216.53775 
L 201.948189 215.894932 
L 202.711005 213.074036 
L 203.473821 213.718297 
L 204.236637 213.963593 
L 204.999453 213.708918 
L 205.762269 211.252358 
L 206.525085 216.588252 
L 207.287902 211.121775 
L 208.050718 212.721244 
L 208.813534 214.781003 
L 209.57635 215.548633 
L 210.339166 209.496333 
L 211.101982 216.828497 
L 211.864798 213.821466 
L 212.627614 215.46783 
L 213.390431 214.215381 
L 214.153247 216.665448 
L 214.916063 211.034478 
L 215.678879 217.009583 
L 216.441695 213.304903 
L 217.204511 213.283259 
L 217.967327 215.933169 
L 218.730144 213.343861 
L 219.49296 215.888439 
L 220.255776 213.556691 
L 221.018592 212.951389 
L 221.781408 213.215442 
L 222.544224 214.172093 
L 223.30704 212.824412 
L 224.069856 211.854053 
L 224.832673 213.027863 
L 225.595489 213.262337 
L 226.358305 215.262215 
L 227.121121 210.37651 
L 227.883937 218.224516 
L 228.646753 215.91874 
L 229.409569 216.419431 
L 230.172386 210.915438 
L 230.935202 213.723347 
L 231.698018 213.19957 
L 232.460834 214.518393 
L 233.22365 214.066761 
L 233.986466 213.258729 
L 234.749282 213.581942 
L 235.512098 217.278686 
L 236.274915 210.979648 
L 237.037731 211.789844 
L 237.800547 215.810522 
L 238.563363 213.421057 
L 239.326179 213.705311 
L 240.088995 215.810522 
L 240.851811 212.232096 
L 241.614627 217.15676 
L 242.377444 213.186584 
L 243.14026 214.535708 
L 243.903076 214.351736 
L 244.665892 214.298348 
L 245.428708 215.860302 
L 246.191524 214.998161 
L 246.95434 213.058886 
L 247.717157 212.760924 
L 248.479973 212.62529 
L 249.242789 212.846056 
L 250.005605 210.95584 
L 250.768421 216.990825 
L 251.531237 216.393459 
L 252.294053 214.692264 
L 253.056869 212.508414 
L 253.819686 214.446247 
L 254.582502 213.415285 
L 255.345318 215.724668 
L 256.108134 212.780404 
L 256.87095 214.97291 
L 257.633766 216.133734 
L 259.159398 212.223439 
L 259.922215 213.581942 
L 260.685031 212.898722 
L 261.447847 216.06736 
L 262.210663 212.656313 
L 262.973479 215.084736 
L 264.499111 212.007002 
L 265.261928 212.820084 
L 266.024744 213.403742 
L 266.78756 214.610018 
L 267.550376 215.560898 
L 268.313192 212.983133 
L 269.076008 212.092134 
L 269.838824 212.569738 
L 270.60164 212.480999 
L 271.364457 211.934135 
L 272.127273 215.886275 
L 272.890089 212.269612 
L 273.652905 213.851767 
L 274.415721 213.403742 
L 275.178537 216.14672 
L 275.941353 211.608758 
L 276.70417 216.836433 
L 277.466986 215.147503 
L 278.229802 217.006697 
L 278.992618 212.667135 
L 279.755434 213.383541 
L 280.51825 213.473723 
L 281.281066 214.304842 
L 282.043882 213.078365 
L 282.806699 215.615728 
L 283.569515 210.820927 
L 284.332331 215.83433 
L 285.095147 210.950789 
L 285.857963 214.814911 
L 286.620779 213.584828 
L 287.383595 216.583202 
L 288.146411 213.560298 
L 288.909228 218.081667 
L 289.672044 212.003395 
L 290.43486 212.649098 
L 291.197676 213.992451 
L 291.960492 212.988183 
L 292.723308 212.256626 
L 293.486124 214.525607 
L 294.248941 210.091534 
L 295.011757 217.148102 
L 295.774573 210.725695 
L 296.537389 217.659615 
L 297.300205 213.63028 
L 298.063021 214.907979 
L 298.825837 211.701104 
L 299.588653 211.606594 
L 300.35147 210.752389 
L 301.114286 213.949163 
L 301.877102 210.838242 
L 302.639918 212.07554 
L 303.402734 213.682224 
L 304.16555 213.113717 
L 304.928366 212.977361 
L 305.691183 214.229089 
L 306.453999 213.321496 
L 307.216815 211.301417 
L 307.979631 213.913091 
L 308.742447 211.970208 
L 309.505263 215.806193 
L 310.268079 212.960768 
L 311.030895 212.097906 
L 311.793712 212.069769 
L 312.556528 214.544365 
L 314.08216 213.007662 
L 314.844976 212.092134 
L 315.607792 213.765192 
L 316.370608 211.553927 
L 317.133424 213.20967 
L 317.896241 212.874914 
L 318.659057 214.85892 
L 319.421873 211.445709 
L 320.184689 213.480217 
L 320.947505 212.508414 
L 321.710321 215.857416 
L 322.473137 213.801265 
L 323.235954 213.50186 
L 323.99877 212.206124 
L 324.761586 211.869925 
L 325.524402 212.361959 
L 326.287218 213.288309 
L 327.050034 212.849663 
L 327.81285 211.967322 
L 328.575666 213.180091 
L 329.338483 213.599257 
L 330.101299 211.667196 
L 330.864115 213.882068 
L 331.626931 213.779621 
L 332.389747 214.170651 
L 333.152563 212.655592 
L 333.915379 213.302017 
L 334.678195 212.092134 
L 335.441012 214.639597 
L 336.203828 212.517072 
L 336.966644 213.973693 
L 337.72946 211.953614 
L 338.492276 212.921809 
L 339.255092 211.809323 
L 340.017908 212.472342 
L 340.780725 211.490439 
L 341.543541 213.032913 
L 342.306357 212.203238 
L 343.069173 213.121653 
L 343.831989 212.8677 
L 344.594805 212.941288 
L 345.357621 211.747999 
L 346.120437 213.023534 
L 346.883254 213.146904 
L 347.64607 215.150389 
L 348.408886 210.768261 
L 349.171702 214.802647 
L 349.934518 211.59 
L 351.46015 212.755874 
L 352.222967 211.986801 
L 352.985783 211.45148 
L 353.748599 211.986801 
L 354.511415 212.747217 
L 355.274231 212.330936 
L 356.037047 212.042353 
L 356.799863 213.574006 
L 357.562679 212.275384 
L 358.325496 213.187305 
L 359.088312 212.641162 
L 359.851128 216.343678 
L 360.613944 212.07554 
L 361.37676 213.293359 
L 362.139576 212.779682 
L 362.902392 213.50691 
L 363.665208 212.147686 
L 364.428025 212.968704 
L 365.190841 213.08558 
L 365.953657 215.380533 
L 366.716473 211.950728 
L 367.479289 211.967322 
L 368.242105 211.734291 
L 369.004921 212.749381 
L 369.767738 212.845335 
L 370.530554 214.213938 
L 371.29337 212.616633 
L 372.056186 212.861207 
L 372.819002 214.337307 
L 373.581818 214.872628 
L 373.581818 214.872628 
" style="fill:none;stroke:#0000ff;stroke-linecap:square;stroke-width:1.5;"/>
   </g>
   <g id="line2d_36">
    <path clip-path="url(#p08d503a582)" d="M 69.218182 230.675497 
L 69.980998 179.282496 
L 70.743814 189.009369 
L 71.50663 182.411385 
L 72.269446 188.286323 
L 73.032262 183.760048 
L 73.795079 187.330252 
L 74.557895 182.605007 
L 75.320711 188.956483 
L 76.083527 187.487687 
L 76.846343 191.07224 
L 77.609159 182.823601 
L 78.371975 191.441141 
L 79.134792 182.325583 
L 79.897608 191.611819 
L 80.660424 181.84164 
L 81.42324 190.683944 
L 82.186056 184.020566 
L 82.948872 191.967395 
L 83.711688 183.570287 
L 84.474504 190.165983 
L 85.237321 181.287749 
L 86.000137 194.981339 
L 86.762953 213.01336 
L 87.525769 221.27447 
L 88.288585 222.090893 
L 89.051401 226.820701 
L 89.814217 227.630112 
L 90.577033 230.233707 
L 91.33985 223.196059 
L 92.102666 238.704734 
L 92.865482 226.597659 
L 93.628298 242.116364 
L 94.391114 233.545371 
L 95.15393 238.525117 
L 95.916746 230.15778 
L 97.442379 222.925789 
L 98.205195 230.09965 
L 98.968011 232.395656 
L 99.730827 238.190337 
L 100.493643 223.94235 
L 102.019275 229.405011 
L 102.782092 222.666615 
L 103.544908 226.703702 
L 104.307724 233.314969 
L 105.07054 232.408395 
L 105.833356 231.977685 
L 106.596172 235.406945 
L 107.358988 228.299683 
L 108.121805 238.386486 
L 108.884621 229.595113 
L 109.647437 240.057059 
L 110.410253 225.971044 
L 111.173069 235.92659 
L 111.935885 224.09778 
L 113.461517 232.323184 
L 114.224334 226.104341 
L 114.98715 225.695205 
L 115.749966 224.693546 
L 116.512782 223.189518 
L 117.275598 224.569731 
L 118.038414 227.290339 
L 118.80123 223.023944 
L 119.564046 223.023944 
L 120.326863 228.652051 
L 121.089679 224.522878 
L 121.852495 224.778623 
L 122.615311 224.560783 
L 123.378127 225.512963 
L 124.140943 229.759017 
L 124.903759 222.633393 
L 125.666576 228.572752 
L 126.429392 228.617143 
L 127.192208 227.235867 
L 127.955024 229.033305 
L 128.71784 223.943466 
L 129.480656 223.023944 
L 130.243472 222.627318 
L 131.006288 227.772665 
L 131.769105 226.490551 
L 132.531921 224.114413 
L 133.294737 226.565627 
L 134.057553 224.777147 
L 134.820369 232.841693 
L 135.583185 224.521423 
L 136.346001 229.262809 
L 137.108817 222.903817 
L 137.871634 223.66856 
L 138.63445 222.16091 
L 139.397266 231.048719 
L 140.160082 227.659355 
L 140.922898 230.398247 
L 141.685714 223.023944 
L 142.44853 224.536449 
L 143.211347 227.663757 
L 143.974163 225.074204 
L 144.736979 225.844171 
L 145.499795 225.066173 
L 146.262611 225.680935 
L 147.025427 228.579141 
L 147.788243 226.423269 
L 148.551059 225.585203 
L 149.313876 221.325595 
L 150.076692 227.542276 
L 150.839508 221.65722 
L 151.602324 224.045561 
L 152.36514 225.236788 
L 153.127956 224.153978 
L 153.890772 223.842119 
L 154.653589 232.741848 
L 155.416405 221.512117 
L 156.179221 230.18883 
L 156.942037 222.778898 
L 157.704853 224.267236 
L 158.467669 224.63246 
L 159.230485 223.835199 
L 159.993301 226.128453 
L 160.756118 223.525368 
L 161.518934 227.058536 
L 162.28175 224.526447 
L 163.044566 225.251428 
L 163.807382 223.023944 
L 164.570198 224.175944 
L 165.333014 227.135878 
L 166.09583 221.730357 
L 166.858647 232.905946 
L 167.621463 223.440632 
L 168.384279 228.456569 
L 169.147095 227.212235 
L 169.909911 225.651927 
L 170.672727 224.728918 
L 171.435543 230.44792 
L 172.19836 222.812709 
L 172.961176 225.187727 
L 173.723992 223.194461 
L 174.486808 226.71685 
L 175.249624 226.612656 
L 176.01244 234.179799 
L 176.775256 227.506603 
L 177.538072 221.843798 
L 178.300889 223.788888 
L 179.063705 234.80929 
L 179.826521 222.764356 
L 180.589337 225.723119 
L 181.352153 225.134194 
L 182.114969 238.038679 
L 182.877785 225.430406 
L 183.640602 229.906351 
L 184.403418 222.677399 
L 185.166234 234.188161 
L 185.92905 226.436732 
L 186.691866 227.191206 
L 187.454682 221.994126 
L 188.980314 227.994302 
L 189.743131 228.847229 
L 190.505947 224.338917 
L 191.268763 229.241171 
L 192.031579 225.413372 
L 192.794395 227.580546 
L 193.557211 226.071967 
L 194.320027 237.051066 
L 195.082843 222.364239 
L 195.84566 229.56488 
L 196.608476 229.300456 
L 197.371292 224.851989 
L 198.134108 226.075397 
L 198.896924 226.124519 
L 199.65974 224.878683 
L 200.422556 234.318805 
L 201.185373 233.560492 
L 201.948189 232.242008 
L 202.711005 227.193043 
L 203.473821 227.732153 
L 204.236637 229.265224 
L 204.999453 227.252087 
L 205.762269 221.533162 
L 206.525085 233.199836 
L 207.287902 220.629884 
L 208.050718 227.797653 
L 208.813534 229.425342 
L 209.57635 231.805577 
L 210.339166 220.705481 
L 211.101982 232.24409 
L 211.864798 228.295908 
L 212.627614 231.916222 
L 213.390431 228.750914 
L 214.153247 234.415523 
L 214.916063 223.065483 
L 215.678879 235.917687 
L 216.441695 227.555014 
L 217.204511 226.323852 
L 217.967327 233.145959 
L 218.730144 227.975238 
L 219.49296 233.033998 
L 220.255776 228.186999 
L 221.018592 225.874854 
L 221.781408 227.878766 
L 222.544224 229.51541 
L 224.069856 222.447967 
L 224.832673 225.606754 
L 225.595489 226.672764 
L 226.358305 232.413859 
L 227.121121 223.996031 
L 227.883937 236.924506 
L 228.646753 234.008557 
L 229.409569 234.412233 
L 230.172386 221.635708 
L 230.935202 227.435797 
L 231.698018 226.335129 
L 232.460834 230.230206 
L 233.22365 230.469939 
L 233.986466 227.601811 
L 234.749282 228.235328 
L 235.512098 236.316219 
L 236.274915 222.992479 
L 237.037731 227.493363 
L 237.800547 232.678827 
L 238.563363 226.468341 
L 239.326179 227.302286 
L 240.088995 233.306769 
L 240.851811 224.672284 
L 241.614627 235.259008 
L 242.377444 227.378103 
L 243.14026 229.31216 
L 243.903076 229.415306 
L 244.665892 233.170673 
L 245.428708 233.797082 
L 246.191524 230.691308 
L 246.95434 226.639689 
L 247.717157 225.244329 
L 248.479973 224.421224 
L 249.242789 225.32792 
L 250.005605 224.490977 
L 250.768421 236.193517 
L 251.531237 234.667713 
L 252.294053 230.574564 
L 253.056869 224.215867 
L 253.819686 230.082906 
L 254.582502 227.236572 
L 255.345318 232.352533 
L 256.108134 225.529476 
L 256.87095 231.988746 
L 257.633766 234.29624 
L 258.396582 228.769455 
L 259.159398 225.62088 
L 259.922215 228.157762 
L 260.685031 225.770978 
L 261.447847 234.579675 
L 262.210663 225.411312 
L 262.973479 232.203292 
L 264.499111 224.760634 
L 265.261928 226.197825 
L 266.024744 226.354418 
L 266.78756 230.425514 
L 267.550376 233.704897 
L 268.313192 226.131673 
L 269.076008 223.023944 
L 269.838824 225.254315 
L 270.60164 224.058484 
L 271.364457 223.744783 
L 272.127273 234.027666 
L 272.890089 224.374142 
L 273.652905 229.006637 
L 274.415721 227.792457 
L 275.178537 233.905841 
L 275.941353 224.050764 
L 276.70417 235.999851 
L 277.466986 231.4173 
L 278.229802 235.825324 
L 278.992618 224.673139 
L 279.755434 226.812961 
L 280.51825 227.733982 
L 281.281066 229.132797 
L 282.043882 226.256702 
L 282.806699 232.177834 
L 283.569515 220.666038 
L 284.332331 233.221863 
L 285.095147 220.972669 
L 285.857963 231.222757 
L 286.620779 227.707177 
L 287.383595 233.528106 
L 288.146411 229.248821 
L 288.909228 236.027392 
L 289.672044 222.604591 
L 290.43486 225.021541 
L 291.197676 229.165717 
L 291.960492 225.155998 
L 292.723308 223.070365 
L 293.486124 229.710918 
L 294.248941 224.443256 
L 295.011757 234.757852 
L 295.774573 222.378612 
L 296.537389 236.354704 
L 297.300205 227.766761 
L 298.063021 230.680214 
L 298.825837 222.256658 
L 299.588653 222.185592 
L 300.35147 224.658138 
L 301.114286 228.943374 
L 301.877102 220.783477 
L 302.639918 222.884069 
L 303.402734 228.302077 
L 304.16555 226.454654 
L 304.928366 226.2442 
L 305.691183 230.307937 
L 306.453999 226.848049 
L 307.216815 221.502881 
L 307.979631 228.111172 
L 308.742447 222.54577 
L 309.505263 234.548867 
L 310.268079 226.805087 
L 311.030895 222.916623 
L 311.793712 222.997572 
L 312.556528 231.540143 
L 313.319344 228.53618 
L 314.08216 226.389487 
L 314.844976 223.023944 
L 315.607792 228.649958 
L 316.370608 221.833888 
L 317.133424 227.344458 
L 317.896241 225.329691 
L 318.659057 231.073518 
L 319.421873 221.677399 
L 320.184689 227.477615 
L 320.947505 224.185698 
L 321.710321 233.339091 
L 322.473137 228.934052 
L 323.235954 227.607839 
L 323.99877 223.210984 
L 324.761586 223.043101 
L 326.287218 227.603773 
L 327.050034 226.52537 
L 327.81285 222.650044 
L 328.575666 226.515229 
L 329.338483 227.922038 
L 330.101299 222.46653 
L 330.864115 228.893842 
L 331.626931 227.557217 
L 332.389747 229.514465 
L 333.152563 225.038583 
L 333.915379 226.96497 
L 334.678195 223.023944 
L 335.441012 231.36138 
L 336.203828 224.188337 
L 336.966644 228.536109 
L 337.72946 222.640484 
L 338.492276 225.926402 
L 339.255092 222.378793 
L 340.017908 224.082758 
L 340.780725 221.866245 
L 341.543541 225.792788 
L 342.306357 223.175459 
L 343.069173 226.961905 
L 343.831989 225.911942 
L 344.594805 226.070833 
L 345.357621 222.302402 
L 346.120437 226.347922 
L 346.883254 227.158824 
L 347.64607 231.489421 
L 348.408886 219.917359 
L 349.171702 231.053165 
L 349.934518 222.046852 
L 351.46015 225.493069 
L 352.222967 222.883821 
L 352.985783 221.726743 
L 353.748599 222.669819 
L 354.511415 225.141128 
L 355.274231 223.566962 
L 356.037047 223.630683 
L 356.799863 228.166245 
L 357.562679 223.454644 
L 358.325496 228.087365 
L 359.088312 225.457235 
L 359.851128 234.347272 
L 360.613944 222.884069 
L 361.37676 227.366087 
L 362.139576 226.220091 
L 362.902392 227.024764 
L 363.665208 222.983716 
L 364.428025 225.544317 
L 365.190841 226.778995 
L 365.953657 232.241422 
L 366.716473 222.84514 
L 367.479289 222.650044 
L 368.242105 222.175442 
L 369.004921 225.027067 
L 369.767738 225.38048 
L 370.530554 229.72868 
L 371.29337 224.636649 
L 372.056186 225.103958 
L 372.819002 229.534351 
L 373.581818 231.774577 
L 373.581818 231.774577 
" style="fill:none;stroke:#008000;stroke-dasharray:9.6,2.4,1.5,2.4;stroke-dashoffset:0;stroke-width:1.5;"/>
   </g>
   <g id="line2d_37">
    <path clip-path="url(#p08d503a582)" d="M 69.218182 199.270324 
L 69.980998 126.64492 
L 70.743814 122.909746 
L 71.50663 126.121933 
L 72.269446 121.986427 
L 73.032262 126.825092 
L 73.795079 122.617842 
L 74.557895 124.621032 
L 75.320711 121.342961 
L 76.083527 124.818128 
L 76.846343 123.138942 
L 77.609159 126.52352 
L 78.371975 122.404984 
L 79.134792 123.204311 
L 79.897608 122.270379 
L 80.660424 126.103691 
L 81.42324 121.160139 
L 82.186056 122.683138 
L 82.948872 121.984784 
L 83.711688 124.002772 
L 84.474504 121.535251 
L 85.237321 126.458459 
L 86.000137 128.980315 
L 86.762953 168.215376 
L 87.525769 167.70165 
L 88.288585 182.42406 
L 89.051401 179.107105 
L 89.814217 184.672511 
L 90.577033 191.607214 
L 91.33985 185.256722 
L 92.102666 201.407608 
L 92.865482 198.207208 
L 93.628298 205.087078 
L 94.391114 199.191229 
L 95.15393 203.578139 
L 95.916746 202.291772 
L 96.679563 197.696032 
L 97.442379 196.475765 
L 98.205195 195.736754 
L 98.968011 196.715029 
L 99.730827 202.083858 
L 100.493643 199.924476 
L 101.256459 200.248148 
L 102.019275 199.940558 
L 102.782092 201.002532 
L 103.544908 198.059174 
L 104.307724 198.00162 
L 105.07054 201.104307 
L 105.833356 200.247938 
L 106.596172 200.297543 
L 107.358988 198.165831 
L 108.121805 199.177918 
L 108.884621 197.633702 
L 109.647437 198.588087 
L 110.410253 200.31122 
L 111.173069 198.655311 
L 111.935885 200.711269 
L 112.698701 199.596417 
L 113.461517 199.206956 
L 114.224334 200.118763 
L 114.98715 198.991197 
L 115.749966 200.359356 
L 116.512782 201.273232 
L 117.275598 200.374952 
L 118.038414 199.922604 
L 118.80123 201.160324 
L 119.564046 201.160324 
L 120.326863 199.299664 
L 121.089679 199.411766 
L 121.852495 200.763427 
L 122.615311 200.215079 
L 123.378127 201.16033 
L 124.140943 199.028145 
L 124.903759 201.555203 
L 125.666576 199.816165 
L 126.429392 199.194609 
L 127.192208 199.671178 
L 127.955024 199.002098 
L 128.71784 200.266774 
L 129.480656 201.160324 
L 130.243472 201.297225 
L 131.006288 199.473465 
L 131.769105 200.149555 
L 132.531921 200.007809 
L 133.294737 199.589661 
L 134.057553 200.179079 
L 134.820369 198.285874 
L 135.583185 201.088444 
L 136.346001 198.600888 
L 137.108817 201.708996 
L 137.871634 201.178005 
L 138.63445 201.459179 
L 139.397266 198.747038 
L 140.160082 199.920088 
L 140.922898 198.126304 
L 141.685714 201.160324 
L 142.44853 200.014319 
L 143.211347 199.142285 
L 143.974163 200.062387 
L 144.736979 200.116323 
L 145.499795 200.021359 
L 146.262611 199.722595 
L 147.025427 198.237001 
L 147.788243 199.620914 
L 148.551059 200.243986 
L 149.313876 202.007354 
L 150.076692 200.174244 
L 150.839508 201.175038 
L 151.602324 201.099687 
L 152.36514 199.671823 
L 153.127956 201.132675 
L 153.890772 200.441709 
L 154.653589 198.605042 
L 155.416405 201.165749 
L 156.179221 199.593941 
L 156.942037 201.40537 
L 157.704853 201.205554 
L 158.467669 200.449299 
L 159.230485 200.878618 
L 159.993301 199.100484 
L 160.756118 200.839264 
L 161.518934 199.246815 
L 162.28175 200.871311 
L 163.044566 200.235791 
L 163.807382 201.160324 
L 164.570198 200.907258 
L 165.333014 199.824556 
L 166.09583 199.449765 
L 166.858647 198.355811 
L 167.621463 202.134604 
L 168.384279 199.751984 
L 169.147095 199.427871 
L 169.909911 199.421176 
L 170.672727 200.673168 
L 171.435543 198.463332 
L 172.19836 201.474006 
L 172.961176 199.964735 
L 173.723992 201.431338 
L 174.486808 200.467234 
L 175.249624 199.874501 
L 176.01244 198.152601 
L 176.775256 199.461044 
L 177.538072 201.252513 
L 178.300889 197.643744 
L 179.063705 199.924117 
L 179.826521 201.672422 
L 180.589337 200.62119 
L 182.114969 198.19103 
L 182.877785 200.799913 
L 183.640602 199.352643 
L 184.403418 200.050969 
L 185.166234 200.126801 
L 185.92905 200.701179 
L 186.691866 200.179014 
L 187.454682 201.1094 
L 188.217498 200.188976 
L 188.980314 199.528867 
L 189.743131 199.394511 
L 190.505947 200.709656 
L 191.268763 198.342601 
L 192.031579 200.487962 
L 192.794395 200.101344 
L 193.557211 198.660607 
L 194.320027 199.835168 
L 195.082843 201.356853 
L 195.84566 198.971214 
L 196.608476 199.19668 
L 197.371292 200.772306 
L 198.134108 199.19827 
L 198.896924 199.508434 
L 199.65974 201.377609 
L 200.422556 198.756695 
L 201.185373 198.831067 
L 201.948189 199.547856 
L 202.711005 198.955029 
L 203.473821 199.704442 
L 204.236637 198.661961 
L 204.999453 200.16575 
L 205.762269 200.971554 
L 206.525085 199.976668 
L 207.287902 201.613665 
L 208.050718 197.644835 
L 208.813534 200.136664 
L 210.339166 198.287184 
L 211.101982 201.412904 
L 211.864798 199.347023 
L 212.627614 199.019437 
L 213.390431 199.679848 
L 214.153247 198.915373 
L 214.916063 199.003473 
L 215.678879 198.101478 
L 216.441695 199.054791 
L 217.204511 200.242666 
L 217.967327 198.720379 
L 219.49296 198.74288 
L 220.255776 198.926383 
L 221.018592 200.027924 
L 221.781408 198.552118 
L 222.544224 198.828777 
L 223.30704 199.797006 
L 224.069856 201.26014 
L 224.832673 200.448972 
L 225.595489 199.851909 
L 226.358305 198.11057 
L 227.121121 196.756989 
L 227.883937 199.524525 
L 228.646753 197.828923 
L 229.409569 198.426629 
L 230.172386 200.195168 
L 230.935202 200.010898 
L 231.698018 200.064011 
L 233.22365 197.663583 
L 233.986466 198.915647 
L 234.749282 198.928556 
L 235.512098 198.241153 
L 236.274915 198.966816 
L 237.037731 196.086324 
L 237.800547 198.942216 
L 238.563363 200.373773 
L 239.326179 200.108336 
L 240.088995 198.314275 
L 240.851811 199.791909 
L 241.614627 199.054511 
L 242.377444 198.995064 
L 243.14026 199.759256 
L 243.903076 199.288166 
L 244.665892 195.426024 
L 245.428708 197.923522 
L 246.191524 199.305015 
L 246.95434 199.478083 
L 247.717157 200.27752 
L 248.479973 200.829357 
L 249.242789 200.364192 
L 250.005605 197.420703 
L 251.531237 198.119205 
L 252.294053 198.809964 
L 253.056869 200.800962 
L 253.819686 198.809588 
L 254.582502 199.593998 
L 255.345318 199.096804 
L 256.108134 200.031331 
L 256.87095 197.957075 
L 257.633766 197.971228 
L 258.396582 199.325107 
L 259.159398 198.825998 
L 259.922215 199.006122 
L 260.685031 200.026467 
L 261.447847 197.555046 
L 262.210663 199.901314 
L 262.973479 197.96618 
L 263.736295 198.323511 
L 264.499111 199.25337 
L 265.261928 199.442342 
L 266.024744 200.453066 
L 266.78756 198.794522 
L 267.550376 197.416898 
L 268.313192 199.834593 
L 269.076008 201.160324 
L 269.838824 199.885161 
L 270.60164 200.903514 
L 271.364457 200.123486 
L 272.127273 197.744883 
L 272.890089 200.165082 
L 273.652905 198.696896 
L 274.415721 199.015027 
L 275.178537 198.3876 
L 275.941353 199.166752 
L 276.70417 197.673015 
L 277.466986 198.877706 
L 278.229802 198.18807 
L 278.992618 200.661131 
L 280.51825 199.213465 
L 281.281066 199.476886 
L 282.043882 199.900028 
L 282.806699 199.053622 
L 283.569515 200.975816 
L 284.332331 198.446796 
L 285.095147 200.928909 
L 285.857963 198.407066 
L 286.620779 199.462478 
L 287.383595 199.638297 
L 288.146411 197.871775 
L 288.909228 200.135943 
L 289.672044 201.402198 
L 290.43486 200.276656 
L 291.197676 198.819185 
L 291.960492 200.820368 
L 292.723308 201.442887 
L 293.486124 199.340296 
L 294.248941 195.739813 
L 295.011757 199.538353 
L 295.774573 199.072778 
L 296.537389 198.964527 
L 297.300205 199.493798 
L 298.063021 199.135745 
L 298.825837 201.14555 
L 299.588653 201.027595 
L 300.35147 196.84664 
L 301.877102 200.893007 
L 302.639918 201.267012 
L 303.402734 199.062371 
L 304.16555 199.772779 
L 304.928366 199.710522 
L 305.691183 198.150241 
L 306.453999 199.794943 
L 307.216815 201.099953 
L 307.979631 199.715009 
L 308.742447 201.394645 
L 309.505263 197.063519 
L 311.030895 201.279188 
L 311.793712 201.141965 
L 312.556528 197.548588 
L 313.319344 199.083665 
L 314.08216 199.625838 
L 314.844976 201.160324 
L 315.607792 198.880426 
L 316.370608 201.273967 
L 317.133424 199.074882 
L 317.896241 200.420137 
L 318.659057 198.644323 
L 319.421873 201.214018 
L 320.184689 199.482818 
L 320.947505 200.83113 
L 321.710321 198.375741 
L 322.473137 198.668478 
L 323.235954 199.395882 
L 323.99877 201.201264 
L 324.761586 200.696749 
L 325.524402 199.361645 
L 326.287218 198.972846 
L 327.050034 199.173957 
L 327.81285 201.284599 
L 328.575666 199.844952 
L 329.338483 199.276475 
L 330.101299 200.867862 
L 330.864115 198.870294 
L 331.626931 200.002025 
L 332.389747 198.826836 
L 333.152563 200.2726 
L 333.915379 199.639063 
L 334.678195 201.160324 
L 335.441012 197.917815 
L 336.203828 200.845807 
L 336.966644 199.411277 
L 337.72946 201.266745 
L 338.492276 199.917216 
L 339.255092 201.239853 
L 340.017908 200.861925 
L 340.780725 201.114633 
L 341.543541 200.273038 
L 342.306357 201.231018 
L 343.069173 199.2814 
L 343.831989 199.823458 
L 344.594805 199.811744 
L 345.357621 201.193596 
L 346.120437 199.699147 
L 346.883254 199.134984 
L 347.64607 198.811357 
L 348.408886 201.619163 
L 349.171702 198.552129 
L 349.934518 201.133148 
L 351.46015 200.018679 
L 352.222967 201.089781 
L 353.748599 201.303784 
L 354.511415 200.353305 
L 355.274231 201.09491 
L 356.037047 200.454024 
L 356.799863 198.981767 
L 357.562679 201.096124 
L 358.325496 198.287245 
L 359.088312 199.82509 
L 359.851128 198.340084 
L 360.613944 201.267012 
L 361.37676 199.220631 
L 362.139576 199.339273 
L 362.902392 199.989057 
L 363.665208 201.311656 
L 365.953657 198.519645 
L 366.716473 201.056317 
L 367.479289 201.284599 
L 368.242105 201.29314 
L 369.004921 200.471695 
L 369.767738 200.310189 
L 370.530554 198.699196 
L 371.29337 200.596617 
L 372.056186 200.618455 
L 372.819002 199.140263 
L 373.581818 197.970679 
L 373.581818 197.970679 
" style="fill:none;stroke:#008000;stroke-dasharray:9.6,2.4,1.5,2.4;stroke-dashoffset:0;stroke-width:1.5;"/>
   </g>
   <g id="line2d_38">
    <path clip-path="url(#p08d503a582)" d="M 69.218182 158.686303 
L 69.980998 47.004808 
L 70.743814 46.391569 
L 71.50663 51.008892 
L 72.269446 46.391569 
L 73.032262 52.668243 
L 73.795079 44.587928 
L 74.557895 47.401609 
L 75.320711 47.221245 
L 76.083527 51.766422 
L 76.846343 45.273312 
L 77.609159 62.552199 
L 78.371975 48.195211 
L 79.134792 50.107071 
L 79.897608 44.443636 
L 80.660424 63.381874 
L 81.42324 46.427642 
L 82.186056 47.978774 
L 82.948872 46.247278 
L 83.711688 52.740388 
L 84.474504 45.201166 
L 85.237321 60.892849 
L 86.000137 55.085122 
L 86.762953 139.351263 
L 87.525769 114.929955 
L 88.288585 154.429708 
L 89.051401 135.74398 
L 89.814217 159.948852 
L 90.577033 153.31145 
L 91.33985 164.674393 
L 92.102666 167.704511 
L 92.865482 174.161549 
L 93.628298 190.21396 
L 94.391114 179.536401 
L 95.916746 199.268241 
L 96.679563 191.368291 
L 97.442379 189.564649 
L 98.205195 161.788566 
L 98.968011 182.386155 
L 99.730827 197.21209 
L 100.493643 195.119865 
L 101.256459 191.368291 
L 102.019275 194.831283 
L 102.782092 191.187926 
L 103.544908 166.405889 
L 104.307724 192.63084 
L 105.07054 188.374245 
L 105.833356 179.103527 
L 106.596172 187.255987 
L 107.358988 169.111352 
L 108.121805 194.975574 
L 108.884621 195.04772 
L 109.647437 194.975574 
L 110.410253 193.568733 
L 111.173069 195.264157 
L 111.935885 193.965535 
L 112.698701 194.109826 
L 113.461517 194.398409 
L 114.224334 194.109826 
L 114.98715 194.5427 
L 115.749966 194.254117 
L 116.512782 193.821243 
L 118.038414 194.398409 
L 118.80123 193.532661 
L 119.564046 193.532661 
L 120.326863 194.398409 
L 121.852495 194.398409 
L 122.615311 193.821243 
L 123.378127 193.965535 
L 124.140943 194.254117 
L 124.903759 193.965535 
L 125.666576 194.109826 
L 127.192208 194.109826 
L 127.955024 194.5427 
L 128.71784 194.109826 
L 129.480656 193.532661 
L 130.243472 193.676952 
L 131.006288 194.109826 
L 132.531921 194.398409 
L 133.294737 194.398409 
L 134.057553 193.965535 
L 134.820369 194.398409 
L 136.346001 193.821243 
L 137.108817 194.398409 
L 137.871634 193.965535 
L 138.63445 193.965535 
L 139.397266 194.686991 
L 140.922898 194.109826 
L 141.685714 193.532661 
L 142.44853 194.109826 
L 143.211347 193.965535 
L 143.974163 194.254117 
L 144.736979 194.109826 
L 146.262611 194.398409 
L 147.025427 193.965535 
L 147.788243 193.676952 
L 148.551059 193.821243 
L 149.313876 194.254117 
L 150.076692 194.109826 
L 150.839508 193.821243 
L 153.127956 193.821243 
L 153.890772 188.3021 
L 154.653589 194.398409 
L 155.416405 193.821243 
L 156.179221 194.398409 
L 156.942037 193.821243 
L 157.704853 194.254117 
L 158.467669 194.398409 
L 159.230485 193.965535 
L 159.993301 192.306184 
L 160.756118 194.254117 
L 161.518934 193.676952 
L 162.28175 193.821243 
L 163.044566 194.5427 
L 163.807382 193.532661 
L 164.570198 194.109826 
L 165.333014 193.965535 
L 166.09583 194.686991 
L 166.858647 194.686991 
L 167.621463 193.821243 
L 168.384279 194.109826 
L 169.147095 193.821243 
L 169.909911 193.821243 
L 170.672727 192.306184 
L 171.435543 194.109826 
L 172.19836 194.398409 
L 172.961176 193.965535 
L 173.723992 193.821243 
L 174.486808 194.109826 
L 175.249624 193.965535 
L 176.01244 194.5427 
L 176.775256 194.109826 
L 177.538072 193.965535 
L 178.300889 160.526017 
L 179.063705 194.975574 
L 179.826521 193.821243 
L 180.589337 193.965535 
L 181.352153 192.88335 
L 182.114969 194.831283 
L 182.877785 191.765092 
L 183.640602 194.398409 
L 184.403418 187.905298 
L 185.166234 194.5427 
L 185.92905 191.007562 
L 186.691866 193.965535 
L 187.454682 193.965535 
L 188.217498 192.594767 
L 188.980314 194.398409 
L 190.505947 194.398409 
L 192.031579 193.821243 
L 192.794395 194.254117 
L 193.557211 169.72459 
L 194.320027 195.264157 
L 195.082843 193.821243 
L 195.84566 194.398409 
L 196.608476 194.5427 
L 197.371292 194.5427 
L 198.134108 194.254117 
L 198.896924 194.686991 
L 199.65974 194.254117 
L 200.422556 187.111696 
L 201.185373 195.119865 
L 201.948189 195.119865 
L 202.711005 193.568733 
L 204.236637 194.5427 
L 204.999453 194.398409 
L 205.762269 193.676952 
L 206.525085 194.686991 
L 207.287902 192.88335 
L 208.050718 168.606332 
L 208.813534 186.570604 
L 209.57635 194.398409 
L 210.339166 164.602247 
L 211.101982 195.264157 
L 211.864798 194.109826 
L 212.627614 194.254117 
L 213.390431 194.109826 
L 214.153247 194.5427 
L 214.916063 167.596293 
L 215.678879 194.831283 
L 216.441695 194.109826 
L 217.204511 194.254117 
L 217.967327 194.831283 
L 218.730144 194.398409 
L 219.49296 194.831283 
L 220.255776 194.109826 
L 221.018592 194.109826 
L 221.781408 194.254117 
L 222.544224 194.109826 
L 223.30704 193.821243 
L 224.069856 193.821243 
L 224.832673 193.965535 
L 225.595489 189.564649 
L 226.358305 194.398409 
L 227.121121 161.103183 
L 227.883937 195.408448 
L 229.409569 194.5427 
L 230.172386 190.105741 
L 230.935202 194.398409 
L 232.460834 194.109826 
L 233.22365 190.250033 
L 233.986466 194.5427 
L 234.749282 193.965535 
L 235.512098 195.119865 
L 236.274915 194.5427 
L 237.037731 160.129216 
L 237.800547 195.841322 
L 238.563363 194.109826 
L 239.326179 194.5427 
L 240.088995 194.5427 
L 240.851811 194.398409 
L 241.614627 194.831283 
L 242.377444 194.5427 
L 243.14026 194.831283 
L 243.903076 194.109826 
L 244.665892 160.417799 
L 245.428708 194.5427 
L 246.191524 194.5427 
L 246.95434 194.254117 
L 247.717157 193.676952 
L 249.242789 193.965535 
L 250.005605 164.566175 
L 250.768421 187.616716 
L 251.531237 194.831283 
L 253.056869 193.676952 
L 253.819686 194.398409 
L 254.582502 194.254117 
L 255.345318 194.5427 
L 256.108134 193.821243 
L 256.87095 194.254117 
L 257.633766 195.119865 
L 258.396582 193.965535 
L 259.159398 194.109826 
L 259.922215 193.821243 
L 260.685031 194.398409 
L 262.210663 194.109826 
L 262.973479 194.398409 
L 264.499111 194.109826 
L 265.261928 194.975574 
L 266.024744 194.109826 
L 266.78756 194.5427 
L 267.550376 194.109826 
L 268.313192 194.254117 
L 269.076008 193.532661 
L 269.838824 193.965535 
L 270.60164 193.676952 
L 272.127273 194.254117 
L 272.890089 194.109826 
L 273.652905 193.821243 
L 275.178537 194.686991 
L 275.941353 194.831283 
L 276.70417 194.398409 
L 277.466986 194.686991 
L 278.229802 194.5427 
L 278.992618 194.254117 
L 279.755434 194.254117 
L 280.51825 193.821243 
L 281.281066 194.254117 
L 282.043882 194.5427 
L 282.806699 194.5427 
L 283.569515 193.965535 
L 284.332331 194.398409 
L 285.095147 194.614846 
L 285.857963 193.965535 
L 286.620779 194.723064 
L 287.383595 194.975574 
L 288.146411 194.831283 
L 288.909228 195.264157 
L 289.672044 193.821243 
L 290.43486 194.109826 
L 291.197676 193.568733 
L 291.960492 193.821243 
L 292.723308 193.280151 
L 293.486124 194.686991 
L 294.248941 157.64019 
L 295.011757 194.686991 
L 295.774573 186.462385 
L 296.537389 195.119865 
L 297.300205 194.109826 
L 298.063021 194.254117 
L 298.825837 193.676952 
L 299.588653 193.676952 
L 300.35147 159.010958 
L 301.114286 193.965535 
L 301.877102 194.109826 
L 302.639918 193.676952 
L 303.402734 193.821243 
L 304.16555 193.821243 
L 304.928366 193.676952 
L 305.691183 194.398409 
L 306.453999 193.821243 
L 307.216815 193.821243 
L 307.979631 194.109826 
L 308.742447 193.965535 
L 309.505263 194.398409 
L 310.268079 193.821243 
L 311.030895 193.676952 
L 311.793712 193.821243 
L 312.556528 194.398409 
L 313.319344 193.965535 
L 314.08216 193.676952 
L 314.844976 193.532661 
L 315.607792 193.821243 
L 316.370608 193.821243 
L 317.133424 194.5427 
L 317.896241 194.109826 
L 318.659057 194.254117 
L 319.421873 193.821243 
L 320.184689 193.965535 
L 320.947505 193.821243 
L 321.710321 194.5427 
L 322.473137 193.821243 
L 323.235954 193.821243 
L 323.99877 193.676952 
L 324.761586 194.109826 
L 325.524402 193.965535 
L 326.287218 194.109826 
L 327.050034 194.109826 
L 327.81285 193.676952 
L 328.575666 194.109826 
L 329.338483 193.821243 
L 330.101299 193.965535 
L 330.864115 193.965535 
L 331.626931 194.5427 
L 332.389747 193.965535 
L 333.915379 193.965535 
L 334.678195 193.532661 
L 335.441012 193.965535 
L 336.203828 193.676952 
L 336.966644 194.109826 
L 337.72946 193.676952 
L 340.017908 193.676952 
L 340.780725 193.821243 
L 342.306357 193.821243 
L 343.069173 193.676952 
L 343.831989 194.109826 
L 344.594805 193.676952 
L 345.357621 193.676952 
L 346.120437 194.5427 
L 346.883254 193.676952 
L 347.64607 194.254117 
L 348.408886 194.398409 
L 349.934518 193.821243 
L 352.222967 193.821243 
L 352.985783 194.254117 
L 353.748599 193.676952 
L 354.511415 193.676952 
L 355.274231 193.965535 
L 356.037047 193.965535 
L 356.799863 193.821243 
L 357.562679 193.821243 
L 358.325496 194.109826 
L 359.088312 193.965535 
L 359.851128 194.5427 
L 360.613944 193.676952 
L 361.37676 193.821243 
L 362.139576 194.398409 
L 362.902392 193.965535 
L 363.665208 193.821243 
L 364.428025 193.821243 
L 365.190841 193.676952 
L 365.953657 194.254117 
L 366.716473 193.821243 
L 367.479289 193.676952 
L 369.004921 193.965535 
L 369.767738 194.398409 
L 370.530554 193.965535 
L 371.29337 193.676952 
L 372.056186 193.821243 
L 372.819002 194.398409 
L 373.581818 194.109826 
L 373.581818 194.109826 
" style="fill:none;stroke:#ff0000;stroke-linecap:square;stroke-width:1.5;"/>
   </g>
   <g id="patch_3">
    <path d="M 54 252 
L 54 34.56 
" style="fill:none;stroke:#000000;stroke-linecap:square;stroke-linejoin:miter;stroke-width:0.8;"/>
   </g>
   <g id="patch_4">
    <path d="M 388.8 252 
L 388.8 34.56 
" style="fill:none;stroke:#000000;stroke-linecap:square;stroke-linejoin:miter;stroke-width:0.8;"/>
   </g>
   <g id="patch_5">
    <path d="M 54 252 
L 388.8 252 
" style="fill:none;stroke:#000000;stroke-linecap:square;stroke-linejoin:miter;stroke-width:0.8;"/>
   </g>
   <g id="patch_6">
    <path d="M 54 34.56 
L 388.8 34.56 
" style="fill:none;stroke:#000000;stroke-linecap:square;stroke-linejoin:miter;stroke-width:0.8;"/>
   </g>
   <g id="text_20">
    <!-- Population's average and best fitness -->
    <defs>
     <path d="M 19.671875 64.796875 
L 19.671875 37.40625 
L 32.078125 37.40625 
Q 38.96875 37.40625 42.71875 40.96875 
Q 46.484375 44.53125 46.484375 51.125 
Q 46.484375 57.671875 42.71875 61.234375 
Q 38.96875 64.796875 32.078125 64.796875 
z
M 9.8125 72.90625 
L 32.078125 72.90625 
Q 44.34375 72.90625 50.609375 67.359375 
Q 56.890625 61.8125 56.890625 51.125 
Q 56.890625 40.328125 50.609375 34.8125 
Q 44.34375 29.296875 32.078125 29.296875 
L 19.671875 29.296875 
L 19.671875 0 
L 9.8125 0 
z
" id="DejaVuSans-50"/>
     <path d="M 18.109375 8.203125 
L 18.109375 -20.796875 
L 9.078125 -20.796875 
L 9.078125 54.6875 
L 18.109375 54.6875 
L 18.109375 46.390625 
Q 20.953125 51.265625 25.265625 53.625 
Q 29.59375 56 35.59375 56 
Q 45.5625 56 51.78125 48.09375 
Q 58.015625 40.1875 58.015625 27.296875 
Q 58.015625 14.40625 51.78125 6.484375 
Q 45.5625 -1.421875 35.59375 -1.421875 
Q 29.59375 -1.421875 25.265625 0.953125 
Q 20.953125 3.328125 18.109375 8.203125 
z
M 48.6875 27.296875 
Q 48.6875 37.203125 44.609375 42.84375 
Q 40.53125 48.484375 33.40625 48.484375 
Q 26.265625 48.484375 22.1875 42.84375 
Q 18.109375 37.203125 18.109375 27.296875 
Q 18.109375 17.390625 22.1875 11.75 
Q 26.265625 6.109375 33.40625 6.109375 
Q 40.53125 6.109375 44.609375 11.75 
Q 48.6875 17.390625 48.6875 27.296875 
z
" id="DejaVuSans-70"/>
     <path d="M 8.5 21.578125 
L 8.5 54.6875 
L 17.484375 54.6875 
L 17.484375 21.921875 
Q 17.484375 14.15625 20.5 10.265625 
Q 23.53125 6.390625 29.59375 6.390625 
Q 36.859375 6.390625 41.078125 11.03125 
Q 45.3125 15.671875 45.3125 23.6875 
L 45.3125 54.6875 
L 54.296875 54.6875 
L 54.296875 0 
L 45.3125 0 
L 45.3125 8.40625 
Q 42.046875 3.421875 37.71875 1 
Q 33.40625 -1.421875 27.6875 -1.421875 
Q 18.265625 -1.421875 13.375 4.4375 
Q 8.5 10.296875 8.5 21.578125 
z
M 31.109375 56 
z
" id="DejaVuSans-75"/>
     <path d="M 9.421875 75.984375 
L 18.40625 75.984375 
L 18.40625 0 
L 9.421875 0 
z
" id="DejaVuSans-6c"/>
     <path d="M 17.921875 72.90625 
L 17.921875 45.796875 
L 9.625 45.796875 
L 9.625 72.90625 
z
" id="DejaVuSans-27"/>
     <path id="DejaVuSans-20"/>
     <path d="M 2.984375 54.6875 
L 12.5 54.6875 
L 29.59375 8.796875 
L 46.6875 54.6875 
L 56.203125 54.6875 
L 35.6875 0 
L 23.484375 0 
z
" id="DejaVuSans-76"/>
     <path d="M 45.40625 27.984375 
Q 45.40625 37.75 41.375 43.109375 
Q 37.359375 48.484375 30.078125 48.484375 
Q 22.859375 48.484375 18.828125 43.109375 
Q 14.796875 37.75 14.796875 27.984375 
Q 14.796875 18.265625 18.828125 12.890625 
Q 22.859375 7.515625 30.078125 7.515625 
Q 37.359375 7.515625 41.375 12.890625 
Q 45.40625 18.265625 45.40625 27.984375 
z
M 54.390625 6.78125 
Q 54.390625 -7.171875 48.1875 -13.984375 
Q 42 -20.796875 29.203125 -20.796875 
Q 24.46875 -20.796875 20.265625 -20.09375 
Q 16.0625 -19.390625 12.109375 -17.921875 
L 12.109375 -9.1875 
Q 16.0625 -11.328125 19.921875 -12.34375 
Q 23.78125 -13.375 27.78125 -13.375 
Q 36.625 -13.375 41.015625 -8.765625 
Q 45.40625 -4.15625 45.40625 5.171875 
L 45.40625 9.625 
Q 42.625 4.78125 38.28125 2.390625 
Q 33.9375 0 27.875 0 
Q 17.828125 0 11.671875 7.65625 
Q 5.515625 15.328125 5.515625 27.984375 
Q 5.515625 40.671875 11.671875 48.328125 
Q 17.828125 56 27.875 56 
Q 33.9375 56 38.28125 53.609375 
Q 42.625 51.21875 45.40625 46.390625 
L 45.40625 54.6875 
L 54.390625 54.6875 
z
" id="DejaVuSans-67"/>
     <path d="M 45.40625 46.390625 
L 45.40625 75.984375 
L 54.390625 75.984375 
L 54.390625 0 
L 45.40625 0 
L 45.40625 8.203125 
Q 42.578125 3.328125 38.25 0.953125 
Q 33.9375 -1.421875 27.875 -1.421875 
Q 17.96875 -1.421875 11.734375 6.484375 
Q 5.515625 14.40625 5.515625 27.296875 
Q 5.515625 40.1875 11.734375 48.09375 
Q 17.96875 56 27.875 56 
Q 33.9375 56 38.25 53.625 
Q 42.578125 51.265625 45.40625 46.390625 
z
M 14.796875 27.296875 
Q 14.796875 17.390625 18.875 11.75 
Q 22.953125 6.109375 30.078125 6.109375 
Q 37.203125 6.109375 41.296875 11.75 
Q 45.40625 17.390625 45.40625 27.296875 
Q 45.40625 37.203125 41.296875 42.84375 
Q 37.203125 48.484375 30.078125 48.484375 
Q 22.953125 48.484375 18.875 42.84375 
Q 14.796875 37.203125 14.796875 27.296875 
z
" id="DejaVuSans-64"/>
     <path d="M 48.6875 27.296875 
Q 48.6875 37.203125 44.609375 42.84375 
Q 40.53125 48.484375 33.40625 48.484375 
Q 26.265625 48.484375 22.1875 42.84375 
Q 18.109375 37.203125 18.109375 27.296875 
Q 18.109375 17.390625 22.1875 11.75 
Q 26.265625 6.109375 33.40625 6.109375 
Q 40.53125 6.109375 44.609375 11.75 
Q 48.6875 17.390625 48.6875 27.296875 
z
M 18.109375 46.390625 
Q 20.953125 51.265625 25.265625 53.625 
Q 29.59375 56 35.59375 56 
Q 45.5625 56 51.78125 48.09375 
Q 58.015625 40.1875 58.015625 27.296875 
Q 58.015625 14.40625 51.78125 6.484375 
Q 45.5625 -1.421875 35.59375 -1.421875 
Q 29.59375 -1.421875 25.265625 0.953125 
Q 20.953125 3.328125 18.109375 8.203125 
L 18.109375 0 
L 9.078125 0 
L 9.078125 75.984375 
L 18.109375 75.984375 
z
" id="DejaVuSans-62"/>
     <path d="M 37.109375 75.984375 
L 37.109375 68.5 
L 28.515625 68.5 
Q 23.6875 68.5 21.796875 66.546875 
Q 19.921875 64.59375 19.921875 59.515625 
L 19.921875 54.6875 
L 34.71875 54.6875 
L 34.71875 47.703125 
L 19.921875 47.703125 
L 19.921875 0 
L 10.890625 0 
L 10.890625 47.703125 
L 2.296875 47.703125 
L 2.296875 54.6875 
L 10.890625 54.6875 
L 10.890625 58.5 
Q 10.890625 67.625 15.140625 71.796875 
Q 19.390625 75.984375 28.609375 75.984375 
z
" id="DejaVuSans-66"/>
    </defs>
    <g transform="translate(108.555 28.56)scale(0.12 -0.12)">
     <use xlink:href="#DejaVuSans-50"/>
     <use x="60.255859" xlink:href="#DejaVuSans-6f"/>
     <use x="121.4375" xlink:href="#DejaVuSans-70"/>
     <use x="184.914062" xlink:href="#DejaVuSans-75"/>
     <use x="248.292969" xlink:href="#DejaVuSans-6c"/>
     <use x="276.076172" xlink:href="#DejaVuSans-61"/>
     <use x="337.355469" xlink:href="#DejaVuSans-74"/>
     <use x="376.564453" xlink:href="#DejaVuSans-69"/>
     <use x="404.347656" xlink:href="#DejaVuSans-6f"/>
     <use x="465.529297" xlink:href="#DejaVuSans-6e"/>
     <use x="528.908203" xlink:href="#DejaVuSans-27"/>
     <use x="556.398438" xlink:href="#DejaVuSans-73"/>
     <use x="608.498047" xlink:href="#DejaVuSans-20"/>
     <use x="640.285156" xlink:href="#DejaVuSans-61"/>
     <use x="701.564453" xlink:href="#DejaVuSans-76"/>
     <use x="760.744141" xlink:href="#DejaVuSans-65"/>
     <use x="822.267578" xlink:href="#DejaVuSans-72"/>
     <use x="863.380859" xlink:href="#DejaVuSans-61"/>
     <use x="924.660156" xlink:href="#DejaVuSans-67"/>
     <use x="988.136719" xlink:href="#DejaVuSans-65"/>
     <use x="1049.660156" xlink:href="#DejaVuSans-20"/>
     <use x="1081.447266" xlink:href="#DejaVuSans-61"/>
     <use x="1142.726562" xlink:href="#DejaVuSans-6e"/>
     <use x="1206.105469" xlink:href="#DejaVuSans-64"/>
     <use x="1269.582031" xlink:href="#DejaVuSans-20"/>
     <use x="1301.369141" xlink:href="#DejaVuSans-62"/>
     <use x="1364.845703" xlink:href="#DejaVuSans-65"/>
     <use x="1426.369141" xlink:href="#DejaVuSans-73"/>
     <use x="1478.46875" xlink:href="#DejaVuSans-74"/>
     <use x="1517.677734" xlink:href="#DejaVuSans-20"/>
     <use x="1549.464844" xlink:href="#DejaVuSans-66"/>
     <use x="1584.669922" xlink:href="#DejaVuSans-69"/>
     <use x="1612.453125" xlink:href="#DejaVuSans-74"/>
     <use x="1651.662109" xlink:href="#DejaVuSans-6e"/>
     <use x="1715.041016" xlink:href="#DejaVuSans-65"/>
     <use x="1776.564453" xlink:href="#DejaVuSans-73"/>
     <use x="1828.664062" xlink:href="#DejaVuSans-73"/>
    </g>
   </g>
   <g id="legend_1">
    <g id="patch_7">
     <path d="M 308.859375 101.2725 
L 381.8 101.2725 
Q 383.8 101.2725 383.8 99.2725 
L 383.8 41.56 
Q 383.8 39.56 381.8 39.56 
L 308.859375 39.56 
Q 306.859375 39.56 306.859375 41.56 
L 306.859375 99.2725 
Q 306.859375 101.2725 308.859375 101.2725 
z
" style="fill:#ffffff;opacity:0.8;stroke:#cccccc;stroke-linejoin:miter;"/>
    </g>
    <g id="line2d_39">
     <path d="M 310.859375 47.658437 
L 330.859375 47.658437 
" style="fill:none;stroke:#0000ff;stroke-linecap:square;stroke-width:1.5;"/>
    </g>
    <g id="line2d_40"/>
    <g id="text_21">
     <!-- average -->
     <g transform="translate(338.859375 51.158437)scale(0.1 -0.1)">
      <use xlink:href="#DejaVuSans-61"/>
      <use x="61.279297" xlink:href="#DejaVuSans-76"/>
      <use x="120.458984" xlink:href="#DejaVuSans-65"/>
      <use x="181.982422" xlink:href="#DejaVuSans-72"/>
      <use x="223.095703" xlink:href="#DejaVuSans-61"/>
      <use x="284.375" xlink:href="#DejaVuSans-67"/>
      <use x="347.851562" xlink:href="#DejaVuSans-65"/>
     </g>
    </g>
    <g id="line2d_41">
     <path d="M 310.859375 62.336562 
L 330.859375 62.336562 
" style="fill:none;stroke:#008000;stroke-dasharray:9.6,2.4,1.5,2.4;stroke-dashoffset:0;stroke-width:1.5;"/>
    </g>
    <g id="line2d_42"/>
    <g id="text_22">
     <!-- -1 sd -->
     <defs>
      <path d="M 4.890625 31.390625 
L 31.203125 31.390625 
L 31.203125 23.390625 
L 4.890625 23.390625 
z
" id="DejaVuSans-2d"/>
     </defs>
     <g transform="translate(338.859375 65.836562)scale(0.1 -0.1)">
      <use xlink:href="#DejaVuSans-2d"/>
      <use x="36.083984" xlink:href="#DejaVuSans-31"/>
      <use x="99.707031" xlink:href="#DejaVuSans-20"/>
      <use x="131.494141" xlink:href="#DejaVuSans-73"/>
      <use x="183.59375" xlink:href="#DejaVuSans-64"/>
     </g>
    </g>
    <g id="line2d_43">
     <path d="M 310.859375 77.014687 
L 330.859375 77.014687 
" style="fill:none;stroke:#008000;stroke-dasharray:9.6,2.4,1.5,2.4;stroke-dashoffset:0;stroke-width:1.5;"/>
    </g>
    <g id="line2d_44"/>
    <g id="text_23">
     <!-- +1 sd -->
     <defs>
      <path d="M 46 62.703125 
L 46 35.5 
L 73.1875 35.5 
L 73.1875 27.203125 
L 46 27.203125 
L 46 0 
L 37.796875 0 
L 37.796875 27.203125 
L 10.59375 27.203125 
L 10.59375 35.5 
L 37.796875 35.5 
L 37.796875 62.703125 
z
" id="DejaVuSans-2b"/>
     </defs>
     <g transform="translate(338.859375 80.514687)scale(0.1 -0.1)">
      <use xlink:href="#DejaVuSans-2b"/>
      <use x="83.789062" xlink:href="#DejaVuSans-31"/>
      <use x="147.412109" xlink:href="#DejaVuSans-20"/>
      <use x="179.199219" xlink:href="#DejaVuSans-73"/>
      <use x="231.298828" xlink:href="#DejaVuSans-64"/>
     </g>
    </g>
    <g id="line2d_45">
     <path d="M 310.859375 91.692813 
L 330.859375 91.692813 
" style="fill:none;stroke:#ff0000;stroke-linecap:square;stroke-width:1.5;"/>
    </g>
    <g id="line2d_46"/>
    <g id="text_24">
     <!-- best -->
     <g transform="translate(338.859375 95.192813)scale(0.1 -0.1)">
      <use xlink:href="#DejaVuSans-62"/>
      <use x="63.476562" xlink:href="#DejaVuSans-65"/>
      <use x="125" xlink:href="#DejaVuSans-73"/>
      <use x="177.099609" xlink:href="#DejaVuSans-74"/>
     </g>
    </g>
   </g>
  </g>
 </g>
 <defs>
  <clipPath id="p08d503a582">
   <rect height="217.44" width="334.8" x="54" y="34.56"/>
  </clipPath>
 </defs>
</svg>
