<?xml version="1.0" encoding="utf-8" standalone="no"?>
<!DOCTYPE svg PUBLIC "-//W3C//DTD SVG 1.1//EN"
  "http://www.w3.org/Graphics/SVG/1.1/DTD/svg11.dtd">
<!-- Created with matplotlib (http://matplotlib.org/) -->
<svg height="288pt" version="1.1" viewBox="0 0 432 288" width="432pt" xmlns="http://www.w3.org/2000/svg" xmlns:xlink="http://www.w3.org/1999/xlink">
 <defs>
  <style type="text/css">
*{stroke-linecap:butt;stroke-linejoin:round;}
  </style>
 </defs>
 <g id="figure_1">
  <g id="patch_1">
   <path d="M 0 288 
L 432 288 
L 432 0 
L 0 0 
z
" style="fill:#ffffff;"/>
  </g>
  <g id="axes_1">
   <g id="patch_2">
    <path d="M 54 252 
L 388.8 252 
L 388.8 34.56 
L 54 34.56 
z
" style="fill:#ffffff;"/>
   </g>
   <g id="matplotlib.axis_1">
    <g id="xtick_1">
     <g id="line2d_1">
      <path clip-path="url(#p836e0a1ed4)" d="M 69.218182 252 
L 69.218182 34.56 
" style="fill:none;stroke:#b0b0b0;stroke-linecap:square;stroke-width:0.8;"/>
     </g>
     <g id="line2d_2">
      <defs>
       <path d="M 0 0 
L 0 3.5 
" id="m0bd994397a" style="stroke:#000000;stroke-width:0.8;"/>
      </defs>
      <g>
       <use style="stroke:#000000;stroke-width:0.8;" x="69.218182" xlink:href="#m0bd994397a" y="252"/>
      </g>
     </g>
     <g id="text_1">
      <!-- 0 -->
      <defs>
       <path d="M 31.78125 66.40625 
Q 24.171875 66.40625 20.328125 58.90625 
Q 16.5 51.421875 16.5 36.375 
Q 16.5 21.390625 20.328125 13.890625 
Q 24.171875 6.390625 31.78125 6.390625 
Q 39.453125 6.390625 43.28125 13.890625 
Q 47.125 21.390625 47.125 36.375 
Q 47.125 51.421875 43.28125 58.90625 
Q 39.453125 66.40625 31.78125 66.40625 
z
M 31.78125 74.21875 
Q 44.046875 74.21875 50.515625 64.515625 
Q 56.984375 54.828125 56.984375 36.375 
Q 56.984375 17.96875 50.515625 8.265625 
Q 44.046875 -1.421875 31.78125 -1.421875 
Q 19.53125 -1.421875 13.0625 8.265625 
Q 6.59375 17.96875 6.59375 36.375 
Q 6.59375 54.828125 13.0625 64.515625 
Q 19.53125 74.21875 31.78125 74.21875 
z
" id="DejaVuSans-30"/>
      </defs>
      <g transform="translate(66.036932 266.598437)scale(0.1 -0.1)">
       <use xlink:href="#DejaVuSans-30"/>
      </g>
     </g>
    </g>
    <g id="xtick_2">
     <g id="line2d_3">
      <path clip-path="url(#p836e0a1ed4)" d="M 107.45482 252 
L 107.45482 34.56 
" style="fill:none;stroke:#b0b0b0;stroke-linecap:square;stroke-width:0.8;"/>
     </g>
     <g id="line2d_4">
      <g>
       <use style="stroke:#000000;stroke-width:0.8;" x="107.45482" xlink:href="#m0bd994397a" y="252"/>
      </g>
     </g>
     <g id="text_2">
      <!-- 25 -->
      <defs>
       <path d="M 19.1875 8.296875 
L 53.609375 8.296875 
L 53.609375 0 
L 7.328125 0 
L 7.328125 8.296875 
Q 12.9375 14.109375 22.625 23.890625 
Q 32.328125 33.6875 34.8125 36.53125 
Q 39.546875 41.84375 41.421875 45.53125 
Q 43.3125 49.21875 43.3125 52.78125 
Q 43.3125 58.59375 39.234375 62.25 
Q 35.15625 65.921875 28.609375 65.921875 
Q 23.96875 65.921875 18.8125 64.3125 
Q 13.671875 62.703125 7.8125 59.421875 
L 7.8125 69.390625 
Q 13.765625 71.78125 18.9375 73 
Q 24.125 74.21875 28.421875 74.21875 
Q 39.75 74.21875 46.484375 68.546875 
Q 53.21875 62.890625 53.21875 53.421875 
Q 53.21875 48.921875 51.53125 44.890625 
Q 49.859375 40.875 45.40625 35.40625 
Q 44.1875 33.984375 37.640625 27.21875 
Q 31.109375 20.453125 19.1875 8.296875 
z
" id="DejaVuSans-32"/>
       <path d="M 10.796875 72.90625 
L 49.515625 72.90625 
L 49.515625 64.59375 
L 19.828125 64.59375 
L 19.828125 46.734375 
Q 21.96875 47.46875 24.109375 47.828125 
Q 26.265625 48.1875 28.421875 48.1875 
Q 40.625 48.1875 47.75 41.5 
Q 54.890625 34.8125 54.890625 23.390625 
Q 54.890625 11.625 47.5625 5.09375 
Q 40.234375 -1.421875 26.90625 -1.421875 
Q 22.3125 -1.421875 17.546875 -0.640625 
Q 12.796875 0.140625 7.71875 1.703125 
L 7.71875 11.625 
Q 12.109375 9.234375 16.796875 8.0625 
Q 21.484375 6.890625 26.703125 6.890625 
Q 35.15625 6.890625 40.078125 11.328125 
Q 45.015625 15.765625 45.015625 23.390625 
Q 45.015625 31 40.078125 35.4375 
Q 35.15625 39.890625 26.703125 39.890625 
Q 22.75 39.890625 18.8125 39.015625 
Q 14.890625 38.140625 10.796875 36.28125 
z
" id="DejaVuSans-35"/>
      </defs>
      <g transform="translate(101.09232 266.598437)scale(0.1 -0.1)">
       <use xlink:href="#DejaVuSans-32"/>
       <use x="63.623047" xlink:href="#DejaVuSans-35"/>
      </g>
     </g>
    </g>
    <g id="xtick_3">
     <g id="line2d_5">
      <path clip-path="url(#p836e0a1ed4)" d="M 145.691457 252 
L 145.691457 34.56 
" style="fill:none;stroke:#b0b0b0;stroke-linecap:square;stroke-width:0.8;"/>
     </g>
     <g id="line2d_6">
      <g>
       <use style="stroke:#000000;stroke-width:0.8;" x="145.691457" xlink:href="#m0bd994397a" y="252"/>
      </g>
     </g>
     <g id="text_3">
      <!-- 50 -->
      <g transform="translate(139.328957 266.598437)scale(0.1 -0.1)">
       <use xlink:href="#DejaVuSans-35"/>
       <use x="63.623047" xlink:href="#DejaVuSans-30"/>
      </g>
     </g>
    </g>
    <g id="xtick_4">
     <g id="line2d_7">
      <path clip-path="url(#p836e0a1ed4)" d="M 183.928095 252 
L 183.928095 34.56 
" style="fill:none;stroke:#b0b0b0;stroke-linecap:square;stroke-width:0.8;"/>
     </g>
     <g id="line2d_8">
      <g>
       <use style="stroke:#000000;stroke-width:0.8;" x="183.928095" xlink:href="#m0bd994397a" y="252"/>
      </g>
     </g>
     <g id="text_4">
      <!-- 75 -->
      <defs>
       <path d="M 8.203125 72.90625 
L 55.078125 72.90625 
L 55.078125 68.703125 
L 28.609375 0 
L 18.3125 0 
L 43.21875 64.59375 
L 8.203125 64.59375 
z
" id="DejaVuSans-37"/>
      </defs>
      <g transform="translate(177.565595 266.598437)scale(0.1 -0.1)">
       <use xlink:href="#DejaVuSans-37"/>
       <use x="63.623047" xlink:href="#DejaVuSans-35"/>
      </g>
     </g>
    </g>
    <g id="xtick_5">
     <g id="line2d_9">
      <path clip-path="url(#p836e0a1ed4)" d="M 222.164733 252 
L 222.164733 34.56 
" style="fill:none;stroke:#b0b0b0;stroke-linecap:square;stroke-width:0.8;"/>
     </g>
     <g id="line2d_10">
      <g>
       <use style="stroke:#000000;stroke-width:0.8;" x="222.164733" xlink:href="#m0bd994397a" y="252"/>
      </g>
     </g>
     <g id="text_5">
      <!-- 100 -->
      <defs>
       <path d="M 12.40625 8.296875 
L 28.515625 8.296875 
L 28.515625 63.921875 
L 10.984375 60.40625 
L 10.984375 69.390625 
L 28.421875 72.90625 
L 38.28125 72.90625 
L 38.28125 8.296875 
L 54.390625 8.296875 
L 54.390625 0 
L 12.40625 0 
z
" id="DejaVuSans-31"/>
      </defs>
      <g transform="translate(212.620983 266.598437)scale(0.1 -0.1)">
       <use xlink:href="#DejaVuSans-31"/>
       <use x="63.623047" xlink:href="#DejaVuSans-30"/>
       <use x="127.246094" xlink:href="#DejaVuSans-30"/>
      </g>
     </g>
    </g>
    <g id="xtick_6">
     <g id="line2d_11">
      <path clip-path="url(#p836e0a1ed4)" d="M 260.40137 252 
L 260.40137 34.56 
" style="fill:none;stroke:#b0b0b0;stroke-linecap:square;stroke-width:0.8;"/>
     </g>
     <g id="line2d_12">
      <g>
       <use style="stroke:#000000;stroke-width:0.8;" x="260.40137" xlink:href="#m0bd994397a" y="252"/>
      </g>
     </g>
     <g id="text_6">
      <!-- 125 -->
      <g transform="translate(250.85762 266.598437)scale(0.1 -0.1)">
       <use xlink:href="#DejaVuSans-31"/>
       <use x="63.623047" xlink:href="#DejaVuSans-32"/>
       <use x="127.246094" xlink:href="#DejaVuSans-35"/>
      </g>
     </g>
    </g>
    <g id="xtick_7">
     <g id="line2d_13">
      <path clip-path="url(#p836e0a1ed4)" d="M 298.638008 252 
L 298.638008 34.56 
" style="fill:none;stroke:#b0b0b0;stroke-linecap:square;stroke-width:0.8;"/>
     </g>
     <g id="line2d_14">
      <g>
       <use style="stroke:#000000;stroke-width:0.8;" x="298.638008" xlink:href="#m0bd994397a" y="252"/>
      </g>
     </g>
     <g id="text_7">
      <!-- 150 -->
      <g transform="translate(289.094258 266.598437)scale(0.1 -0.1)">
       <use xlink:href="#DejaVuSans-31"/>
       <use x="63.623047" xlink:href="#DejaVuSans-35"/>
       <use x="127.246094" xlink:href="#DejaVuSans-30"/>
      </g>
     </g>
    </g>
    <g id="xtick_8">
     <g id="line2d_15">
      <path clip-path="url(#p836e0a1ed4)" d="M 336.874646 252 
L 336.874646 34.56 
" style="fill:none;stroke:#b0b0b0;stroke-linecap:square;stroke-width:0.8;"/>
     </g>
     <g id="line2d_16">
      <g>
       <use style="stroke:#000000;stroke-width:0.8;" x="336.874646" xlink:href="#m0bd994397a" y="252"/>
      </g>
     </g>
     <g id="text_8">
      <!-- 175 -->
      <g transform="translate(327.330896 266.598437)scale(0.1 -0.1)">
       <use xlink:href="#DejaVuSans-31"/>
       <use x="63.623047" xlink:href="#DejaVuSans-37"/>
       <use x="127.246094" xlink:href="#DejaVuSans-35"/>
      </g>
     </g>
    </g>
    <g id="xtick_9">
     <g id="line2d_17">
      <path clip-path="url(#p836e0a1ed4)" d="M 375.111284 252 
L 375.111284 34.56 
" style="fill:none;stroke:#b0b0b0;stroke-linecap:square;stroke-width:0.8;"/>
     </g>
     <g id="line2d_18">
      <g>
       <use style="stroke:#000000;stroke-width:0.8;" x="375.111284" xlink:href="#m0bd994397a" y="252"/>
      </g>
     </g>
     <g id="text_9">
      <!-- 200 -->
      <g transform="translate(365.567534 266.598437)scale(0.1 -0.1)">
       <use xlink:href="#DejaVuSans-32"/>
       <use x="63.623047" xlink:href="#DejaVuSans-30"/>
       <use x="127.246094" xlink:href="#DejaVuSans-30"/>
      </g>
     </g>
    </g>
    <g id="text_10">
     <!-- Generations -->
     <defs>
      <path d="M 59.515625 10.40625 
L 59.515625 29.984375 
L 43.40625 29.984375 
L 43.40625 38.09375 
L 69.28125 38.09375 
L 69.28125 6.78125 
Q 63.578125 2.734375 56.6875 0.65625 
Q 49.8125 -1.421875 42 -1.421875 
Q 24.90625 -1.421875 15.25 8.5625 
Q 5.609375 18.5625 5.609375 36.375 
Q 5.609375 54.25 15.25 64.234375 
Q 24.90625 74.21875 42 74.21875 
Q 49.125 74.21875 55.546875 72.453125 
Q 61.96875 70.703125 67.390625 67.28125 
L 67.390625 56.78125 
Q 61.921875 61.421875 55.765625 63.765625 
Q 49.609375 66.109375 42.828125 66.109375 
Q 29.4375 66.109375 22.71875 58.640625 
Q 16.015625 51.171875 16.015625 36.375 
Q 16.015625 21.625 22.71875 14.15625 
Q 29.4375 6.6875 42.828125 6.6875 
Q 48.046875 6.6875 52.140625 7.59375 
Q 56.25 8.5 59.515625 10.40625 
z
" id="DejaVuSans-47"/>
      <path d="M 56.203125 29.59375 
L 56.203125 25.203125 
L 14.890625 25.203125 
Q 15.484375 15.921875 20.484375 11.0625 
Q 25.484375 6.203125 34.421875 6.203125 
Q 39.59375 6.203125 44.453125 7.46875 
Q 49.3125 8.734375 54.109375 11.28125 
L 54.109375 2.78125 
Q 49.265625 0.734375 44.1875 -0.34375 
Q 39.109375 -1.421875 33.890625 -1.421875 
Q 20.796875 -1.421875 13.15625 6.1875 
Q 5.515625 13.8125 5.515625 26.8125 
Q 5.515625 40.234375 12.765625 48.109375 
Q 20.015625 56 32.328125 56 
Q 43.359375 56 49.78125 48.890625 
Q 56.203125 41.796875 56.203125 29.59375 
z
M 47.21875 32.234375 
Q 47.125 39.59375 43.09375 43.984375 
Q 39.0625 48.390625 32.421875 48.390625 
Q 24.90625 48.390625 20.390625 44.140625 
Q 15.875 39.890625 15.1875 32.171875 
z
" id="DejaVuSans-65"/>
      <path d="M 54.890625 33.015625 
L 54.890625 0 
L 45.90625 0 
L 45.90625 32.71875 
Q 45.90625 40.484375 42.875 44.328125 
Q 39.84375 48.1875 33.796875 48.1875 
Q 26.515625 48.1875 22.3125 43.546875 
Q 18.109375 38.921875 18.109375 30.90625 
L 18.109375 0 
L 9.078125 0 
L 9.078125 54.6875 
L 18.109375 54.6875 
L 18.109375 46.1875 
Q 21.34375 51.125 25.703125 53.5625 
Q 30.078125 56 35.796875 56 
Q 45.21875 56 50.046875 50.171875 
Q 54.890625 44.34375 54.890625 33.015625 
z
" id="DejaVuSans-6e"/>
      <path d="M 41.109375 46.296875 
Q 39.59375 47.171875 37.8125 47.578125 
Q 36.03125 48 33.890625 48 
Q 26.265625 48 22.1875 43.046875 
Q 18.109375 38.09375 18.109375 28.8125 
L 18.109375 0 
L 9.078125 0 
L 9.078125 54.6875 
L 18.109375 54.6875 
L 18.109375 46.1875 
Q 20.953125 51.171875 25.484375 53.578125 
Q 30.03125 56 36.53125 56 
Q 37.453125 56 38.578125 55.875 
Q 39.703125 55.765625 41.0625 55.515625 
z
" id="DejaVuSans-72"/>
      <path d="M 34.28125 27.484375 
Q 23.390625 27.484375 19.1875 25 
Q 14.984375 22.515625 14.984375 16.5 
Q 14.984375 11.71875 18.140625 8.90625 
Q 21.296875 6.109375 26.703125 6.109375 
Q 34.1875 6.109375 38.703125 11.40625 
Q 43.21875 16.703125 43.21875 25.484375 
L 43.21875 27.484375 
z
M 52.203125 31.203125 
L 52.203125 0 
L 43.21875 0 
L 43.21875 8.296875 
Q 40.140625 3.328125 35.546875 0.953125 
Q 30.953125 -1.421875 24.3125 -1.421875 
Q 15.921875 -1.421875 10.953125 3.296875 
Q 6 8.015625 6 15.921875 
Q 6 25.140625 12.171875 29.828125 
Q 18.359375 34.515625 30.609375 34.515625 
L 43.21875 34.515625 
L 43.21875 35.40625 
Q 43.21875 41.609375 39.140625 45 
Q 35.0625 48.390625 27.6875 48.390625 
Q 23 48.390625 18.546875 47.265625 
Q 14.109375 46.140625 10.015625 43.890625 
L 10.015625 52.203125 
Q 14.9375 54.109375 19.578125 55.046875 
Q 24.21875 56 28.609375 56 
Q 40.484375 56 46.34375 49.84375 
Q 52.203125 43.703125 52.203125 31.203125 
z
" id="DejaVuSans-61"/>
      <path d="M 18.3125 70.21875 
L 18.3125 54.6875 
L 36.8125 54.6875 
L 36.8125 47.703125 
L 18.3125 47.703125 
L 18.3125 18.015625 
Q 18.3125 11.328125 20.140625 9.421875 
Q 21.96875 7.515625 27.59375 7.515625 
L 36.8125 7.515625 
L 36.8125 0 
L 27.59375 0 
Q 17.1875 0 13.234375 3.875 
Q 9.28125 7.765625 9.28125 18.015625 
L 9.28125 47.703125 
L 2.6875 47.703125 
L 2.6875 54.6875 
L 9.28125 54.6875 
L 9.28125 70.21875 
z
" id="DejaVuSans-74"/>
      <path d="M 9.421875 54.6875 
L 18.40625 54.6875 
L 18.40625 0 
L 9.421875 0 
z
M 9.421875 75.984375 
L 18.40625 75.984375 
L 18.40625 64.59375 
L 9.421875 64.59375 
z
" id="DejaVuSans-69"/>
      <path d="M 30.609375 48.390625 
Q 23.390625 48.390625 19.1875 42.75 
Q 14.984375 37.109375 14.984375 27.296875 
Q 14.984375 17.484375 19.15625 11.84375 
Q 23.34375 6.203125 30.609375 6.203125 
Q 37.796875 6.203125 41.984375 11.859375 
Q 46.1875 17.53125 46.1875 27.296875 
Q 46.1875 37.015625 41.984375 42.703125 
Q 37.796875 48.390625 30.609375 48.390625 
z
M 30.609375 56 
Q 42.328125 56 49.015625 48.375 
Q 55.71875 40.765625 55.71875 27.296875 
Q 55.71875 13.875 49.015625 6.21875 
Q 42.328125 -1.421875 30.609375 -1.421875 
Q 18.84375 -1.421875 12.171875 6.21875 
Q 5.515625 13.875 5.515625 27.296875 
Q 5.515625 40.765625 12.171875 48.375 
Q 18.84375 56 30.609375 56 
z
" id="DejaVuSans-6f"/>
      <path d="M 44.28125 53.078125 
L 44.28125 44.578125 
Q 40.484375 46.53125 36.375 47.5 
Q 32.28125 48.484375 27.875 48.484375 
Q 21.1875 48.484375 17.84375 46.4375 
Q 14.5 44.390625 14.5 40.28125 
Q 14.5 37.15625 16.890625 35.375 
Q 19.28125 33.59375 26.515625 31.984375 
L 29.59375 31.296875 
Q 39.15625 29.25 43.1875 25.515625 
Q 47.21875 21.78125 47.21875 15.09375 
Q 47.21875 7.46875 41.1875 3.015625 
Q 35.15625 -1.421875 24.609375 -1.421875 
Q 20.21875 -1.421875 15.453125 -0.5625 
Q 10.6875 0.296875 5.421875 2 
L 5.421875 11.28125 
Q 10.40625 8.6875 15.234375 7.390625 
Q 20.0625 6.109375 24.8125 6.109375 
Q 31.15625 6.109375 34.5625 8.28125 
Q 37.984375 10.453125 37.984375 14.40625 
Q 37.984375 18.0625 35.515625 20.015625 
Q 33.0625 21.96875 24.703125 23.78125 
L 21.578125 24.515625 
Q 13.234375 26.265625 9.515625 29.90625 
Q 5.8125 33.546875 5.8125 39.890625 
Q 5.8125 47.609375 11.28125 51.796875 
Q 16.75 56 26.8125 56 
Q 31.78125 56 36.171875 55.265625 
Q 40.578125 54.546875 44.28125 53.078125 
z
" id="DejaVuSans-73"/>
     </defs>
     <g transform="translate(190.902344 280.276563)scale(0.1 -0.1)">
      <use xlink:href="#DejaVuSans-47"/>
      <use x="77.490234" xlink:href="#DejaVuSans-65"/>
      <use x="139.013672" xlink:href="#DejaVuSans-6e"/>
      <use x="202.392578" xlink:href="#DejaVuSans-65"/>
      <use x="263.916016" xlink:href="#DejaVuSans-72"/>
      <use x="305.029297" xlink:href="#DejaVuSans-61"/>
      <use x="366.308594" xlink:href="#DejaVuSans-74"/>
      <use x="405.517578" xlink:href="#DejaVuSans-69"/>
      <use x="433.300781" xlink:href="#DejaVuSans-6f"/>
      <use x="494.482422" xlink:href="#DejaVuSans-6e"/>
      <use x="557.861328" xlink:href="#DejaVuSans-73"/>
     </g>
    </g>
   </g>
   <g id="matplotlib.axis_2">
    <g id="ytick_1">
     <g id="line2d_19">
      <path clip-path="url(#p836e0a1ed4)" d="M 54 240.918407 
L 388.8 240.918407 
" style="fill:none;stroke:#b0b0b0;stroke-linecap:square;stroke-width:0.8;"/>
     </g>
     <g id="line2d_20">
      <defs>
       <path d="M 0 0 
L -3.5 0 
" id="mef62f0220e" style="stroke:#000000;stroke-width:0.8;"/>
      </defs>
      <g>
       <use style="stroke:#000000;stroke-width:0.8;" x="54" xlink:href="#mef62f0220e" y="240.918407"/>
      </g>
     </g>
     <g id="text_11">
      <!-- 200 -->
      <g transform="translate(27.9125 244.717626)scale(0.1 -0.1)">
       <use xlink:href="#DejaVuSans-32"/>
       <use x="63.623047" xlink:href="#DejaVuSans-30"/>
       <use x="127.246094" xlink:href="#DejaVuSans-30"/>
      </g>
     </g>
    </g>
    <g id="ytick_2">
     <g id="line2d_21">
      <path clip-path="url(#p836e0a1ed4)" d="M 54 212.183523 
L 388.8 212.183523 
" style="fill:none;stroke:#b0b0b0;stroke-linecap:square;stroke-width:0.8;"/>
     </g>
     <g id="line2d_22">
      <g>
       <use style="stroke:#000000;stroke-width:0.8;" x="54" xlink:href="#mef62f0220e" y="212.183523"/>
      </g>
     </g>
     <g id="text_12">
      <!-- 400 -->
      <defs>
       <path d="M 37.796875 64.3125 
L 12.890625 25.390625 
L 37.796875 25.390625 
z
M 35.203125 72.90625 
L 47.609375 72.90625 
L 47.609375 25.390625 
L 58.015625 25.390625 
L 58.015625 17.1875 
L 47.609375 17.1875 
L 47.609375 0 
L 37.796875 0 
L 37.796875 17.1875 
L 4.890625 17.1875 
L 4.890625 26.703125 
z
" id="DejaVuSans-34"/>
      </defs>
      <g transform="translate(27.9125 215.982741)scale(0.1 -0.1)">
       <use xlink:href="#DejaVuSans-34"/>
       <use x="63.623047" xlink:href="#DejaVuSans-30"/>
       <use x="127.246094" xlink:href="#DejaVuSans-30"/>
      </g>
     </g>
    </g>
    <g id="ytick_3">
     <g id="line2d_23">
      <path clip-path="url(#p836e0a1ed4)" d="M 54 183.448639 
L 388.8 183.448639 
" style="fill:none;stroke:#b0b0b0;stroke-linecap:square;stroke-width:0.8;"/>
     </g>
     <g id="line2d_24">
      <g>
       <use style="stroke:#000000;stroke-width:0.8;" x="54" xlink:href="#mef62f0220e" y="183.448639"/>
      </g>
     </g>
     <g id="text_13">
      <!-- 600 -->
      <defs>
       <path d="M 33.015625 40.375 
Q 26.375 40.375 22.484375 35.828125 
Q 18.609375 31.296875 18.609375 23.390625 
Q 18.609375 15.53125 22.484375 10.953125 
Q 26.375 6.390625 33.015625 6.390625 
Q 39.65625 6.390625 43.53125 10.953125 
Q 47.40625 15.53125 47.40625 23.390625 
Q 47.40625 31.296875 43.53125 35.828125 
Q 39.65625 40.375 33.015625 40.375 
z
M 52.59375 71.296875 
L 52.59375 62.3125 
Q 48.875 64.0625 45.09375 64.984375 
Q 41.3125 65.921875 37.59375 65.921875 
Q 27.828125 65.921875 22.671875 59.328125 
Q 17.53125 52.734375 16.796875 39.40625 
Q 19.671875 43.65625 24.015625 45.921875 
Q 28.375 48.1875 33.59375 48.1875 
Q 44.578125 48.1875 50.953125 41.515625 
Q 57.328125 34.859375 57.328125 23.390625 
Q 57.328125 12.15625 50.6875 5.359375 
Q 44.046875 -1.421875 33.015625 -1.421875 
Q 20.359375 -1.421875 13.671875 8.265625 
Q 6.984375 17.96875 6.984375 36.375 
Q 6.984375 53.65625 15.1875 63.9375 
Q 23.390625 74.21875 37.203125 74.21875 
Q 40.921875 74.21875 44.703125 73.484375 
Q 48.484375 72.75 52.59375 71.296875 
z
" id="DejaVuSans-36"/>
      </defs>
      <g transform="translate(27.9125 187.247857)scale(0.1 -0.1)">
       <use xlink:href="#DejaVuSans-36"/>
       <use x="63.623047" xlink:href="#DejaVuSans-30"/>
       <use x="127.246094" xlink:href="#DejaVuSans-30"/>
      </g>
     </g>
    </g>
    <g id="ytick_4">
     <g id="line2d_25">
      <path clip-path="url(#p836e0a1ed4)" d="M 54 154.713754 
L 388.8 154.713754 
" style="fill:none;stroke:#b0b0b0;stroke-linecap:square;stroke-width:0.8;"/>
     </g>
     <g id="line2d_26">
      <g>
       <use style="stroke:#000000;stroke-width:0.8;" x="54" xlink:href="#mef62f0220e" y="154.713754"/>
      </g>
     </g>
     <g id="text_14">
      <!-- 800 -->
      <defs>
       <path d="M 31.78125 34.625 
Q 24.75 34.625 20.71875 30.859375 
Q 16.703125 27.09375 16.703125 20.515625 
Q 16.703125 13.921875 20.71875 10.15625 
Q 24.75 6.390625 31.78125 6.390625 
Q 38.8125 6.390625 42.859375 10.171875 
Q 46.921875 13.96875 46.921875 20.515625 
Q 46.921875 27.09375 42.890625 30.859375 
Q 38.875 34.625 31.78125 34.625 
z
M 21.921875 38.8125 
Q 15.578125 40.375 12.03125 44.71875 
Q 8.5 49.078125 8.5 55.328125 
Q 8.5 64.0625 14.71875 69.140625 
Q 20.953125 74.21875 31.78125 74.21875 
Q 42.671875 74.21875 48.875 69.140625 
Q 55.078125 64.0625 55.078125 55.328125 
Q 55.078125 49.078125 51.53125 44.71875 
Q 48 40.375 41.703125 38.8125 
Q 48.828125 37.15625 52.796875 32.3125 
Q 56.78125 27.484375 56.78125 20.515625 
Q 56.78125 9.90625 50.3125 4.234375 
Q 43.84375 -1.421875 31.78125 -1.421875 
Q 19.734375 -1.421875 13.25 4.234375 
Q 6.78125 9.90625 6.78125 20.515625 
Q 6.78125 27.484375 10.78125 32.3125 
Q 14.796875 37.15625 21.921875 38.8125 
z
M 18.3125 54.390625 
Q 18.3125 48.734375 21.84375 45.5625 
Q 25.390625 42.390625 31.78125 42.390625 
Q 38.140625 42.390625 41.71875 45.5625 
Q 45.3125 48.734375 45.3125 54.390625 
Q 45.3125 60.0625 41.71875 63.234375 
Q 38.140625 66.40625 31.78125 66.40625 
Q 25.390625 66.40625 21.84375 63.234375 
Q 18.3125 60.0625 18.3125 54.390625 
z
" id="DejaVuSans-38"/>
      </defs>
      <g transform="translate(27.9125 158.512973)scale(0.1 -0.1)">
       <use xlink:href="#DejaVuSans-38"/>
       <use x="63.623047" xlink:href="#DejaVuSans-30"/>
       <use x="127.246094" xlink:href="#DejaVuSans-30"/>
      </g>
     </g>
    </g>
    <g id="ytick_5">
     <g id="line2d_27">
      <path clip-path="url(#p836e0a1ed4)" d="M 54 125.97887 
L 388.8 125.97887 
" style="fill:none;stroke:#b0b0b0;stroke-linecap:square;stroke-width:0.8;"/>
     </g>
     <g id="line2d_28">
      <g>
       <use style="stroke:#000000;stroke-width:0.8;" x="54" xlink:href="#mef62f0220e" y="125.97887"/>
      </g>
     </g>
     <g id="text_15">
      <!-- 1000 -->
      <g transform="translate(21.55 129.778089)scale(0.1 -0.1)">
       <use xlink:href="#DejaVuSans-31"/>
       <use x="63.623047" xlink:href="#DejaVuSans-30"/>
       <use x="127.246094" xlink:href="#DejaVuSans-30"/>
       <use x="190.869141" xlink:href="#DejaVuSans-30"/>
      </g>
     </g>
    </g>
    <g id="ytick_6">
     <g id="line2d_29">
      <path clip-path="url(#p836e0a1ed4)" d="M 54 97.243986 
L 388.8 97.243986 
" style="fill:none;stroke:#b0b0b0;stroke-linecap:square;stroke-width:0.8;"/>
     </g>
     <g id="line2d_30">
      <g>
       <use style="stroke:#000000;stroke-width:0.8;" x="54" xlink:href="#mef62f0220e" y="97.243986"/>
      </g>
     </g>
     <g id="text_16">
      <!-- 1200 -->
      <g transform="translate(21.55 101.043205)scale(0.1 -0.1)">
       <use xlink:href="#DejaVuSans-31"/>
       <use x="63.623047" xlink:href="#DejaVuSans-32"/>
       <use x="127.246094" xlink:href="#DejaVuSans-30"/>
       <use x="190.869141" xlink:href="#DejaVuSans-30"/>
      </g>
     </g>
    </g>
    <g id="ytick_7">
     <g id="line2d_31">
      <path clip-path="url(#p836e0a1ed4)" d="M 54 68.509102 
L 388.8 68.509102 
" style="fill:none;stroke:#b0b0b0;stroke-linecap:square;stroke-width:0.8;"/>
     </g>
     <g id="line2d_32">
      <g>
       <use style="stroke:#000000;stroke-width:0.8;" x="54" xlink:href="#mef62f0220e" y="68.509102"/>
      </g>
     </g>
     <g id="text_17">
      <!-- 1400 -->
      <g transform="translate(21.55 72.308321)scale(0.1 -0.1)">
       <use xlink:href="#DejaVuSans-31"/>
       <use x="63.623047" xlink:href="#DejaVuSans-34"/>
       <use x="127.246094" xlink:href="#DejaVuSans-30"/>
       <use x="190.869141" xlink:href="#DejaVuSans-30"/>
      </g>
     </g>
    </g>
    <g id="ytick_8">
     <g id="line2d_33">
      <path clip-path="url(#p836e0a1ed4)" d="M 54 39.774218 
L 388.8 39.774218 
" style="fill:none;stroke:#b0b0b0;stroke-linecap:square;stroke-width:0.8;"/>
     </g>
     <g id="line2d_34">
      <g>
       <use style="stroke:#000000;stroke-width:0.8;" x="54" xlink:href="#mef62f0220e" y="39.774218"/>
      </g>
     </g>
     <g id="text_18">
      <!-- 1600 -->
      <g transform="translate(21.55 43.573436)scale(0.1 -0.1)">
       <use xlink:href="#DejaVuSans-31"/>
       <use x="63.623047" xlink:href="#DejaVuSans-36"/>
       <use x="127.246094" xlink:href="#DejaVuSans-30"/>
       <use x="190.869141" xlink:href="#DejaVuSans-30"/>
      </g>
     </g>
    </g>
    <g id="text_19">
     <!-- Fitness -->
     <defs>
      <path d="M 9.8125 72.90625 
L 51.703125 72.90625 
L 51.703125 64.59375 
L 19.671875 64.59375 
L 19.671875 43.109375 
L 48.578125 43.109375 
L 48.578125 34.8125 
L 19.671875 34.8125 
L 19.671875 0 
L 9.8125 0 
z
" id="DejaVuSans-46"/>
     </defs>
     <g transform="translate(15.470312 160.954219)rotate(-90)scale(0.1 -0.1)">
      <use xlink:href="#DejaVuSans-46"/>
      <use x="57.410156" xlink:href="#DejaVuSans-69"/>
      <use x="85.193359" xlink:href="#DejaVuSans-74"/>
      <use x="124.402344" xlink:href="#DejaVuSans-6e"/>
      <use x="187.78125" xlink:href="#DejaVuSans-65"/>
      <use x="249.304688" xlink:href="#DejaVuSans-73"/>
      <use x="301.404297" xlink:href="#DejaVuSans-73"/>
     </g>
    </g>
   </g>
   <g id="line2d_35">
    <path clip-path="url(#p836e0a1ed4)" d="M 69.218182 216.51818 
L 70.747647 155.261513 
L 72.277113 158.518971 
L 73.806578 160.216126 
L 75.336044 155.072222 
L 76.865509 157.87531 
L 78.394975 156.341226 
L 79.92444 156.571824 
L 81.453906 157.651537 
L 82.983371 155.938938 
L 84.512837 157.177412 
L 86.042302 156.554583 
L 87.571768 158.948558 
L 89.101233 156.081894 
L 90.630699 156.553146 
L 92.160164 158.898631 
L 93.68963 156.634322 
L 95.219095 158.741667 
L 96.748561 155.670626 
L 98.278026 156.358467 
L 99.807492 156.215152 
L 101.336958 157.777252 
L 102.866423 167.722675 
L 104.395889 173.827156 
L 105.925354 174.676802 
L 107.45482 180.575599 
L 108.984285 181.676194 
L 110.513751 190.924327 
L 112.043216 197.497303 
L 113.572682 199.748951 
L 115.102147 201.524677 
L 116.631613 204.010843 
L 118.161078 213.544976 
L 119.690544 217.055179 
L 121.220009 209.054033 
L 122.749475 220.482317 
L 124.27894 214.829272 
L 125.808406 220.785338 
L 127.337871 208.748213 
L 128.867337 220.519513 
L 130.396802 213.554895 
L 131.926268 217.423329 
L 133.455733 213.330763 
L 134.985199 214.37815 
L 136.514664 212.809943 
L 138.04413 215.511022 
L 139.573595 211.974476 
L 141.103061 214.217953 
L 142.632526 213.615957 
L 144.161992 213.543401 
L 145.691457 212.612391 
L 147.220923 214.490934 
L 148.750388 213.731615 
L 150.279854 212.794139 
L 151.809319 215.220082 
L 153.338785 213.156917 
L 154.86825 216.551944 
L 156.397716 211.511845 
L 157.927181 217.857944 
L 159.456647 211.316448 
L 160.986112 213.86595 
L 162.515578 213.718684 
L 164.045043 214.462917 
L 165.574509 212.774025 
L 167.103974 214.537628 
L 168.63344 213.042696 
L 170.162905 218.998001 
L 171.692371 212.587966 
L 173.221836 213.79555 
L 174.751302 212.551329 
L 176.280767 213.552022 
L 177.810233 212.357369 
L 179.339698 214.85443 
L 180.869164 212.391132 
L 182.39863 213.89253 
L 183.928095 211.202226 
L 185.457561 212.444292 
L 186.987026 212.488113 
L 188.516492 213.85302 
L 190.045957 212.748882 
L 191.575423 215.006725 
L 193.104888 211.445036 
L 194.634354 212.230217 
L 196.163819 211.66845 
L 197.693285 214.900406 
L 199.22275 209.451554 
L 200.752216 216.715732 
L 202.281681 213.550585 
L 203.811147 213.419123 
L 205.340612 211.731667 
L 206.870078 215.677685 
L 208.399543 212.01255 
L 211.458474 213.108786 
L 212.98794 215.361601 
L 214.517405 212.610954 
L 216.046871 214.090801 
L 217.576336 211.939995 
L 219.105802 212.767559 
L 220.635267 211.76974 
L 222.164733 213.469409 
L 223.694198 212.952899 
L 225.223664 215.189192 
L 226.753129 212.662677 
L 228.282595 214.416942 
L 229.81206 214.903998 
L 231.341526 216.129541 
L 232.870991 212.358087 
L 234.400457 212.509664 
L 235.929922 213.651157 
L 237.459388 212.831494 
L 238.988853 212.708653 
L 240.518319 213.61452 
L 242.047784 211.718018 
L 243.57725 215.059166 
L 245.106715 211.722328 
L 246.636181 213.684202 
L 248.165646 211.627503 
L 249.695112 214.145397 
L 251.224577 211.51831 
L 252.754043 216.687716 
L 254.283508 211.63325 
L 255.812974 216.171206 
L 257.342439 213.447139 
L 260.40137 213.726586 
L 261.930836 214.916929 
L 263.460302 215.326401 
L 264.989767 211.448628 
L 266.519233 216.164741 
L 268.048698 213.618112 
L 269.578164 211.516155 
L 271.107629 213.066402 
L 272.637095 211.812124 
L 274.16656 214.502428 
L 275.696026 210.412017 
L 277.225491 213.030483 
L 278.754957 211.903358 
L 280.284422 214.863051 
L 281.813888 212.26398 
L 283.343353 215.358009 
L 284.872819 213.192117 
L 286.402284 214.807018 
L 287.93175 212.330071 
L 289.461215 212.48021 
L 290.990681 210.072945 
L 292.520146 216.846476 
L 294.049612 213.063529 
L 295.579077 215.827824 
L 297.108543 212.195735 
L 298.638008 212.925601 
L 300.167474 211.718736 
L 301.696939 213.706472 
L 303.226405 212.293434 
L 304.75587 215.202122 
L 306.285336 212.246021 
L 307.814801 212.539117 
L 309.344267 213.17775 
L 310.873732 213.116688 
L 312.403198 211.537706 
L 313.932663 211.013295 
L 315.462129 212.644718 
L 316.991594 213.741672 
L 318.52106 212.964393 
L 320.050525 212.75391 
L 321.579991 212.916262 
L 323.109456 212.501043 
L 324.638922 210.991025 
L 326.168387 215.403267 
L 327.697853 212.129645 
L 329.227318 214.455734 
L 330.756784 211.869594 
L 332.286249 213.127464 
L 335.34518 212.129645 
L 336.874646 211.345901 
L 338.404111 213.372429 
L 339.933577 213.116688 
L 341.463042 213.427743 
L 342.992508 214.927704 
L 344.521974 214.080025 
L 346.051439 212.332226 
L 347.580905 212.792702 
L 349.11037 211.388285 
L 350.639836 214.69136 
L 352.169301 212.22878 
L 353.698767 214.909745 
L 355.228232 211.744597 
L 356.757698 214.381741 
L 358.287163 212.129645 
L 359.816629 213.784056 
L 361.346094 212.513256 
L 362.87556 213.88822 
L 364.405025 211.978068 
L 365.934491 214.291945 
L 367.463956 211.956517 
L 368.993422 212.938532 
L 370.522887 217.594301 
L 372.052353 215.423381 
L 373.581818 212.422741 
L 373.581818 212.422741 
" style="fill:none;stroke:#0000ff;stroke-linecap:square;stroke-width:1.5;"/>
   </g>
   <g id="line2d_36">
    <path clip-path="url(#p836e0a1ed4)" d="M 69.218182 230.775328 
L 70.747647 181.387073 
L 72.277113 183.275658 
L 73.806578 188.850498 
L 75.336044 181.996874 
L 76.865509 183.919186 
L 78.394975 184.247724 
L 79.92444 183.891019 
L 81.453906 186.653838 
L 82.983371 183.376649 
L 84.512837 186.603591 
L 86.042302 185.39609 
L 87.571768 188.525979 
L 89.101233 184.688984 
L 90.630699 185.002989 
L 92.160164 187.834826 
L 93.68963 185.378487 
L 95.219095 185.709887 
L 96.748561 183.32146 
L 98.278026 184.617544 
L 99.807492 183.991022 
L 101.336958 186.535201 
L 102.866423 192.45343 
L 104.395889 197.678631 
L 105.925354 198.020715 
L 107.45482 204.200035 
L 108.984285 204.914967 
L 110.513751 211.868313 
L 113.572682 219.689619 
L 115.102147 218.626385 
L 116.631613 223.935807 
L 118.161078 228.829792 
L 119.690544 228.863889 
L 121.220009 223.652036 
L 122.749475 235.176669 
L 124.27894 224.98002 
L 125.808406 242.116364 
L 127.337871 223.25439 
L 128.867337 241.361393 
L 130.396802 225.541486 
L 131.926268 235.417543 
L 133.455733 226.871788 
L 134.985199 228.343483 
L 136.514664 226.547144 
L 138.04413 232.767414 
L 139.573595 223.242366 
L 141.103061 228.102496 
L 142.632526 228.845594 
L 144.161992 228.765672 
L 145.691457 225.743418 
L 147.220923 230.6452 
L 148.750388 226.446645 
L 150.279854 225.378101 
L 151.809319 231.843346 
L 153.338785 224.972706 
L 154.86825 234.762407 
L 156.397716 221.799516 
L 157.927181 236.279552 
L 159.456647 221.119542 
L 160.986112 228.072286 
L 162.515578 227.666401 
L 164.045043 230.27776 
L 165.574509 225.828093 
L 167.103974 230.600565 
L 168.63344 223.990521 
L 170.162905 239.115597 
L 171.692371 223.649301 
L 173.221836 227.801145 
L 174.751302 225.559992 
L 176.280767 227.889277 
L 177.810233 223.482289 
L 179.339698 231.34155 
L 180.869164 223.226028 
L 182.39863 227.643675 
L 183.928095 220.924603 
L 185.457561 225.577202 
L 186.987026 223.834363 
L 188.516492 227.338625 
L 190.045957 227.574604 
L 191.575423 230.127693 
L 193.104888 221.981511 
L 194.634354 223.417552 
L 196.163819 221.942461 
L 197.693285 230.820776 
L 199.22275 217.705569 
L 200.752216 234.884629 
L 202.281681 225.544113 
L 203.811147 226.413944 
L 205.340612 223.347286 
L 206.870078 231.928746 
L 208.399543 222.07386 
L 209.929009 225.544719 
L 211.458474 225.965968 
L 212.98794 232.638407 
L 214.517405 224.240802 
L 216.046871 228.816155 
L 217.576336 223.44043 
L 219.105802 224.724126 
L 220.635267 224.056256 
L 222.164733 226.720049 
L 223.694198 225.512359 
L 225.223664 232.067795 
L 226.753129 224.243024 
L 228.282595 228.982684 
L 229.81206 229.814009 
L 231.341526 234.185622 
L 232.870991 223.641321 
L 234.400457 223.733595 
L 235.929922 228.126727 
L 237.459388 224.930101 
L 238.988853 225.922285 
L 240.518319 227.750501 
L 242.047784 222.188263 
L 243.57725 231.533687 
L 245.106715 221.91896 
L 246.636181 227.954295 
L 248.165646 223.017095 
L 249.695112 228.225873 
L 251.224577 221.51547 
L 252.754043 234.633636 
L 254.283508 223.89497 
L 255.812974 234.043388 
L 257.342439 225.108418 
L 258.871905 226.086821 
L 260.40137 227.383992 
L 261.930836 228.921339 
L 263.460302 231.620425 
L 264.989767 221.750979 
L 266.519233 233.201967 
L 268.048698 228.371066 
L 269.578164 222.131376 
L 271.107629 225.622632 
L 272.637095 222.350716 
L 274.16656 231.154782 
L 275.696026 219.549522 
L 277.225491 225.570541 
L 278.754957 222.409819 
L 280.284422 231.224989 
L 281.813888 224.128012 
L 283.343353 230.306043 
L 284.872819 225.588041 
L 286.402284 229.676284 
L 287.93175 224.867073 
L 289.461215 225.663931 
L 290.990681 219.250071 
L 292.520146 235.085073 
L 294.049612 226.730403 
L 295.579077 233.575246 
L 297.108543 222.872986 
L 298.638008 225.799722 
L 300.167474 221.875561 
L 301.696939 226.813219 
L 303.226405 223.17769 
L 304.75587 230.605025 
L 306.285336 225.574638 
L 307.814801 224.57799 
L 309.344267 227.066581 
L 310.873732 226.658626 
L 312.403198 220.912092 
L 313.932663 220.881375 
L 315.462129 225.513815 
L 316.991594 227.768205 
L 318.52106 225.95049 
L 320.050525 225.042873 
L 321.579991 223.77935 
L 323.109456 223.922724 
L 324.638922 220.564586 
L 326.168387 231.372969 
L 327.697853 223.014716 
L 329.227318 229.918152 
L 330.756784 222.267982 
L 332.286249 226.02374 
L 333.815715 225.85731 
L 335.34518 223.014716 
L 336.874646 221.245359 
L 338.404111 227.120421 
L 339.933577 225.982471 
L 341.463042 226.285921 
L 342.992508 230.326035 
L 344.521974 228.559144 
L 346.051439 223.418339 
L 347.580905 225.218997 
L 349.11037 221.644513 
L 350.639836 231.123874 
L 352.169301 223.584148 
L 353.698767 231.148305 
L 355.228232 224.645263 
L 356.757698 230.75079 
L 358.287163 223.014716 
L 359.816629 228.054617 
L 361.346094 224.013138 
L 362.87556 227.568174 
L 364.405025 223.409637 
L 365.934491 229.112272 
L 367.463956 221.925631 
L 368.993422 228.415969 
L 370.522887 238.550671 
L 373.581818 222.962823 
L 373.581818 222.962823 
" style="fill:none;stroke:#008000;stroke-dasharray:9.6,2.4,1.5,2.4;stroke-dashoffset:0;stroke-width:1.5;"/>
   </g>
   <g id="line2d_37">
    <path clip-path="url(#p836e0a1ed4)" d="M 69.218182 202.261032 
L 70.747647 129.135954 
L 72.277113 133.762285 
L 73.806578 131.581753 
L 75.336044 128.14757 
L 76.865509 131.831434 
L 78.394975 128.434729 
L 79.92444 129.252629 
L 81.453906 128.649236 
L 82.983371 128.501227 
L 84.512837 127.751232 
L 86.042302 127.713076 
L 87.571768 129.371137 
L 89.101233 127.474805 
L 90.630699 128.103303 
L 92.160164 129.962436 
L 93.68963 127.890158 
L 95.219095 131.773446 
L 96.748561 128.019792 
L 98.278026 128.09939 
L 99.807492 128.439282 
L 101.336958 129.019304 
L 102.866423 142.99192 
L 104.395889 149.975681 
L 105.925354 151.332889 
L 107.45482 156.951163 
L 108.984285 158.43742 
L 110.513751 169.98034 
L 112.043216 179.258744 
L 113.572682 179.808282 
L 115.102147 184.422968 
L 116.631613 184.085879 
L 118.161078 198.26016 
L 119.690544 205.246468 
L 121.220009 194.456029 
L 122.749475 205.787965 
L 124.27894 204.678524 
L 127.337871 194.242036 
L 128.867337 199.677633 
L 130.396802 201.568304 
L 131.926268 199.429115 
L 133.455733 199.789738 
L 134.985199 200.412816 
L 136.514664 199.072743 
L 138.04413 198.25463 
L 139.573595 200.706587 
L 141.103061 200.333409 
L 142.632526 198.38632 
L 144.161992 198.32113 
L 145.691457 199.481363 
L 147.220923 198.336667 
L 148.750388 201.016584 
L 150.279854 200.210177 
L 151.809319 198.596817 
L 153.338785 201.341128 
L 154.86825 198.34148 
L 156.397716 201.224174 
L 157.927181 199.436336 
L 159.456647 201.513353 
L 160.986112 199.659615 
L 162.515578 199.770967 
L 164.045043 198.648075 
L 165.574509 199.719956 
L 167.103974 198.474691 
L 168.63344 202.09487 
L 170.162905 198.880404 
L 171.692371 201.526632 
L 173.221836 199.789954 
L 176.280767 199.214766 
L 177.810233 201.232449 
L 179.339698 198.36731 
L 180.869164 201.556237 
L 182.39863 200.141385 
L 183.928095 201.47985 
L 185.457561 199.311381 
L 186.987026 201.141862 
L 188.516492 200.367414 
L 190.045957 197.923159 
L 191.575423 199.885757 
L 193.104888 200.908562 
L 194.634354 201.042881 
L 196.163819 201.394439 
L 197.693285 198.980036 
L 199.22275 201.197538 
L 200.752216 198.546835 
L 202.281681 201.557057 
L 203.811147 200.424302 
L 205.340612 200.116047 
L 206.870078 199.426623 
L 208.399543 201.95124 
L 209.929009 199.658512 
L 211.458474 200.251604 
L 212.98794 198.084795 
L 214.517405 200.981106 
L 216.046871 199.365446 
L 217.576336 200.439559 
L 219.105802 200.810992 
L 220.635267 199.483225 
L 222.164733 200.218769 
L 223.694198 200.393439 
L 225.223664 198.310588 
L 226.753129 201.08233 
L 228.282595 199.851199 
L 229.81206 199.993987 
L 231.341526 198.07346 
L 232.870991 201.074853 
L 234.400457 201.285733 
L 235.929922 199.175586 
L 237.459388 200.732888 
L 238.988853 199.495021 
L 240.518319 199.478539 
L 242.047784 201.247772 
L 243.57725 198.584646 
L 245.106715 201.525696 
L 246.636181 199.414109 
L 248.165646 200.23791 
L 249.695112 200.064921 
L 251.224577 201.521151 
L 252.754043 198.741796 
L 254.283508 199.371529 
L 255.812974 198.299024 
L 257.342439 201.785861 
L 258.871905 201.073255 
L 260.40137 200.06918 
L 261.930836 200.912519 
L 263.460302 199.032376 
L 264.989767 201.146277 
L 266.519233 199.127515 
L 268.048698 198.865158 
L 269.578164 200.900934 
L 271.107629 200.510172 
L 272.637095 201.273533 
L 274.16656 197.850074 
L 275.696026 201.274512 
L 277.225491 200.490426 
L 278.754957 201.396896 
L 280.284422 198.501112 
L 281.813888 200.399949 
L 283.343353 200.409975 
L 284.872819 200.796193 
L 286.402284 199.937751 
L 287.93175 199.793068 
L 289.461215 199.296489 
L 290.990681 200.89582 
L 292.520146 198.607879 
L 294.049612 199.396654 
L 295.579077 198.080402 
L 297.108543 201.518484 
L 298.638008 200.05148 
L 300.167474 201.561911 
L 301.696939 200.599724 
L 303.226405 201.409178 
L 304.75587 199.799219 
L 306.285336 198.917404 
L 307.814801 200.500244 
L 309.344267 199.288918 
L 310.873732 199.57475 
L 312.403198 202.16332 
L 313.932663 201.145215 
L 315.462129 199.775621 
L 316.991594 199.715139 
L 318.52106 199.978296 
L 320.050525 200.464947 
L 321.579991 202.053174 
L 323.109456 201.079362 
L 324.638922 201.417464 
L 326.168387 199.433564 
L 327.697853 201.244574 
L 329.227318 198.993316 
L 330.756784 201.471206 
L 332.286249 200.231188 
L 333.815715 199.509709 
L 335.34518 201.244574 
L 336.874646 201.446443 
L 338.404111 199.624436 
L 339.933577 200.250905 
L 341.463042 200.569565 
L 342.992508 199.529373 
L 344.521974 199.600906 
L 346.051439 201.246112 
L 347.580905 200.366408 
L 349.11037 201.132057 
L 350.639836 198.258845 
L 352.169301 200.873413 
L 353.698767 198.671185 
L 355.228232 198.843932 
L 356.757698 198.012692 
L 358.287163 201.244574 
L 359.816629 199.513495 
L 361.346094 201.013373 
L 362.87556 200.208266 
L 364.405025 200.546499 
L 365.934491 199.471618 
L 367.463956 201.987403 
L 368.993422 197.461094 
L 370.522887 196.637932 
L 372.052353 200.09737 
L 373.581818 201.882658 
L 373.581818 201.882658 
" style="fill:none;stroke:#008000;stroke-dasharray:9.6,2.4,1.5,2.4;stroke-dashoffset:0;stroke-width:1.5;"/>
   </g>
   <g id="line2d_38">
    <path clip-path="url(#p836e0a1ed4)" d="M 69.218182 197.277302 
L 70.747647 52.166136 
L 72.277113 121.704556 
L 73.806578 53.279613 
L 75.336044 45.413439 
L 76.865509 53.279613 
L 78.394975 47.353043 
L 79.92444 56.871474 
L 81.453906 46.383241 
L 82.983371 53.135939 
L 84.512837 44.443636 
L 86.042302 50.657555 
L 87.571768 45.413439 
L 89.101233 50.657555 
L 90.630699 44.587311 
L 92.160164 52.166136 
L 93.68963 47.353043 
L 95.219095 52.166136 
L 96.748561 46.383241 
L 98.278026 52.84859 
L 99.807492 48.322846 
L 101.336958 55.075544 
L 102.866423 73.7173 
L 104.395889 90.311695 
L 105.925354 86.719835 
L 107.45482 97.710928 
L 108.984285 100.728091 
L 110.513751 120.0523 
L 112.043216 133.485859 
L 113.572682 134.99444 
L 116.631613 143.75858 
L 118.161078 180.57515 
L 119.690544 203.922244 
L 121.220009 177.917173 
L 122.749475 203.311627 
L 124.27894 193.146662 
L 125.808406 192.643802 
L 127.337871 158.772557 
L 128.867337 195.373615 
L 130.396802 195.229941 
L 131.926268 194.942592 
L 133.455733 194.080546 
L 134.985199 194.080546 
L 136.514664 194.655243 
L 138.04413 194.655243 
L 139.573595 194.080546 
L 141.103061 194.798918 
L 142.632526 194.942592 
L 144.161992 194.655243 
L 145.691457 194.22422 
L 147.220923 195.229941 
L 148.750388 193.146662 
L 150.279854 194.22422 
L 151.809319 192.859313 
L 153.338785 191.745836 
L 154.86825 194.655243 
L 156.397716 193.936871 
L 157.927181 195.086267 
L 159.456647 194.367895 
L 160.986112 194.367895 
L 162.515578 194.22422 
L 164.045043 194.511569 
L 165.574509 194.080546 
L 167.103974 194.367895 
L 168.63344 193.793197 
L 170.162905 195.229941 
L 171.692371 194.798918 
L 173.221836 194.655243 
L 174.751302 194.942592 
L 176.280767 194.22422 
L 177.810233 194.080546 
L 179.339698 194.22422 
L 180.869164 193.936871 
L 182.39863 194.22422 
L 183.928095 194.080546 
L 185.457561 194.080546 
L 186.987026 194.22422 
L 188.516492 194.22422 
L 190.045957 194.511569 
L 191.575423 194.655243 
L 193.104888 194.367895 
L 194.634354 194.22422 
L 196.163819 194.22422 
L 197.693285 194.367895 
L 199.22275 194.942592 
L 200.752216 194.798918 
L 202.281681 193.936871 
L 203.811147 194.22422 
L 205.340612 194.942592 
L 206.870078 194.798918 
L 208.399543 194.080546 
L 211.458474 194.080546 
L 212.98794 194.22422 
L 214.517405 194.080546 
L 216.046871 194.511569 
L 217.576336 194.367895 
L 219.105802 193.936871 
L 220.635267 194.942592 
L 222.164733 194.080546 
L 223.694198 194.22422 
L 225.223664 194.22422 
L 226.753129 194.511569 
L 228.282595 194.22422 
L 229.81206 194.511569 
L 232.870991 194.798918 
L 234.400457 194.080546 
L 235.929922 194.22422 
L 237.459388 193.936871 
L 238.988853 193.505848 
L 240.518319 193.936871 
L 242.047784 193.793197 
L 243.57725 194.22422 
L 245.106715 194.511569 
L 246.636181 193.936871 
L 248.165646 194.942592 
L 249.695112 194.22422 
L 251.224577 194.367895 
L 252.754043 194.655243 
L 254.283508 195.373615 
L 255.812974 194.655243 
L 258.871905 194.080546 
L 260.40137 194.367895 
L 261.930836 194.367895 
L 263.460302 195.086267 
L 264.989767 194.22422 
L 266.519233 194.655243 
L 268.048698 194.080546 
L 269.578164 193.793197 
L 271.107629 193.936871 
L 272.637095 193.793197 
L 274.16656 194.22422 
L 275.696026 194.798918 
L 277.225491 193.936871 
L 278.754957 193.793197 
L 280.284422 194.511569 
L 281.813888 195.373615 
L 283.343353 194.22422 
L 284.872819 194.080546 
L 286.402284 194.655243 
L 287.93175 194.22422 
L 289.461215 194.367895 
L 290.990681 194.367895 
L 292.520146 194.798918 
L 294.049612 194.080546 
L 295.579077 194.367895 
L 298.638008 193.793197 
L 300.167474 193.936871 
L 301.696939 194.22422 
L 303.226405 193.936871 
L 304.75587 194.511569 
L 306.285336 194.511569 
L 307.814801 194.22422 
L 309.344267 194.511569 
L 310.873732 193.793197 
L 312.403198 194.511569 
L 313.932663 194.080546 
L 315.462129 194.080546 
L 316.991594 193.936871 
L 318.52106 193.936871 
L 320.050525 193.793197 
L 321.579991 193.793197 
L 323.109456 194.080546 
L 324.638922 194.22422 
L 326.168387 194.655243 
L 327.697853 193.649522 
L 329.227318 194.22422 
L 330.756784 193.936871 
L 332.286249 194.080546 
L 333.815715 193.936871 
L 335.34518 193.649522 
L 336.874646 194.511569 
L 339.933577 193.936871 
L 341.463042 194.080546 
L 342.992508 194.511569 
L 344.521974 194.080546 
L 346.051439 193.793197 
L 347.580905 194.080546 
L 349.11037 195.086267 
L 350.639836 194.511569 
L 352.169301 194.367895 
L 353.698767 194.367895 
L 356.757698 194.655243 
L 358.287163 193.649522 
L 359.816629 194.367895 
L 361.346094 194.22422 
L 362.87556 194.367895 
L 364.405025 194.080546 
L 365.934491 194.22422 
L 367.463956 194.798918 
L 368.993422 167.680371 
L 370.522887 187.651115 
L 372.052353 194.798918 
L 373.581818 193.900953 
L 373.581818 193.900953 
" style="fill:none;stroke:#ff0000;stroke-linecap:square;stroke-width:1.5;"/>
   </g>
   <g id="patch_3">
    <path d="M 54 252 
L 54 34.56 
" style="fill:none;stroke:#000000;stroke-linecap:square;stroke-linejoin:miter;stroke-width:0.8;"/>
   </g>
   <g id="patch_4">
    <path d="M 388.8 252 
L 388.8 34.56 
" style="fill:none;stroke:#000000;stroke-linecap:square;stroke-linejoin:miter;stroke-width:0.8;"/>
   </g>
   <g id="patch_5">
    <path d="M 54 252 
L 388.8 252 
" style="fill:none;stroke:#000000;stroke-linecap:square;stroke-linejoin:miter;stroke-width:0.8;"/>
   </g>
   <g id="patch_6">
    <path d="M 54 34.56 
L 388.8 34.56 
" style="fill:none;stroke:#000000;stroke-linecap:square;stroke-linejoin:miter;stroke-width:0.8;"/>
   </g>
   <g id="text_20">
    <!-- Population's average and best fitness -->
    <defs>
     <path d="M 19.671875 64.796875 
L 19.671875 37.40625 
L 32.078125 37.40625 
Q 38.96875 37.40625 42.71875 40.96875 
Q 46.484375 44.53125 46.484375 51.125 
Q 46.484375 57.671875 42.71875 61.234375 
Q 38.96875 64.796875 32.078125 64.796875 
z
M 9.8125 72.90625 
L 32.078125 72.90625 
Q 44.34375 72.90625 50.609375 67.359375 
Q 56.890625 61.8125 56.890625 51.125 
Q 56.890625 40.328125 50.609375 34.8125 
Q 44.34375 29.296875 32.078125 29.296875 
L 19.671875 29.296875 
L 19.671875 0 
L 9.8125 0 
z
" id="DejaVuSans-50"/>
     <path d="M 18.109375 8.203125 
L 18.109375 -20.796875 
L 9.078125 -20.796875 
L 9.078125 54.6875 
L 18.109375 54.6875 
L 18.109375 46.390625 
Q 20.953125 51.265625 25.265625 53.625 
Q 29.59375 56 35.59375 56 
Q 45.5625 56 51.78125 48.09375 
Q 58.015625 40.1875 58.015625 27.296875 
Q 58.015625 14.40625 51.78125 6.484375 
Q 45.5625 -1.421875 35.59375 -1.421875 
Q 29.59375 -1.421875 25.265625 0.953125 
Q 20.953125 3.328125 18.109375 8.203125 
z
M 48.6875 27.296875 
Q 48.6875 37.203125 44.609375 42.84375 
Q 40.53125 48.484375 33.40625 48.484375 
Q 26.265625 48.484375 22.1875 42.84375 
Q 18.109375 37.203125 18.109375 27.296875 
Q 18.109375 17.390625 22.1875 11.75 
Q 26.265625 6.109375 33.40625 6.109375 
Q 40.53125 6.109375 44.609375 11.75 
Q 48.6875 17.390625 48.6875 27.296875 
z
" id="DejaVuSans-70"/>
     <path d="M 8.5 21.578125 
L 8.5 54.6875 
L 17.484375 54.6875 
L 17.484375 21.921875 
Q 17.484375 14.15625 20.5 10.265625 
Q 23.53125 6.390625 29.59375 6.390625 
Q 36.859375 6.390625 41.078125 11.03125 
Q 45.3125 15.671875 45.3125 23.6875 
L 45.3125 54.6875 
L 54.296875 54.6875 
L 54.296875 0 
L 45.3125 0 
L 45.3125 8.40625 
Q 42.046875 3.421875 37.71875 1 
Q 33.40625 -1.421875 27.6875 -1.421875 
Q 18.265625 -1.421875 13.375 4.4375 
Q 8.5 10.296875 8.5 21.578125 
z
M 31.109375 56 
z
" id="DejaVuSans-75"/>
     <path d="M 9.421875 75.984375 
L 18.40625 75.984375 
L 18.40625 0 
L 9.421875 0 
z
" id="DejaVuSans-6c"/>
     <path d="M 17.921875 72.90625 
L 17.921875 45.796875 
L 9.625 45.796875 
L 9.625 72.90625 
z
" id="DejaVuSans-27"/>
     <path id="DejaVuSans-20"/>
     <path d="M 2.984375 54.6875 
L 12.5 54.6875 
L 29.59375 8.796875 
L 46.6875 54.6875 
L 56.203125 54.6875 
L 35.6875 0 
L 23.484375 0 
z
" id="DejaVuSans-76"/>
     <path d="M 45.40625 27.984375 
Q 45.40625 37.75 41.375 43.109375 
Q 37.359375 48.484375 30.078125 48.484375 
Q 22.859375 48.484375 18.828125 43.109375 
Q 14.796875 37.75 14.796875 27.984375 
Q 14.796875 18.265625 18.828125 12.890625 
Q 22.859375 7.515625 30.078125 7.515625 
Q 37.359375 7.515625 41.375 12.890625 
Q 45.40625 18.265625 45.40625 27.984375 
z
M 54.390625 6.78125 
Q 54.390625 -7.171875 48.1875 -13.984375 
Q 42 -20.796875 29.203125 -20.796875 
Q 24.46875 -20.796875 20.265625 -20.09375 
Q 16.0625 -19.390625 12.109375 -17.921875 
L 12.109375 -9.1875 
Q 16.0625 -11.328125 19.921875 -12.34375 
Q 23.78125 -13.375 27.78125 -13.375 
Q 36.625 -13.375 41.015625 -8.765625 
Q 45.40625 -4.15625 45.40625 5.171875 
L 45.40625 9.625 
Q 42.625 4.78125 38.28125 2.390625 
Q 33.9375 0 27.875 0 
Q 17.828125 0 11.671875 7.65625 
Q 5.515625 15.328125 5.515625 27.984375 
Q 5.515625 40.671875 11.671875 48.328125 
Q 17.828125 56 27.875 56 
Q 33.9375 56 38.28125 53.609375 
Q 42.625 51.21875 45.40625 46.390625 
L 45.40625 54.6875 
L 54.390625 54.6875 
z
" id="DejaVuSans-67"/>
     <path d="M 45.40625 46.390625 
L 45.40625 75.984375 
L 54.390625 75.984375 
L 54.390625 0 
L 45.40625 0 
L 45.40625 8.203125 
Q 42.578125 3.328125 38.25 0.953125 
Q 33.9375 -1.421875 27.875 -1.421875 
Q 17.96875 -1.421875 11.734375 6.484375 
Q 5.515625 14.40625 5.515625 27.296875 
Q 5.515625 40.1875 11.734375 48.09375 
Q 17.96875 56 27.875 56 
Q 33.9375 56 38.25 53.625 
Q 42.578125 51.265625 45.40625 46.390625 
z
M 14.796875 27.296875 
Q 14.796875 17.390625 18.875 11.75 
Q 22.953125 6.109375 30.078125 6.109375 
Q 37.203125 6.109375 41.296875 11.75 
Q 45.40625 17.390625 45.40625 27.296875 
Q 45.40625 37.203125 41.296875 42.84375 
Q 37.203125 48.484375 30.078125 48.484375 
Q 22.953125 48.484375 18.875 42.84375 
Q 14.796875 37.203125 14.796875 27.296875 
z
" id="DejaVuSans-64"/>
     <path d="M 48.6875 27.296875 
Q 48.6875 37.203125 44.609375 42.84375 
Q 40.53125 48.484375 33.40625 48.484375 
Q 26.265625 48.484375 22.1875 42.84375 
Q 18.109375 37.203125 18.109375 27.296875 
Q 18.109375 17.390625 22.1875 11.75 
Q 26.265625 6.109375 33.40625 6.109375 
Q 40.53125 6.109375 44.609375 11.75 
Q 48.6875 17.390625 48.6875 27.296875 
z
M 18.109375 46.390625 
Q 20.953125 51.265625 25.265625 53.625 
Q 29.59375 56 35.59375 56 
Q 45.5625 56 51.78125 48.09375 
Q 58.015625 40.1875 58.015625 27.296875 
Q 58.015625 14.40625 51.78125 6.484375 
Q 45.5625 -1.421875 35.59375 -1.421875 
Q 29.59375 -1.421875 25.265625 0.953125 
Q 20.953125 3.328125 18.109375 8.203125 
L 18.109375 0 
L 9.078125 0 
L 9.078125 75.984375 
L 18.109375 75.984375 
z
" id="DejaVuSans-62"/>
     <path d="M 37.109375 75.984375 
L 37.109375 68.5 
L 28.515625 68.5 
Q 23.6875 68.5 21.796875 66.546875 
Q 19.921875 64.59375 19.921875 59.515625 
L 19.921875 54.6875 
L 34.71875 54.6875 
L 34.71875 47.703125 
L 19.921875 47.703125 
L 19.921875 0 
L 10.890625 0 
L 10.890625 47.703125 
L 2.296875 47.703125 
L 2.296875 54.6875 
L 10.890625 54.6875 
L 10.890625 58.5 
Q 10.890625 67.625 15.140625 71.796875 
Q 19.390625 75.984375 28.609375 75.984375 
z
" id="DejaVuSans-66"/>
    </defs>
    <g transform="translate(108.555 28.56)scale(0.12 -0.12)">
     <use xlink:href="#DejaVuSans-50"/>
     <use x="60.255859" xlink:href="#DejaVuSans-6f"/>
     <use x="121.4375" xlink:href="#DejaVuSans-70"/>
     <use x="184.914062" xlink:href="#DejaVuSans-75"/>
     <use x="248.292969" xlink:href="#DejaVuSans-6c"/>
     <use x="276.076172" xlink:href="#DejaVuSans-61"/>
     <use x="337.355469" xlink:href="#DejaVuSans-74"/>
     <use x="376.564453" xlink:href="#DejaVuSans-69"/>
     <use x="404.347656" xlink:href="#DejaVuSans-6f"/>
     <use x="465.529297" xlink:href="#DejaVuSans-6e"/>
     <use x="528.908203" xlink:href="#DejaVuSans-27"/>
     <use x="556.398438" xlink:href="#DejaVuSans-73"/>
     <use x="608.498047" xlink:href="#DejaVuSans-20"/>
     <use x="640.285156" xlink:href="#DejaVuSans-61"/>
     <use x="701.564453" xlink:href="#DejaVuSans-76"/>
     <use x="760.744141" xlink:href="#DejaVuSans-65"/>
     <use x="822.267578" xlink:href="#DejaVuSans-72"/>
     <use x="863.380859" xlink:href="#DejaVuSans-61"/>
     <use x="924.660156" xlink:href="#DejaVuSans-67"/>
     <use x="988.136719" xlink:href="#DejaVuSans-65"/>
     <use x="1049.660156" xlink:href="#DejaVuSans-20"/>
     <use x="1081.447266" xlink:href="#DejaVuSans-61"/>
     <use x="1142.726562" xlink:href="#DejaVuSans-6e"/>
     <use x="1206.105469" xlink:href="#DejaVuSans-64"/>
     <use x="1269.582031" xlink:href="#DejaVuSans-20"/>
     <use x="1301.369141" xlink:href="#DejaVuSans-62"/>
     <use x="1364.845703" xlink:href="#DejaVuSans-65"/>
     <use x="1426.369141" xlink:href="#DejaVuSans-73"/>
     <use x="1478.46875" xlink:href="#DejaVuSans-74"/>
     <use x="1517.677734" xlink:href="#DejaVuSans-20"/>
     <use x="1549.464844" xlink:href="#DejaVuSans-66"/>
     <use x="1584.669922" xlink:href="#DejaVuSans-69"/>
     <use x="1612.453125" xlink:href="#DejaVuSans-74"/>
     <use x="1651.662109" xlink:href="#DejaVuSans-6e"/>
     <use x="1715.041016" xlink:href="#DejaVuSans-65"/>
     <use x="1776.564453" xlink:href="#DejaVuSans-73"/>
     <use x="1828.664062" xlink:href="#DejaVuSans-73"/>
    </g>
   </g>
   <g id="legend_1">
    <g id="patch_7">
     <path d="M 308.859375 101.2725 
L 381.8 101.2725 
Q 383.8 101.2725 383.8 99.2725 
L 383.8 41.56 
Q 383.8 39.56 381.8 39.56 
L 308.859375 39.56 
Q 306.859375 39.56 306.859375 41.56 
L 306.859375 99.2725 
Q 306.859375 101.2725 308.859375 101.2725 
z
" style="fill:#ffffff;opacity:0.8;stroke:#cccccc;stroke-linejoin:miter;"/>
    </g>
    <g id="line2d_39">
     <path d="M 310.859375 47.658437 
L 330.859375 47.658437 
" style="fill:none;stroke:#0000ff;stroke-linecap:square;stroke-width:1.5;"/>
    </g>
    <g id="line2d_40"/>
    <g id="text_21">
     <!-- average -->
     <g transform="translate(338.859375 51.158437)scale(0.1 -0.1)">
      <use xlink:href="#DejaVuSans-61"/>
      <use x="61.279297" xlink:href="#DejaVuSans-76"/>
      <use x="120.458984" xlink:href="#DejaVuSans-65"/>
      <use x="181.982422" xlink:href="#DejaVuSans-72"/>
      <use x="223.095703" xlink:href="#DejaVuSans-61"/>
      <use x="284.375" xlink:href="#DejaVuSans-67"/>
      <use x="347.851562" xlink:href="#DejaVuSans-65"/>
     </g>
    </g>
    <g id="line2d_41">
     <path d="M 310.859375 62.336562 
L 330.859375 62.336562 
" style="fill:none;stroke:#008000;stroke-dasharray:9.6,2.4,1.5,2.4;stroke-dashoffset:0;stroke-width:1.5;"/>
    </g>
    <g id="line2d_42"/>
    <g id="text_22">
     <!-- -1 sd -->
     <defs>
      <path d="M 4.890625 31.390625 
L 31.203125 31.390625 
L 31.203125 23.390625 
L 4.890625 23.390625 
z
" id="DejaVuSans-2d"/>
     </defs>
     <g transform="translate(338.859375 65.836562)scale(0.1 -0.1)">
      <use xlink:href="#DejaVuSans-2d"/>
      <use x="36.083984" xlink:href="#DejaVuSans-31"/>
      <use x="99.707031" xlink:href="#DejaVuSans-20"/>
      <use x="131.494141" xlink:href="#DejaVuSans-73"/>
      <use x="183.59375" xlink:href="#DejaVuSans-64"/>
     </g>
    </g>
    <g id="line2d_43">
     <path d="M 310.859375 77.014687 
L 330.859375 77.014687 
" style="fill:none;stroke:#008000;stroke-dasharray:9.6,2.4,1.5,2.4;stroke-dashoffset:0;stroke-width:1.5;"/>
    </g>
    <g id="line2d_44"/>
    <g id="text_23">
     <!-- +1 sd -->
     <defs>
      <path d="M 46 62.703125 
L 46 35.5 
L 73.1875 35.5 
L 73.1875 27.203125 
L 46 27.203125 
L 46 0 
L 37.796875 0 
L 37.796875 27.203125 
L 10.59375 27.203125 
L 10.59375 35.5 
L 37.796875 35.5 
L 37.796875 62.703125 
z
" id="DejaVuSans-2b"/>
     </defs>
     <g transform="translate(338.859375 80.514687)scale(0.1 -0.1)">
      <use xlink:href="#DejaVuSans-2b"/>
      <use x="83.789062" xlink:href="#DejaVuSans-31"/>
      <use x="147.412109" xlink:href="#DejaVuSans-20"/>
      <use x="179.199219" xlink:href="#DejaVuSans-73"/>
      <use x="231.298828" xlink:href="#DejaVuSans-64"/>
     </g>
    </g>
    <g id="line2d_45">
     <path d="M 310.859375 91.692813 
L 330.859375 91.692813 
" style="fill:none;stroke:#ff0000;stroke-linecap:square;stroke-width:1.5;"/>
    </g>
    <g id="line2d_46"/>
    <g id="text_24">
     <!-- best -->
     <g transform="translate(338.859375 95.192813)scale(0.1 -0.1)">
      <use xlink:href="#DejaVuSans-62"/>
      <use x="63.476562" xlink:href="#DejaVuSans-65"/>
      <use x="125" xlink:href="#DejaVuSans-73"/>
      <use x="177.099609" xlink:href="#DejaVuSans-74"/>
     </g>
    </g>
   </g>
  </g>
 </g>
 <defs>
  <clipPath id="p836e0a1ed4">
   <rect height="217.44" width="334.8" x="54" y="34.56"/>
  </clipPath>
 </defs>
</svg>
