<?xml version="1.0" encoding="UTF-8" standalone="no"?>
<!DOCTYPE svg PUBLIC "-//W3C//DTD SVG 1.1//EN"
 "http://www.w3.org/Graphics/SVG/1.1/DTD/svg11.dtd">
<!-- Generated by graphviz version 2.38.0 (20140413.2041)
 -->
<!-- Title: %3 Pages: 1 -->
<svg width="527pt" height="217pt"
 viewBox="0.00 0.00 527.02 216.79" xmlns="http://www.w3.org/2000/svg" xmlns:xlink="http://www.w3.org/1999/xlink">
<g id="graph0" class="graph" transform="scale(1 1) rotate(0) translate(4 212.794)">
<title>%3</title>
<polygon fill="white" stroke="none" points="-4,4 -4,-212.794 523.02,-212.794 523.02,4 -4,4"/>
<!-- In &#45;2 -->
<g id="node1" class="node"><title>In &#45;2</title>
<polygon fill="lightgray" stroke="black" points="265.474,-208.794 231.474,-208.794 231.474,-190.794 265.474,-190.794 265.474,-208.794"/>
<text text-anchor="middle" x="248.474" y="-197.594" font-family="Times New Roman,serif" font-size="9.00">In &#45;2</text>
</g>
<!-- Cooperate -->
<g id="node4" class="node"><title>Cooperate</title>
<ellipse fill="lightblue" stroke="black" cx="216.474" cy="-38.1838" rx="38.3684" ry="38.3684"/>
<text text-anchor="middle" x="216.474" y="-35.9838" font-family="Times New Roman,serif" font-size="9.00">Cooperate</text>
</g>
<!-- In &#45;2&#45;&gt;Cooperate -->
<g id="edge31" class="edge"><title>In &#45;2&#45;&gt;Cooperate</title>
<path fill="none" stroke="green" stroke-width="0.172758" d="M231.283,-194.913C189.224,-185.339 84.2136,-160.926 79.4738,-154.794 46.8412,-112.577 119.368,-75.0529 170.834,-54.8711"/>
<polygon fill="green" stroke="green" stroke-width="0.172758" points="172.393,-58.0227 180.489,-51.1886 169.898,-51.4823 172.393,-58.0227"/>
</g>
<!-- Defect -->
<g id="node5" class="node"><title>Defect</title>
<ellipse fill="lightblue" stroke="black" cx="301.474" cy="-38.1838" rx="28.9828" ry="28.9828"/>
<text text-anchor="middle" x="301.474" y="-35.9838" font-family="Times New Roman,serif" font-size="9.00">Defect</text>
</g>
<!-- In &#45;2&#45;&gt;Defect -->
<g id="edge32" class="edge"><title>In &#45;2&#45;&gt;Defect</title>
<path fill="none" stroke="green" stroke-width="0.3" d="M265.519,-195.464C311.318,-186.437 433.965,-161.717 439.474,-154.794 474.853,-110.338 390.403,-70.7231 338.464,-51.4905"/>
<polygon fill="green" stroke="green" stroke-width="0.3" points="339.462,-48.1298 328.868,-48.03 337.088,-54.7148 339.462,-48.1298"/>
</g>
<!-- 230 -->
<g id="node6" class="node"><title>230</title>
<ellipse fill="white" stroke="black" cx="109.474" cy="-133.581" rx="21.4286" ry="21.4286"/>
<text text-anchor="middle" x="109.474" y="-131.381" font-family="Times New Roman,serif" font-size="9.00">230</text>
</g>
<!-- In &#45;2&#45;&gt;230 -->
<g id="edge1" class="edge"><title>In &#45;2&#45;&gt;230</title>
<path fill="none" stroke="red" stroke-width="0.178012" d="M231.362,-193.14C209.469,-185.627 170.653,-171.356 139.474,-154.794 137.949,-153.984 136.405,-153.114 134.864,-152.208"/>
<polygon fill="red" stroke="red" stroke-width="0.178012" points="136.551,-149.134 126.224,-146.764 132.819,-155.056 136.551,-149.134"/>
</g>
<!-- 231 -->
<g id="node7" class="node"><title>231</title>
<ellipse fill="white" stroke="black" cx="169.474" cy="-133.581" rx="21.4286" ry="21.4286"/>
<text text-anchor="middle" x="169.474" y="-131.381" font-family="Times New Roman,serif" font-size="9.00">231</text>
</g>
<!-- In &#45;2&#45;&gt;231 -->
<g id="edge2" class="edge"><title>In &#45;2&#45;&gt;231</title>
<path fill="none" stroke="green" stroke-width="0.3" d="M238.468,-190.661C227.258,-181.549 208.685,-166.452 193.631,-154.216"/>
<polygon fill="green" stroke="green" stroke-width="0.3" points="195.667,-151.361 185.699,-147.769 191.251,-156.792 195.667,-151.361"/>
</g>
<!-- 232 -->
<g id="node8" class="node"><title>232</title>
<ellipse fill="white" stroke="black" cx="229.474" cy="-133.581" rx="21.4286" ry="21.4286"/>
<text text-anchor="middle" x="229.474" y="-131.381" font-family="Times New Roman,serif" font-size="9.00">232</text>
</g>
<!-- In &#45;2&#45;&gt;232 -->
<g id="edge3" class="edge"><title>In &#45;2&#45;&gt;232</title>
<path fill="none" stroke="green" stroke-width="0.226623" d="M246.067,-190.661C244.066,-183.899 241.09,-173.839 238.208,-164.099"/>
<polygon fill="green" stroke="green" stroke-width="0.226623" points="241.477,-162.812 235.284,-154.216 234.765,-164.798 241.477,-162.812"/>
</g>
<!-- 233 -->
<g id="node9" class="node"><title>233</title>
<ellipse fill="white" stroke="black" cx="289.474" cy="-133.581" rx="21.4286" ry="21.4286"/>
<text text-anchor="middle" x="289.474" y="-131.381" font-family="Times New Roman,serif" font-size="9.00">233</text>
</g>
<!-- In &#45;2&#45;&gt;233 -->
<g id="edge4" class="edge"><title>In &#45;2&#45;&gt;233</title>
<path fill="none" stroke="green" stroke-width="0.3" d="M253.667,-190.661C258.515,-183.068 266.017,-171.318 272.904,-160.532"/>
<polygon fill="green" stroke="green" stroke-width="0.3" points="276.041,-162.122 278.473,-151.81 270.142,-158.355 276.041,-162.122"/>
</g>
<!-- 234 -->
<g id="node10" class="node"><title>234</title>
<ellipse fill="white" stroke="black" cx="349.474" cy="-133.581" rx="21.4286" ry="21.4286"/>
<text text-anchor="middle" x="349.474" y="-131.381" font-family="Times New Roman,serif" font-size="9.00">234</text>
</g>
<!-- In &#45;2&#45;&gt;234 -->
<g id="edge5" class="edge"><title>In &#45;2&#45;&gt;234</title>
<path fill="none" stroke="red" stroke-width="0.212301" d="M261.917,-190.673C276.267,-181.955 299.623,-167.626 319.474,-154.794 320.924,-153.856 322.409,-152.887 323.905,-151.903"/>
<polygon fill="red" stroke="red" stroke-width="0.212301" points="326.03,-154.693 332.415,-146.238 322.151,-148.866 326.03,-154.693"/>
</g>
<!-- 235 -->
<g id="node11" class="node"><title>235</title>
<ellipse fill="white" stroke="black" cx="409.474" cy="-133.581" rx="21.4286" ry="21.4286"/>
<text text-anchor="middle" x="409.474" y="-131.381" font-family="Times New Roman,serif" font-size="9.00">235</text>
</g>
<!-- In &#45;2&#45;&gt;235 -->
<g id="edge6" class="edge"><title>In &#45;2&#45;&gt;235</title>
<path fill="none" stroke="red" stroke-width="0.3" d="M265.59,-194.626C291.171,-188.05 340.533,-174.013 379.474,-154.794 381.023,-154.03 382.585,-153.196 384.14,-152.317"/>
<polygon fill="red" stroke="red" stroke-width="0.3" points="386.154,-155.187 392.82,-146.953 382.474,-149.233 386.154,-155.187"/>
</g>
<!-- In &#160;&#45;1 -->
<g id="node2" class="node"><title>In &#160;&#45;1</title>
<polygon fill="lightgray" stroke="black" points="200.474,-208.794 164.474,-208.794 164.474,-190.794 200.474,-190.794 200.474,-208.794"/>
<text text-anchor="middle" x="182.474" y="-197.594" font-family="Times New Roman,serif" font-size="9.00">In &#160;&#45;1</text>
</g>
<!-- In &#160;&#45;1&#45;&gt;Cooperate -->
<g id="edge33" class="edge"><title>In &#160;&#45;1&#45;&gt;Cooperate</title>
<path fill="none" stroke="green" stroke-width="0.172523" d="M164.191,-196.962C123.528,-192.471 27.6642,-179.441 8.47382,-154.794 -3.11041,-139.916 -2.42449,-127.755 8.47382,-112.368 44.4154,-61.6203 118.496,-45.8087 167.841,-41.0294"/>
<polygon fill="green" stroke="green" stroke-width="0.172523" points="168.305,-44.5027 177.973,-40.1685 167.712,-37.5279 168.305,-44.5027"/>
</g>
<!-- In &#160;&#45;1&#45;&gt;Defect -->
<g id="edge34" class="edge"><title>In &#160;&#45;1&#45;&gt;Defect</title>
<path fill="none" stroke="red" stroke-width="0.146364" d="M164.109,-196.956C139.943,-193.441 98.3303,-183.354 79.4738,-154.794 69.0844,-139.058 67.4887,-126.925 79.4738,-112.368 132.438,-48.0369 189.712,-115.133 263.474,-76.3675 267.743,-74.1239 271.852,-71.2471 275.689,-68.0892"/>
<polygon fill="red" stroke="red" stroke-width="0.146364" points="278.092,-70.6357 283.147,-61.3248 273.389,-65.4508 278.092,-70.6357"/>
</g>
<!-- In &#160;&#45;1&#45;&gt;230 -->
<g id="edge7" class="edge"><title>In &#160;&#45;1&#45;&gt;230</title>
<path fill="none" stroke="green" stroke-width="0.130192" d="M173.228,-190.661C163.094,-181.747 146.446,-167.103 132.704,-155.015"/>
<polygon fill="green" stroke="green" stroke-width="0.130192" points="134.84,-152.232 125.019,-148.255 130.216,-157.488 134.84,-152.232"/>
</g>
<!-- In &#160;&#45;1&#45;&gt;231 -->
<g id="edge8" class="edge"><title>In &#160;&#45;1&#45;&gt;231</title>
<path fill="none" stroke="red" stroke-width="0.3" d="M180.827,-190.661C179.468,-183.949 177.452,-173.988 175.494,-164.315"/>
<polygon fill="red" stroke="red" stroke-width="0.3" points="178.919,-163.595 173.504,-154.489 172.058,-164.984 178.919,-163.595"/>
</g>
<!-- In &#160;&#45;1&#45;&gt;232 -->
<g id="edge9" class="edge"><title>In &#160;&#45;1&#45;&gt;232</title>
<path fill="none" stroke="red" stroke-width="0.3" d="M188.426,-190.661C194.174,-182.809 203.175,-170.511 211.286,-159.43"/>
<polygon fill="red" stroke="red" stroke-width="0.3" points="214.164,-161.424 217.246,-151.287 208.515,-157.289 214.164,-161.424"/>
</g>
<!-- In &#160;&#45;1&#45;&gt;233 -->
<g id="edge10" class="edge"><title>In &#160;&#45;1&#45;&gt;233</title>
<path fill="none" stroke="green" stroke-width="0.3" d="M197.426,-190.678C213.081,-182.082 238.289,-167.959 259.474,-154.794 260.941,-153.882 262.439,-152.933 263.944,-151.966"/>
<polygon fill="green" stroke="green" stroke-width="0.3" points="266.054,-154.767 272.483,-146.346 262.205,-148.92 266.054,-154.767"/>
</g>
<!-- In &#160;&#45;1&#45;&gt;234 -->
<g id="edge11" class="edge"><title>In &#160;&#45;1&#45;&gt;234</title>
<path fill="none" stroke="red" stroke-width="0.3" d="M200.832,-194.654C227.724,-188.204 279.02,-174.427 319.474,-154.794 321.028,-154.04 322.594,-153.215 324.152,-152.342"/>
<polygon fill="red" stroke="red" stroke-width="0.3" points="326.158,-155.217 332.841,-146.995 322.49,-149.255 326.158,-155.217"/>
</g>
<!-- In &#160;&#45;1&#45;&gt;235 -->
<g id="edge12" class="edge"><title>In &#160;&#45;1&#45;&gt;235</title>
<path fill="none" stroke="red" stroke-width="0.118767" d="M200.517,-195.164C246.006,-185.954 362.936,-161.91 379.474,-154.794 381.06,-154.111 382.652,-153.342 384.23,-152.513"/>
<polygon fill="red" stroke="red" stroke-width="0.118767" points="386.185,-155.422 392.976,-147.29 382.596,-149.412 386.185,-155.422"/>
</g>
<!-- In 0 -->
<g id="node3" class="node"><title>In 0</title>
<polygon fill="lightgray" stroke="black" points="334.974,-208.794 303.974,-208.794 303.974,-190.794 334.974,-190.794 334.974,-208.794"/>
<text text-anchor="middle" x="319.474" y="-197.594" font-family="Times New Roman,serif" font-size="9.00">In 0</text>
</g>
<!-- In 0&#45;&gt;Cooperate -->
<g id="edge35" class="edge"><title>In 0&#45;&gt;Cooperate</title>
<path fill="none" stroke="green" stroke-width="0.107511" d="M335.32,-198.369C362.067,-196.693 415.587,-188.995 439.474,-154.794 450.271,-139.335 451.397,-126.976 439.474,-112.368 388.99,-50.5121 335.862,-110.053 263.474,-76.3675 259.863,-74.6871 256.281,-72.6778 252.8,-70.4755"/>
<polygon fill="green" stroke="green" stroke-width="0.107511" points="254.615,-67.4762 244.396,-64.6812 250.642,-73.2391 254.615,-67.4762"/>
</g>
<!-- In 0&#45;&gt;Defect -->
<g id="edge36" class="edge"><title>In 0&#45;&gt;Defect</title>
<path fill="none" stroke="green" stroke-width="0.28187" d="M335.075,-197.629C376.66,-194.168 488.49,-182.418 510.474,-154.794 522.216,-140.04 521.384,-127.747 510.474,-112.368 471.929,-58.0312 389.805,-43.723 340.759,-40.1495"/>
<polygon fill="green" stroke="green" stroke-width="0.28187" points="340.722,-36.6408 330.528,-39.5246 340.296,-43.6278 340.722,-36.6408"/>
</g>
<!-- In 0&#45;&gt;230 -->
<g id="edge13" class="edge"><title>In 0&#45;&gt;230</title>
<path fill="none" stroke="green" stroke-width="0.143839" d="M303.925,-195.728C265.967,-188.125 169.484,-168.064 139.474,-154.794 137.894,-154.096 136.308,-153.314 134.734,-152.475"/>
<polygon fill="green" stroke="green" stroke-width="0.143839" points="136.374,-149.377 126,-147.225 132.768,-155.377 136.374,-149.377"/>
</g>
<!-- In 0&#45;&gt;231 -->
<g id="edge14" class="edge"><title>In 0&#45;&gt;231</title>
<path fill="none" stroke="red" stroke-width="0.114722" d="M303.82,-194.381C280.419,-187.493 235.242,-173.061 199.474,-154.794 197.936,-154.008 196.382,-153.158 194.833,-152.267"/>
<polygon fill="red" stroke="red" stroke-width="0.114722" points="196.509,-149.187 186.171,-146.866 192.805,-155.127 196.509,-149.187"/>
</g>
<!-- In 0&#45;&gt;232 -->
<g id="edge15" class="edge"><title>In 0&#45;&gt;232</title>
<path fill="none" stroke="red" stroke-width="0.3" d="M308.075,-190.661C294.661,-181.091 271.992,-164.917 254.436,-152.391"/>
<polygon fill="red" stroke="red" stroke-width="0.3" points="256.465,-149.539 246.292,-146.58 252.399,-155.237 256.465,-149.539"/>
</g>
<!-- In 0&#45;&gt;233 -->
<g id="edge16" class="edge"><title>In 0&#45;&gt;233</title>
<path fill="none" stroke="red" stroke-width="0.18613" d="M315.674,-190.661C312.318,-183.478 307.225,-172.576 302.418,-162.288"/>
<polygon fill="red" stroke="red" stroke-width="0.18613" points="305.547,-160.715 298.143,-153.136 299.205,-163.678 305.547,-160.715"/>
</g>
<!-- In 0&#45;&gt;234 -->
<g id="edge17" class="edge"><title>In 0&#45;&gt;234</title>
<path fill="none" stroke="green" stroke-width="0.272537" d="M323.273,-190.661C326.629,-183.478 331.723,-172.576 336.529,-162.288"/>
<polygon fill="green" stroke="green" stroke-width="0.272537" points="339.743,-163.678 340.805,-153.136 333.401,-160.715 339.743,-163.678"/>
</g>
<!-- In 0&#45;&gt;235 -->
<g id="edge18" class="edge"><title>In 0&#45;&gt;235</title>
<path fill="none" stroke="red" stroke-width="0.286671" d="M330.872,-190.661C344.286,-181.091 366.955,-164.917 384.511,-152.391"/>
<polygon fill="red" stroke="red" stroke-width="0.286671" points="386.548,-155.237 392.656,-146.58 382.483,-149.539 386.548,-155.237"/>
</g>
<!-- 230&#45;&gt;Cooperate -->
<g id="edge19" class="edge"><title>230&#45;&gt;Cooperate</title>
<path fill="none" stroke="green" stroke-width="0.3" d="M125.262,-118.8C139.708,-106.19 161.618,-87.0661 180.343,-70.7213"/>
<polygon fill="green" stroke="green" stroke-width="0.3" points="182.91,-73.1265 188.142,-63.9137 178.307,-67.8529 182.91,-73.1265"/>
</g>
<!-- 230&#45;&gt;Defect -->
<g id="edge20" class="edge"><title>230&#45;&gt;Defect</title>
<path fill="none" stroke="red" stroke-width="0.208058" d="M126.063,-120.075C130.287,-117.27 134.923,-114.497 139.474,-112.368 191.45,-88.0422 213.918,-105.307 263.474,-76.3675 267.638,-73.9355 271.686,-70.9472 275.491,-67.7311"/>
<polygon fill="red" stroke="red" stroke-width="0.208058" points="277.918,-70.2546 282.92,-60.9148 273.185,-65.0967 277.918,-70.2546"/>
</g>
<!-- 231&#45;&gt;Cooperate -->
<g id="edge21" class="edge"><title>231&#45;&gt;Cooperate</title>
<path fill="none" stroke="red" stroke-width="0.21839" d="M178.76,-114.129C183.446,-104.816 189.34,-93.1032 195.067,-81.7225"/>
<polygon fill="red" stroke="red" stroke-width="0.21839" points="198.229,-83.2248 199.598,-72.7187 191.976,-80.0781 198.229,-83.2248"/>
</g>
<!-- 231&#45;&gt;Defect -->
<g id="edge22" class="edge"><title>231&#45;&gt;Defect</title>
<path fill="none" stroke="red" stroke-width="0.288365" d="M186.452,-120.795C190.664,-117.968 195.198,-115.005 199.474,-112.368 227.251,-95.2357 237.365,-95.948 263.474,-76.3675 267.332,-73.474 271.198,-70.2126 274.909,-66.8541"/>
<polygon fill="red" stroke="red" stroke-width="0.288365" points="277.391,-69.3239 282.253,-59.9106 272.582,-64.2373 277.391,-69.3239"/>
</g>
<!-- 232&#45;&gt;Cooperate -->
<g id="edge23" class="edge"><title>232&#45;&gt;Cooperate</title>
<path fill="none" stroke="red" stroke-width="0.193501" d="M226.653,-112.315C225.59,-104.675 224.33,-95.6273 223.066,-86.5463"/>
<polygon fill="red" stroke="red" stroke-width="0.193501" points="226.493,-85.7745 221.647,-76.3525 219.559,-86.7396 226.493,-85.7745"/>
</g>
<!-- 232&#45;&gt;Defect -->
<g id="edge24" class="edge"><title>232&#45;&gt;Defect</title>
<path fill="none" stroke="green" stroke-width="0.3" d="M242.015,-116.312C251.874,-103.524 265.889,-85.3433 277.837,-69.845"/>
<polygon fill="green" stroke="green" stroke-width="0.3" points="280.889,-71.6189 284.222,-61.5621 275.345,-67.345 280.889,-71.6189"/>
</g>
<!-- 233&#45;&gt;Cooperate -->
<g id="edge25" class="edge"><title>233&#45;&gt;Cooperate</title>
<path fill="none" stroke="green" stroke-width="0.3" d="M276.758,-116.312C268.221,-105.39 256.61,-90.5341 245.856,-76.7755"/>
<polygon fill="green" stroke="green" stroke-width="0.3" points="248.569,-74.5629 239.653,-68.8394 243.054,-78.8737 248.569,-74.5629"/>
</g>
<!-- 233&#45;&gt;Defect -->
<g id="edge26" class="edge"><title>233&#45;&gt;Defect</title>
<path fill="none" stroke="green" stroke-width="0.251261" d="M292.078,-112.315C293.389,-102.107 295.024,-89.387 296.56,-77.4313"/>
<polygon fill="green" stroke="green" stroke-width="0.251261" points="300.071,-77.5685 297.874,-67.204 293.128,-76.6764 300.071,-77.5685"/>
</g>
<!-- 234&#45;&gt;Cooperate -->
<g id="edge27" class="edge"><title>234&#45;&gt;Cooperate</title>
<path fill="none" stroke="red" stroke-width="0.261446" d="M332.383,-120.972C328.174,-118.14 323.671,-115.13 319.474,-112.368 294.759,-96.1001 287.549,-93.5672 263.474,-76.3675 260.279,-74.0853 257.005,-71.668 253.745,-69.205"/>
<polygon fill="red" stroke="red" stroke-width="0.261446" points="255.782,-66.3568 245.72,-63.0395 251.517,-71.9076 255.782,-66.3568"/>
</g>
<!-- 234&#45;&gt;Defect -->
<g id="edge28" class="edge"><title>234&#45;&gt;Defect</title>
<path fill="none" stroke="red" stroke-width="0.291889" d="M339.991,-114.129C334.041,-102.553 326.186,-87.2674 319.121,-73.5218"/>
<polygon fill="red" stroke="red" stroke-width="0.291889" points="322.074,-71.6104 314.39,-64.3161 315.848,-74.8101 322.074,-71.6104"/>
</g>
<!-- 235&#45;&gt;Cooperate -->
<g id="edge29" class="edge"><title>235&#45;&gt;Cooperate</title>
<path fill="none" stroke="green" stroke-width="0.2318" d="M392.856,-120.135C388.633,-117.327 384.005,-114.539 379.474,-112.368 330.794,-89.0377 311.227,-101.54 263.474,-76.3675 259.95,-74.5102 256.43,-72.3769 252.99,-70.0917"/>
<polygon fill="green" stroke="green" stroke-width="0.2318" points="254.83,-67.1054 244.65,-64.1689 250.777,-72.8127 254.83,-67.1054"/>
</g>
<!-- 235&#45;&gt;Defect -->
<g id="edge30" class="edge"><title>235&#45;&gt;Defect</title>
<path fill="none" stroke="green" stroke-width="0.158757" d="M393.538,-118.8C377.066,-104.555 350.979,-81.995 330.773,-64.5214"/>
<polygon fill="green" stroke="green" stroke-width="0.158757" points="332.927,-61.7569 323.074,-57.8631 328.348,-67.0517 332.927,-61.7569"/>
</g>
</g>
</svg>
