<?xml version="1.0" encoding="UTF-8" standalone="no"?>
<!DOCTYPE svg PUBLIC "-//W3C//DTD SVG 1.1//EN"
 "http://www.w3.org/Graphics/SVG/1.1/DTD/svg11.dtd">
<!-- Generated by graphviz version 2.38.0 (20140413.2041)
 -->
<!-- Title: %3 Pages: 1 -->
<svg width="333pt" height="301pt"
 viewBox="0.00 0.00 332.82 300.88" xmlns="http://www.w3.org/2000/svg" xmlns:xlink="http://www.w3.org/1999/xlink">
<g id="graph0" class="graph" transform="scale(1 1) rotate(0) translate(4 296.877)">
<title>%3</title>
<polygon fill="white" stroke="none" points="-4,4 -4,-296.877 328.823,-296.877 328.823,4 -4,4"/>
<!-- In &#45;2 -->
<g id="node1" class="node"><title>In &#45;2</title>
<polygon fill="lightgray" stroke="black" points="181.81,-136.217 147.81,-136.217 147.81,-118.217 181.81,-118.217 181.81,-136.217"/>
<text text-anchor="middle" x="164.81" y="-125.017" font-family="Times New Roman,serif" font-size="9.00">In &#45;2</text>
</g>
<!-- 670 -->
<g id="node9" class="node"><title>670</title>
<ellipse fill="white" stroke="black" cx="186.81" cy="-32.5269" rx="21.4286" ry="21.4286"/>
<text text-anchor="middle" x="186.81" y="-30.3269" font-family="Times New Roman,serif" font-size="9.00">670</text>
</g>
<!-- In &#45;2&#45;&gt;670 -->
<g id="edge1" class="edge"><title>In &#45;2&#45;&gt;670</title>
<path fill="none" stroke="red" stroke-width="0.3" d="M166.762,-117.991C169.65,-105.823 175.208,-82.4058 179.741,-63.309"/>
<polygon fill="red" stroke="red" stroke-width="0.3" points="183.16,-64.0595 182.064,-53.5216 176.349,-62.4429 183.16,-64.0595"/>
</g>
<!-- In &#160;&#45;1 -->
<g id="node2" class="node"><title>In &#160;&#45;1</title>
<polygon fill="lightgray" stroke="black" points="113.81,-292.877 77.8098,-292.877 77.8098,-274.877 113.81,-274.877 113.81,-292.877"/>
<text text-anchor="middle" x="95.8098" y="-281.677" font-family="Times New Roman,serif" font-size="9.00">In &#160;&#45;1</text>
</g>
<!-- Confess -->
<g id="node4" class="node"><title>Confess</title>
<ellipse fill="lightblue" stroke="black" cx="37.8098" cy="-32.5269" rx="32.5538" ry="32.5538"/>
<text text-anchor="middle" x="37.8098" y="-30.3269" font-family="Times New Roman,serif" font-size="9.00">Confess</text>
</g>
<!-- In &#160;&#45;1&#45;&gt;Confess -->
<g id="edge5" class="edge"><title>In &#160;&#45;1&#45;&gt;Confess</title>
<path fill="none" stroke="red" stroke-width="0.251049" stroke-dasharray="1,5" d="M81.43,-274.782C68.7332,-267.004 50.4758,-254.192 38.8098,-238.877 13.929,-206.215 11.7367,-193.667 3.80983,-153.38 -0.679927,-130.561 -1.56495,-123.68 3.80983,-101.054 6.36154,-90.3119 10.9072,-79.3385 15.861,-69.4456"/>
<polygon fill="red" stroke="red" stroke-width="0.251049" points="19.0988,-70.8101 20.6838,-60.3345 12.9121,-67.5352 19.0988,-70.8101"/>
</g>
<!-- 1720 -->
<g id="node8" class="node"><title>1720</title>
<ellipse fill="white" stroke="black" cx="37.8098" cy="-127.217" rx="25" ry="25"/>
<text text-anchor="middle" x="37.8098" y="-125.017" font-family="Times New Roman,serif" font-size="9.00">1720</text>
</g>
<!-- In &#160;&#45;1&#45;&gt;1720 -->
<g id="edge13" class="edge"><title>In &#160;&#45;1&#45;&gt;1720</title>
<path fill="none" stroke="green" stroke-width="0.252373" d="M86.1088,-274.862C77.0104,-266.769 63.7906,-253.416 56.8098,-238.877 45.3016,-214.909 40.6629,-185.067 38.8405,-162.414"/>
<polygon fill="green" stroke="green" stroke-width="0.252373" points="42.3204,-161.993 38.1704,-152.245 35.3355,-162.453 42.3204,-161.993"/>
</g>
<!-- In &#160;&#45;1&#45;&gt;670 -->
<g id="edge2" class="edge"><title>In &#160;&#45;1&#45;&gt;670</title>
<path fill="none" stroke="green" stroke-width="0.3" d="M113.982,-280.013C141.565,-275.046 194.899,-262.972 233.81,-238.877 278.836,-210.996 296.906,-202.457 316.81,-153.38 325.55,-131.829 328.883,-120.93 316.81,-101.054 295.339,-65.7061 248.689,-48.0181 217.513,-39.8172"/>
<polygon fill="green" stroke="green" stroke-width="0.3" points="218.138,-36.3668 207.592,-37.3879 216.473,-43.1659 218.138,-36.3668"/>
</g>
<!-- 671 -->
<g id="node10" class="node"><title>671</title>
<ellipse fill="white" stroke="black" cx="154.81" cy="-214.128" rx="21.4286" ry="21.4286"/>
<text text-anchor="middle" x="154.81" y="-211.928" font-family="Times New Roman,serif" font-size="9.00">671</text>
</g>
<!-- In &#160;&#45;1&#45;&gt;671 -->
<g id="edge3" class="edge"><title>In &#160;&#45;1&#45;&gt;671</title>
<path fill="none" stroke="red" stroke-width="0.3" d="M102.81,-274.839C110.646,-265.841 123.697,-250.855 134.763,-238.147"/>
<polygon fill="red" stroke="red" stroke-width="0.3" points="137.405,-240.444 141.333,-230.604 132.126,-235.846 137.405,-240.444"/>
</g>
<!-- In 0 -->
<g id="node3" class="node"><title>In 0</title>
<polygon fill="lightgray" stroke="black" points="225.31,-223.128 194.31,-223.128 194.31,-205.128 225.31,-205.128 225.31,-223.128"/>
<text text-anchor="middle" x="209.81" y="-211.928" font-family="Times New Roman,serif" font-size="9.00">In 0</text>
</g>
<!-- Silent -->
<g id="node5" class="node"><title>Silent</title>
<ellipse fill="lightblue" stroke="black" cx="263.81" cy="-127.217" rx="26.3269" ry="26.3269"/>
<text text-anchor="middle" x="263.81" y="-125.017" font-family="Times New Roman,serif" font-size="9.00">Silent</text>
</g>
<!-- In 0&#45;&gt;Silent -->
<g id="edge6" class="edge"><title>In 0&#45;&gt;Silent</title>
<path fill="none" stroke="red" stroke-width="0.159852" d="M214.988,-204.987C221.759,-194.34 233.999,-175.093 244.529,-158.535"/>
<polygon fill="red" stroke="red" stroke-width="0.159852" points="247.744,-160.001 250.157,-149.685 241.837,-156.245 247.744,-160.001"/>
</g>
<!-- 1396 -->
<g id="node6" class="node"><title>1396</title>
<ellipse fill="white" stroke="black" cx="104.81" cy="-127.217" rx="25" ry="25"/>
<text text-anchor="middle" x="104.81" y="-125.017" font-family="Times New Roman,serif" font-size="9.00">1396</text>
</g>
<!-- In 0&#45;&gt;1396 -->
<g id="edge11" class="edge"><title>In 0&#45;&gt;1396</title>
<path fill="none" stroke="red" stroke-width="0.3" stroke-dasharray="1,5" d="M201.682,-204.984C196.89,-200.29 190.64,-194.353 184.81,-189.38 175.367,-181.325 151.789,-163.39 132.66,-149.012"/>
<polygon fill="red" stroke="red" stroke-width="0.3" points="134.62,-146.107 124.521,-142.907 130.42,-151.707 134.62,-146.107"/>
</g>
<!-- In 0&#45;&gt;670 -->
<g id="edge4" class="edge"><title>In 0&#45;&gt;670</title>
<path fill="none" stroke="red" stroke-width="0.26367" d="M208.762,-204.945C205.61,-180.336 196.104,-106.106 190.692,-63.8385"/>
<polygon fill="red" stroke="red" stroke-width="0.26367" points="194.152,-63.3051 189.41,-53.8307 187.209,-64.1943 194.152,-63.3051"/>
</g>
<!-- Confess&#45;&gt;Confess -->
<g id="edge7" class="edge"><title>Confess&#45;&gt;Confess</title>
<path fill="none" stroke="red" stroke-width="0.11225" stroke-dasharray="1,5" d="M65.3554,-49.8765C77.6787,-51.5289 88.3367,-45.7457 88.3367,-32.5269 88.3367,-23.2325 83.0676,-17.6141 75.6553,-15.6717"/>
<polygon fill="red" stroke="red" stroke-width="0.11225" points="75.5117,-12.1608 65.3554,-15.1773 75.1761,-19.1528 75.5117,-12.1608"/>
</g>
<!-- Silent&#45;&gt;Silent -->
<g id="edge8" class="edge"><title>Silent&#45;&gt;Silent</title>
<path fill="none" stroke="red" stroke-width="0.14435" d="M285.167,-142.57C297.04,-145.436 307.973,-140.318 307.973,-127.217 307.973,-118.005 302.568,-112.74 295.231,-111.422"/>
<polygon fill="red" stroke="red" stroke-width="0.14435" points="295.004,-107.928 285.167,-111.863 295.311,-114.922 295.004,-107.928"/>
</g>
<!-- 1396&#45;&gt;Confess -->
<g id="edge10" class="edge"><title>1396&#45;&gt;Confess</title>
<path fill="none" stroke="red" stroke-width="0.145564" stroke-dasharray="1,5" d="M90.6009,-106.56C82.4712,-95.3128 72.0423,-80.8851 62.604,-67.8279"/>
<polygon fill="red" stroke="red" stroke-width="0.145564" points="65.2737,-65.5466 56.5789,-59.4926 59.6006,-69.6474 65.2737,-65.5466"/>
</g>
<!-- 1396&#45;&gt;670 -->
<g id="edge12" class="edge"><title>1396&#45;&gt;670</title>
<path fill="none" stroke="green" stroke-width="0.117316" d="M121.01,-107.904C133.968,-93.2578 152.218,-72.6282 166.212,-56.8094"/>
<polygon fill="green" stroke="green" stroke-width="0.117316" points="169.088,-58.8418 173.092,-49.033 163.845,-54.2036 169.088,-58.8418"/>
</g>
<!-- 1589 -->
<g id="node7" class="node"><title>1589</title>
<ellipse fill="white" stroke="black" cx="90.8098" cy="-214.128" rx="25" ry="25"/>
<text text-anchor="middle" x="90.8098" y="-211.928" font-family="Times New Roman,serif" font-size="9.00">1589</text>
</g>
<!-- 1589&#45;&gt;1396 -->
<g id="edge15" class="edge"><title>1589&#45;&gt;1396</title>
<path fill="none" stroke="red" stroke-width="0.3" d="M94.7096,-189.476C96.1204,-180.919 97.7418,-171.085 99.2667,-161.836"/>
<polygon fill="red" stroke="red" stroke-width="0.3" points="102.757,-162.179 100.931,-151.743 95.8507,-161.04 102.757,-162.179"/>
</g>
<!-- 1720&#45;&gt;Confess -->
<g id="edge14" class="edge"><title>1720&#45;&gt;Confess</title>
<path fill="none" stroke="red" stroke-width="0.3" d="M37.8098,-102.347C37.8098,-94.1626 37.8098,-84.7446 37.8098,-75.555"/>
<polygon fill="red" stroke="red" stroke-width="0.3" points="41.3099,-75.3545 37.8098,-65.3546 34.3099,-75.3546 41.3099,-75.3545"/>
</g>
<!-- 671&#45;&gt;1396 -->
<g id="edge9" class="edge"><title>671&#45;&gt;1396</title>
<path fill="none" stroke="green" stroke-width="0.102299" d="M144.45,-195.535C138.051,-184.668 129.676,-170.446 122.274,-157.875"/>
<polygon fill="green" stroke="green" stroke-width="0.102299" points="125.188,-155.926 117.098,-149.085 119.156,-159.478 125.188,-155.926"/>
</g>
</g>
</svg>
