<?xml version="1.0" encoding="UTF-8" standalone="no"?>
<!DOCTYPE svg PUBLIC "-//W3C//DTD SVG 1.1//EN"
 "http://www.w3.org/Graphics/SVG/1.1/DTD/svg11.dtd">
<!-- Generated by graphviz version 2.38.0 (20140413.2041)
 -->
<!-- Title: %3 Pages: 1 -->
<svg width="278pt" height="193pt"
 viewBox="0.00 0.00 277.70 192.75" xmlns="http://www.w3.org/2000/svg" xmlns:xlink="http://www.w3.org/1999/xlink">
<g id="graph0" class="graph" transform="scale(1 1) rotate(0) translate(4 188.752)">
<title>%3</title>
<polygon fill="white" stroke="none" points="-4,4 -4,-188.752 273.698,-188.752 273.698,4 -4,4"/>
<!-- In &#45;2 -->
<g id="node1" class="node"><title>In &#45;2</title>
<polygon fill="lightgray" stroke="black" points="98.8492,-184.752 64.8492,-184.752 64.8492,-166.752 98.8492,-166.752 98.8492,-184.752"/>
<text text-anchor="middle" x="81.8492" y="-173.552" font-family="Times New Roman,serif" font-size="9.00">In &#45;2</text>
</g>
<!-- 2 -->
<g id="node6" class="node"><title>2</title>
<ellipse fill="white" stroke="black" cx="14.8492" cy="-115.903" rx="14.7" ry="14.7"/>
<text text-anchor="middle" x="14.8492" y="-113.703" font-family="Times New Roman,serif" font-size="9.00">2</text>
</g>
<!-- In &#45;2&#45;&gt;2 -->
<g id="edge1" class="edge"><title>In &#45;2&#45;&gt;2</title>
<path fill="none" stroke="red" stroke-width="0.247795" d="M72.5332,-166.709C62.5047,-158.05 46.2848,-144.045 33.5949,-133.088"/>
<polygon fill="red" stroke="red" stroke-width="0.247795" points="35.7224,-130.301 25.866,-126.415 31.1477,-135.6 35.7224,-130.301"/>
</g>
<!-- 3 -->
<g id="node7" class="node"><title>3</title>
<ellipse fill="white" stroke="black" cx="62.8492" cy="-115.903" rx="14.7" ry="14.7"/>
<text text-anchor="middle" x="62.8492" y="-113.703" font-family="Times New Roman,serif" font-size="9.00">3</text>
</g>
<!-- In &#45;2&#45;&gt;3 -->
<g id="edge2" class="edge"><title>In &#45;2&#45;&gt;3</title>
<path fill="none" stroke="green" stroke-width="0.3" d="M79.2074,-166.709C76.931,-159.778 73.5296,-149.422 70.4172,-139.945"/>
<polygon fill="green" stroke="green" stroke-width="0.3" points="73.6659,-138.62 67.2201,-130.211 67.0154,-140.804 73.6659,-138.62"/>
</g>
<!-- 4 -->
<g id="node8" class="node"><title>4</title>
<ellipse fill="white" stroke="black" cx="110.849" cy="-115.903" rx="14.7" ry="14.7"/>
<text text-anchor="middle" x="110.849" y="-113.703" font-family="Times New Roman,serif" font-size="9.00">4</text>
</g>
<!-- In &#45;2&#45;&gt;4 -->
<g id="edge3" class="edge"><title>In &#45;2&#45;&gt;4</title>
<path fill="none" stroke="green" stroke-width="0.3" d="M85.8816,-166.709C89.4767,-159.537 94.9101,-148.698 99.7912,-138.962"/>
<polygon fill="green" stroke="green" stroke-width="0.3" points="103.047,-140.277 104.4,-129.769 96.7893,-137.14 103.047,-140.277"/>
</g>
<!-- 5 -->
<g id="node9" class="node"><title>5</title>
<ellipse fill="white" stroke="black" cx="158.849" cy="-115.903" rx="14.7" ry="14.7"/>
<text text-anchor="middle" x="158.849" y="-113.703" font-family="Times New Roman,serif" font-size="9.00">5</text>
</g>
<!-- In &#45;2&#45;&gt;5 -->
<g id="edge4" class="edge"><title>In &#45;2&#45;&gt;5</title>
<path fill="none" stroke="red" stroke-width="0.156818" d="M92.5558,-166.709C104.577,-157.677 124.339,-142.83 139.165,-131.692"/>
<polygon fill="red" stroke="red" stroke-width="0.156818" points="141.335,-134.439 147.228,-125.634 137.13,-128.843 141.335,-134.439"/>
</g>
<!-- 6 -->
<g id="node10" class="node"><title>6</title>
<ellipse fill="white" stroke="black" cx="206.849" cy="-115.903" rx="14.7" ry="14.7"/>
<text text-anchor="middle" x="206.849" y="-113.703" font-family="Times New Roman,serif" font-size="9.00">6</text>
</g>
<!-- In &#45;2&#45;&gt;6 -->
<g id="edge5" class="edge"><title>In &#45;2&#45;&gt;6</title>
<path fill="none" stroke="green" stroke-width="0.213771" d="M98.9156,-168.004C119.216,-159.821 153.988,-145.308 182.849,-130.752 183.676,-130.335 184.514,-129.903 185.357,-129.459"/>
<polygon fill="green" stroke="green" stroke-width="0.213771" points="187.243,-132.416 194.291,-124.505 183.848,-126.294 187.243,-132.416"/>
</g>
<!-- 7 -->
<g id="node11" class="node"><title>7</title>
<ellipse fill="white" stroke="black" cx="254.849" cy="-115.903" rx="14.7" ry="14.7"/>
<text text-anchor="middle" x="254.849" y="-113.703" font-family="Times New Roman,serif" font-size="9.00">7</text>
</g>
<!-- In &#45;2&#45;&gt;7 -->
<g id="edge6" class="edge"><title>In &#45;2&#45;&gt;7</title>
<path fill="none" stroke="red" stroke-width="0.298102" d="M98.9015,-169.469C101.882,-168.556 104.954,-167.621 107.849,-166.752 162.404,-150.376 178.476,-153.146 230.849,-130.752 231.701,-130.388 232.56,-130.001 233.421,-129.595"/>
<polygon fill="red" stroke="red" stroke-width="0.298102" points="235.239,-132.593 242.436,-124.818 231.961,-126.407 235.239,-132.593"/>
</g>
<!-- In &#160;&#45;1 -->
<g id="node2" class="node"><title>In &#160;&#45;1</title>
<polygon fill="lightgray" stroke="black" points="152.849,-184.752 116.849,-184.752 116.849,-166.752 152.849,-166.752 152.849,-184.752"/>
<text text-anchor="middle" x="134.849" y="-173.552" font-family="Times New Roman,serif" font-size="9.00">In &#160;&#45;1</text>
</g>
<!-- In &#160;&#45;1&#45;&gt;2 -->
<g id="edge7" class="edge"><title>In &#160;&#45;1&#45;&gt;2</title>
<path fill="none" stroke="red" stroke-width="0.284977" d="M116.559,-166.978C97.0621,-158.551 65.4036,-144.461 38.8492,-130.752 38.0264,-130.328 37.1916,-129.888 36.3512,-129.439"/>
<polygon fill="red" stroke="red" stroke-width="0.284977" points="37.8687,-126.278 27.4311,-124.459 34.4562,-132.39 37.8687,-126.278"/>
</g>
<!-- In &#160;&#45;1&#45;&gt;3 -->
<g id="edge8" class="edge"><title>In &#160;&#45;1&#45;&gt;3</title>
<path fill="none" stroke="green" stroke-width="0.3" d="M124.838,-166.709C113.83,-157.864 95.8817,-143.443 82.1236,-132.389"/>
<polygon fill="green" stroke="green" stroke-width="0.3" points="84.186,-129.557 74.1983,-126.022 79.8016,-135.013 84.186,-129.557"/>
</g>
<!-- In &#160;&#45;1&#45;&gt;4 -->
<g id="edge9" class="edge"><title>In &#160;&#45;1&#45;&gt;4</title>
<path fill="none" stroke="red" stroke-width="0.196787" d="M131.512,-166.709C128.568,-159.612 124.134,-148.924 120.127,-139.266"/>
<polygon fill="red" stroke="red" stroke-width="0.196787" points="123.252,-137.664 116.187,-129.769 116.786,-140.347 123.252,-137.664"/>
</g>
<!-- In &#160;&#45;1&#45;&gt;5 -->
<g id="edge10" class="edge"><title>In &#160;&#45;1&#45;&gt;5</title>
<path fill="none" stroke="green" stroke-width="0.174648" d="M138.186,-166.709C141.131,-159.612 145.565,-148.924 149.571,-139.266"/>
<polygon fill="green" stroke="green" stroke-width="0.174648" points="152.912,-140.347 153.512,-129.769 146.447,-137.664 152.912,-140.347"/>
</g>
<!-- In &#160;&#45;1&#45;&gt;6 -->
<g id="edge11" class="edge"><title>In &#160;&#45;1&#45;&gt;6</title>
<path fill="none" stroke="green" stroke-width="0.138865" d="M144.861,-166.709C155.868,-157.864 173.817,-143.443 187.575,-132.389"/>
<polygon fill="green" stroke="green" stroke-width="0.138865" points="189.897,-135.013 195.5,-126.022 185.512,-129.557 189.897,-135.013"/>
</g>
<!-- In &#160;&#45;1&#45;&gt;7 -->
<g id="edge12" class="edge"><title>In &#160;&#45;1&#45;&gt;7</title>
<path fill="none" stroke="green" stroke-width="0.166215" d="M153.139,-166.978C172.636,-158.551 204.295,-144.461 230.849,-130.752 231.672,-130.328 232.507,-129.888 233.347,-129.439"/>
<polygon fill="green" stroke="green" stroke-width="0.166215" points="235.242,-132.39 242.267,-124.459 231.83,-126.278 235.242,-132.39"/>
</g>
<!-- In 0 -->
<g id="node3" class="node"><title>In 0</title>
<polygon fill="lightgray" stroke="black" points="202.349,-184.752 171.349,-184.752 171.349,-166.752 202.349,-166.752 202.349,-184.752"/>
<text text-anchor="middle" x="186.849" y="-173.552" font-family="Times New Roman,serif" font-size="9.00">In 0</text>
</g>
<!-- In 0&#45;&gt;2 -->
<g id="edge13" class="edge"><title>In 0&#45;&gt;2</title>
<path fill="none" stroke="red" stroke-width="0.3" d="M171.265,-169.699C168.151,-168.708 164.899,-167.687 161.849,-166.752 107.387,-150.071 91.2226,-153.146 38.8492,-130.752 37.9978,-130.388 37.1386,-130.001 36.2778,-129.595"/>
<polygon fill="red" stroke="red" stroke-width="0.3" points="37.737,-126.407 27.2621,-124.818 34.4594,-132.593 37.737,-126.407"/>
</g>
<!-- In 0&#45;&gt;3 -->
<g id="edge14" class="edge"><title>In 0&#45;&gt;3</title>
<path fill="none" stroke="green" stroke-width="0.3" d="M171.015,-168.412C151.089,-160.29 115.951,-145.496 86.8492,-130.752 86.0232,-130.334 85.1856,-129.9 84.343,-129.455"/>
<polygon fill="green" stroke="green" stroke-width="0.3" points="85.8538,-126.291 75.4121,-124.496 82.4555,-132.411 85.8538,-126.291"/>
</g>
<!-- In 0&#45;&gt;4 -->
<g id="edge15" class="edge"><title>In 0&#45;&gt;4</title>
<path fill="none" stroke="red" stroke-width="0.148493" d="M176.282,-166.709C164.417,-157.677 144.911,-142.83 130.278,-131.692"/>
<polygon fill="red" stroke="red" stroke-width="0.148493" points="132.397,-128.906 122.32,-125.634 128.157,-134.476 132.397,-128.906"/>
</g>
<!-- In 0&#45;&gt;5 -->
<g id="edge16" class="edge"><title>In 0&#45;&gt;5</title>
<path fill="none" stroke="green" stroke-width="0.277852" d="M182.956,-166.709C179.485,-159.537 174.239,-148.698 169.526,-138.962"/>
<polygon fill="green" stroke="green" stroke-width="0.277852" points="172.583,-137.245 165.076,-129.769 166.283,-140.295 172.583,-137.245"/>
</g>
<!-- In 0&#45;&gt;6 -->
<g id="edge17" class="edge"><title>In 0&#45;&gt;6</title>
<path fill="none" stroke="red" stroke-width="0.173022" d="M189.63,-166.709C192.026,-159.778 195.607,-149.422 198.883,-139.945"/>
<polygon fill="red" stroke="red" stroke-width="0.173022" points="202.289,-140.806 202.248,-130.211 195.673,-138.519 202.289,-140.806"/>
</g>
<!-- In 0&#45;&gt;7 -->
<g id="edge18" class="edge"><title>In 0&#45;&gt;7</title>
<path fill="none" stroke="red" stroke-width="0.3" d="M196.304,-166.709C206.483,-158.05 222.944,-144.045 235.824,-133.088"/>
<polygon fill="red" stroke="red" stroke-width="0.3" points="238.319,-135.561 243.668,-126.415 233.783,-130.229 238.319,-135.561"/>
</g>
<!-- Confess -->
<g id="node4" class="node"><title>Confess</title>
<ellipse fill="lightblue" stroke="black" cx="95.8492" cy="-32.5269" rx="32.5538" ry="32.5538"/>
<text text-anchor="middle" x="95.8492" y="-30.3269" font-family="Times New Roman,serif" font-size="9.00">Confess</text>
</g>
<!-- Silent -->
<g id="node5" class="node"><title>Silent</title>
<ellipse fill="lightblue" stroke="black" cx="172.849" cy="-32.5269" rx="26.3269" ry="26.3269"/>
<text text-anchor="middle" x="172.849" y="-30.3269" font-family="Times New Roman,serif" font-size="9.00">Silent</text>
</g>
<!-- 2&#45;&gt;Confess -->
<g id="edge19" class="edge"><title>2&#45;&gt;Confess</title>
<path fill="none" stroke="green" stroke-width="0.199522" d="M25.1079,-104.597C35.3308,-94.3264 51.5261,-78.0559 65.8425,-63.673"/>
<polygon fill="green" stroke="green" stroke-width="0.199522" points="68.5421,-65.9221 73.1162,-56.3655 63.5809,-60.9839 68.5421,-65.9221"/>
</g>
<!-- 2&#45;&gt;Silent -->
<g id="edge20" class="edge"><title>2&#45;&gt;Silent</title>
<path fill="none" stroke="green" stroke-width="0.135783" d="M27.3335,-107.148C30.977,-105.037 35.0121,-102.842 38.8492,-101.054 81.2866,-81.2784 97.7166,-89.1654 137.849,-65.0538 141.052,-63.1296 144.226,-60.8881 147.28,-58.5037"/>
<polygon fill="green" stroke="green" stroke-width="0.135783" points="149.631,-61.1001 155.021,-51.9787 145.119,-55.7481 149.631,-61.1001"/>
</g>
<!-- 3&#45;&gt;Confess -->
<g id="edge21" class="edge"><title>3&#45;&gt;Confess</title>
<path fill="none" stroke="green" stroke-width="0.102095" d="M68.1513,-101.829C71.3875,-93.8482 75.7119,-83.1845 79.9799,-72.6597"/>
<polygon fill="green" stroke="green" stroke-width="0.102095" points="83.3363,-73.6965 83.8509,-63.1142 76.8494,-71.0659 83.3363,-73.6965"/>
</g>
<!-- 3&#45;&gt;Silent -->
<g id="edge22" class="edge"><title>3&#45;&gt;Silent</title>
<path fill="none" stroke="green" stroke-width="0.11886" d="M75.1779,-107.486C90.3594,-98.1798 116.727,-81.444 137.849,-65.0538 140.648,-62.8823 143.501,-60.5431 146.311,-58.1552"/>
<polygon fill="green" stroke="green" stroke-width="0.11886" points="148.813,-60.6159 154.031,-51.3949 144.202,-55.3495 148.813,-60.6159"/>
</g>
<!-- 4&#45;&gt;Confess -->
<g id="edge23" class="edge"><title>4&#45;&gt;Confess</title>
<path fill="none" stroke="red" stroke-width="0.278384" d="M108.305,-101.099C106.94,-93.6946 105.179,-84.1407 103.413,-74.5613"/>
<polygon fill="red" stroke="red" stroke-width="0.278384" points="106.843,-73.8581 101.588,-64.6582 99.9585,-75.127 106.843,-73.8581"/>
</g>
<!-- 4&#45;&gt;Silent -->
<g id="edge24" class="edge"><title>4&#45;&gt;Silent</title>
<path fill="none" stroke="green" stroke-width="0.220842" d="M119.47,-103.588C127.647,-92.855 140.274,-76.2831 151.193,-61.9508"/>
<polygon fill="green" stroke="green" stroke-width="0.220842" points="154.103,-63.9075 157.379,-53.832 148.534,-59.6652 154.103,-63.9075"/>
</g>
<!-- 5&#45;&gt;Confess -->
<g id="edge25" class="edge"><title>5&#45;&gt;Confess</title>
<path fill="none" stroke="red" stroke-width="0.121831" d="M150.089,-103.588C142.698,-94.0403 131.729,-79.8721 121.586,-66.7701"/>
<polygon fill="red" stroke="red" stroke-width="0.121831" points="124.305,-64.5656 115.416,-58.8009 118.77,-68.8508 124.305,-64.5656"/>
</g>
<!-- 5&#45;&gt;Silent -->
<g id="edge26" class="edge"><title>5&#45;&gt;Silent</title>
<path fill="none" stroke="green" stroke-width="0.100305" d="M161.224,-101.099C162.769,-92.1203 164.857,-79.9806 166.838,-68.4675"/>
<polygon fill="green" stroke="green" stroke-width="0.100305" points="170.288,-69.0551 168.535,-58.6064 163.39,-67.8682 170.288,-69.0551"/>
</g>
<!-- 6&#45;&gt;Confess -->
<g id="edge27" class="edge"><title>6&#45;&gt;Confess</title>
<path fill="none" stroke="green" stroke-width="0.273894" d="M195.081,-106.501C181.309,-96.6439 157.841,-79.7765 137.849,-65.0538 135.206,-63.1075 132.476,-61.0851 129.736,-59.0465"/>
<polygon fill="green" stroke="green" stroke-width="0.273894" points="131.666,-56.1201 121.559,-52.9421 127.479,-61.7293 131.666,-56.1201"/>
</g>
<!-- 6&#45;&gt;Silent -->
<g id="edge28" class="edge"><title>6&#45;&gt;Silent</title>
<path fill="none" stroke="green" stroke-width="0.137886" d="M201.387,-101.829C197.378,-92.2336 191.748,-78.7597 186.547,-66.312"/>
<polygon fill="green" stroke="green" stroke-width="0.137886" points="189.772,-64.9522 182.688,-57.0745 183.313,-67.6509 189.772,-64.9522"/>
</g>
<!-- 7&#45;&gt;Confess -->
<g id="edge29" class="edge"><title>7&#45;&gt;Confess</title>
<path fill="none" stroke="red" stroke-width="0.150156" d="M242.341,-107.199C238.697,-105.089 234.668,-102.881 230.849,-101.054 190.87,-81.9209 176.604,-86.5601 137.849,-65.0538 134.979,-63.4612 132.086,-61.693 129.233,-59.8302"/>
<polygon fill="red" stroke="red" stroke-width="0.150156" points="131.071,-56.8465 120.855,-54.0386 127.091,-62.6044 131.071,-56.8465"/>
</g>
<!-- 7&#45;&gt;Silent -->
<g id="edge30" class="edge"><title>7&#45;&gt;Silent</title>
<path fill="none" stroke="green" stroke-width="0.185259" d="M244.794,-104.925C233.328,-93.5453 214.14,-74.5039 198.463,-58.9462"/>
<polygon fill="green" stroke="green" stroke-width="0.185259" points="200.662,-56.1972 191.099,-51.6374 195.731,-61.1658 200.662,-56.1972"/>
</g>
</g>
</svg>
